%TF.GenerationSoftware,KiCad,Pcbnew,9.0.7*%
%TF.CreationDate,2026-06-19T13:48:12+05:30*%
%TF.ProjectId,AC_TO_DC_converter,41435f54-4f5f-4444-935f-636f6e766572,rev?*%
%TF.SameCoordinates,Original*%
%TF.FileFunction,Copper,L2,Bot*%
%TF.FilePolarity,Positive*%
%FSLAX46Y46*%
G04 Gerber Fmt 4.6, Leading zero omitted, Abs format (unit mm)*
G04 Created by KiCad (PCBNEW 9.0.7) date 2026-06-19 13:48:12*
%MOMM*%
%LPD*%
G01*
G04 APERTURE LIST*
G04 Aperture macros list*
%AMRoundRect*
0 Rectangle with rounded corners*
0 $1 Rounding radius*
0 $2 $3 $4 $5 $6 $7 $8 $9 X,Y pos of 4 corners*
0 Add a 4 corners polygon primitive as box body*
4,1,4,$2,$3,$4,$5,$6,$7,$8,$9,$2,$3,0*
0 Add four circle primitives for the rounded corners*
1,1,$1+$1,$2,$3*
1,1,$1+$1,$4,$5*
1,1,$1+$1,$6,$7*
1,1,$1+$1,$8,$9*
0 Add four rect primitives between the rounded corners*
20,1,$1+$1,$2,$3,$4,$5,0*
20,1,$1+$1,$4,$5,$6,$7,0*
20,1,$1+$1,$6,$7,$8,$9,0*
20,1,$1+$1,$8,$9,$2,$3,0*%
G04 Aperture macros list end*
%TA.AperFunction,ComponentPad*%
%ADD10C,1.400000*%
%TD*%
%TA.AperFunction,ComponentPad*%
%ADD11RoundRect,0.250000X0.750000X-0.750000X0.750000X0.750000X-0.750000X0.750000X-0.750000X-0.750000X0*%
%TD*%
%TA.AperFunction,ComponentPad*%
%ADD12C,2.000000*%
%TD*%
%TA.AperFunction,ComponentPad*%
%ADD13RoundRect,0.249999X-0.850001X0.850001X-0.850001X-0.850001X0.850001X-0.850001X0.850001X0.850001X0*%
%TD*%
%TA.AperFunction,ComponentPad*%
%ADD14C,2.200000*%
%TD*%
%TA.AperFunction,ComponentPad*%
%ADD15C,1.600000*%
%TD*%
%TA.AperFunction,ComponentPad*%
%ADD16R,1.800000X1.800000*%
%TD*%
%TA.AperFunction,ComponentPad*%
%ADD17C,1.800000*%
%TD*%
%TA.AperFunction,ComponentPad*%
%ADD18RoundRect,0.250000X-0.750000X0.750000X-0.750000X-0.750000X0.750000X-0.750000X0.750000X0.750000X0*%
%TD*%
%TA.AperFunction,Conductor*%
%ADD19C,1.000000*%
%TD*%
%TA.AperFunction,Conductor*%
%ADD20C,0.500000*%
%TD*%
G04 APERTURE END LIST*
D10*
%TO.P,R2,1*%
%TO.N,/+VE*%
X167000000Y-92000000D03*
%TO.P,R2,2*%
%TO.N,Net-(D5-A)*%
X174620000Y-92000000D03*
%TD*%
D11*
%TO.P,J1,1,Pin_1*%
%TO.N,Net-(D3-A)*%
X146217500Y-86775000D03*
D12*
%TO.P,J1,2,Pin_2*%
%TO.N,Net-(D1-A)*%
X146217500Y-84235000D03*
%TD*%
D13*
%TO.P,D3,1,K*%
%TO.N,/+VE*%
X162000000Y-80500000D03*
D14*
%TO.P,D3,2,A*%
%TO.N,Net-(D3-A)*%
X162000000Y-90660000D03*
%TD*%
D10*
%TO.P,R1,1*%
%TO.N,/+VE*%
X167000000Y-80190000D03*
%TO.P,R1,2*%
%TO.N,GND*%
X167000000Y-87810000D03*
%TD*%
D15*
%TO.P,C1,1*%
%TO.N,/+VE*%
X172500000Y-98750000D03*
%TO.P,C1,2*%
%TO.N,GND*%
X172500000Y-102250000D03*
%TD*%
D16*
%TO.P,D5,1,K*%
%TO.N,GND*%
X172960000Y-83000000D03*
D17*
%TO.P,D5,2,A*%
%TO.N,Net-(D5-A)*%
X175500000Y-83000000D03*
%TD*%
D13*
%TO.P,D1,1,K*%
%TO.N,/+VE*%
X155500000Y-80500000D03*
D14*
%TO.P,D1,2,A*%
%TO.N,Net-(D1-A)*%
X155500000Y-90660000D03*
%TD*%
D13*
%TO.P,D4,1,K*%
%TO.N,Net-(D3-A)*%
X162000000Y-96000000D03*
D14*
%TO.P,D4,2,A*%
%TO.N,GND*%
X162000000Y-106160000D03*
%TD*%
D18*
%TO.P,J2,1,Pin_1*%
%TO.N,/+VE*%
X146782500Y-96225000D03*
D12*
%TO.P,J2,2,Pin_2*%
%TO.N,GND*%
X146782500Y-98765000D03*
%TD*%
D13*
%TO.P,D2,1,K*%
%TO.N,Net-(D1-A)*%
X155500000Y-96000000D03*
D14*
%TO.P,D2,2,A*%
%TO.N,GND*%
X155500000Y-106160000D03*
%TD*%
D19*
%TO.N,Net-(D1-A)*%
X155500000Y-90660000D02*
X155500000Y-96000000D01*
X155500000Y-88500000D02*
X155500000Y-90660000D01*
X151235000Y-84235000D02*
X155500000Y-88500000D01*
X146217500Y-84235000D02*
X151235000Y-84235000D01*
%TO.N,Net-(D3-A)*%
X160500000Y-100000000D02*
X162000000Y-98500000D01*
X146217500Y-86775000D02*
X149275000Y-86775000D01*
X152000000Y-98500000D02*
X153500000Y-100000000D01*
X162000000Y-98500000D02*
X162000000Y-96000000D01*
X162000000Y-90660000D02*
X162000000Y-96000000D01*
X153500000Y-100000000D02*
X160500000Y-100000000D01*
X152000000Y-89500000D02*
X152000000Y-98500000D01*
X149275000Y-86775000D02*
X152000000Y-89500000D01*
D20*
%TO.N,Net-(D5-A)*%
X174620000Y-89380000D02*
X175500000Y-88500000D01*
X175500000Y-83000000D02*
X175500000Y-88500000D01*
X174620000Y-92000000D02*
X174620000Y-89380000D01*
D19*
%TO.N,/+VE*%
X164500000Y-90500000D02*
X164500000Y-82000000D01*
X166000000Y-92000000D02*
X164500000Y-90500000D01*
X164500000Y-82000000D02*
X163000000Y-80500000D01*
X170250000Y-98750000D02*
X172500000Y-98750000D01*
X146999000Y-81501000D02*
X144999000Y-81501000D01*
X162000000Y-80500000D02*
X155500000Y-80500000D01*
X148000000Y-80500000D02*
X146999000Y-81501000D01*
X167000000Y-80190000D02*
X162310000Y-80190000D01*
X167000000Y-95500000D02*
X170250000Y-98750000D01*
X167000000Y-92000000D02*
X166000000Y-92000000D01*
X162310000Y-80190000D02*
X162000000Y-80500000D01*
X163000000Y-80500000D02*
X162000000Y-80500000D01*
X167000000Y-92000000D02*
X167000000Y-95500000D01*
X144001000Y-94443500D02*
X145782500Y-96225000D01*
X145782500Y-96225000D02*
X146782500Y-96225000D01*
X144999000Y-81501000D02*
X144001000Y-82499000D01*
X155500000Y-80500000D02*
X148000000Y-80500000D01*
X144001000Y-82499000D02*
X144001000Y-94443500D01*
%TD*%
%TA.AperFunction,Conductor*%
%TO.N,GND*%
G36*
X178441651Y-77520502D02*
G01*
X178488144Y-77574158D01*
X178498248Y-77644432D01*
X178473492Y-77703204D01*
X178333078Y-77886194D01*
X178333073Y-77886200D01*
X178201963Y-78113290D01*
X178201958Y-78113301D01*
X178101602Y-78355581D01*
X178033728Y-78608891D01*
X177999500Y-78868878D01*
X177999500Y-79131121D01*
X178033728Y-79391108D01*
X178033729Y-79391114D01*
X178033730Y-79391116D01*
X178101602Y-79644419D01*
X178201957Y-79886697D01*
X178201958Y-79886698D01*
X178201963Y-79886709D01*
X178333073Y-80113799D01*
X178333077Y-80113805D01*
X178492710Y-80321842D01*
X178492729Y-80321863D01*
X178678136Y-80507270D01*
X178678157Y-80507289D01*
X178886194Y-80666922D01*
X178886200Y-80666926D01*
X179113290Y-80798036D01*
X179113294Y-80798037D01*
X179113303Y-80798043D01*
X179355581Y-80898398D01*
X179608884Y-80966270D01*
X179608890Y-80966270D01*
X179608891Y-80966271D01*
X179633900Y-80969563D01*
X179868880Y-81000500D01*
X179868887Y-81000500D01*
X180131113Y-81000500D01*
X180131120Y-81000500D01*
X180391116Y-80966270D01*
X180644419Y-80898398D01*
X180886697Y-80798043D01*
X181113803Y-80666924D01*
X181296798Y-80526505D01*
X181363016Y-80500906D01*
X181432564Y-80515170D01*
X181483361Y-80564771D01*
X181499500Y-80626469D01*
X181499500Y-104873530D01*
X181479498Y-104941651D01*
X181425842Y-104988144D01*
X181355568Y-104998248D01*
X181296796Y-104973492D01*
X181166523Y-104873530D01*
X181113803Y-104833076D01*
X181113801Y-104833075D01*
X181113799Y-104833073D01*
X180886709Y-104701963D01*
X180886701Y-104701959D01*
X180886697Y-104701957D01*
X180644419Y-104601602D01*
X180391116Y-104533730D01*
X180391114Y-104533729D01*
X180391108Y-104533728D01*
X180131121Y-104499500D01*
X180131120Y-104499500D01*
X179868880Y-104499500D01*
X179868878Y-104499500D01*
X179608891Y-104533728D01*
X179355581Y-104601602D01*
X179113301Y-104701958D01*
X179113290Y-104701963D01*
X178886200Y-104833073D01*
X178886194Y-104833077D01*
X178678157Y-104992710D01*
X178678136Y-104992729D01*
X178492729Y-105178136D01*
X178492710Y-105178157D01*
X178333077Y-105386194D01*
X178333073Y-105386200D01*
X178201963Y-105613290D01*
X178201958Y-105613301D01*
X178201957Y-105613303D01*
X178190796Y-105640248D01*
X178101602Y-105855581D01*
X178033728Y-106108891D01*
X177999500Y-106368878D01*
X177999500Y-106631121D01*
X178033728Y-106891108D01*
X178033729Y-106891114D01*
X178033730Y-106891116D01*
X178101602Y-107144419D01*
X178201957Y-107386697D01*
X178201958Y-107386698D01*
X178201963Y-107386709D01*
X178333073Y-107613799D01*
X178333078Y-107613805D01*
X178473492Y-107796796D01*
X178499093Y-107863016D01*
X178484828Y-107932565D01*
X178435227Y-107983361D01*
X178373530Y-107999500D01*
X145626470Y-107999500D01*
X145558349Y-107979498D01*
X145511856Y-107925842D01*
X145501752Y-107855568D01*
X145526508Y-107796796D01*
X145561330Y-107751414D01*
X145666924Y-107613803D01*
X145798043Y-107386697D01*
X145898398Y-107144419D01*
X145966270Y-106891116D01*
X146000500Y-106631120D01*
X146000500Y-106368880D01*
X145966270Y-106108884D01*
X145951414Y-106053441D01*
X154146000Y-106053441D01*
X154146000Y-106266558D01*
X154179341Y-106477067D01*
X154245197Y-106679751D01*
X154245200Y-106679757D01*
X154341955Y-106869650D01*
X154409716Y-106962914D01*
X154992187Y-106380442D01*
X155059890Y-106497708D01*
X155162292Y-106600110D01*
X155279555Y-106667811D01*
X154697084Y-107250282D01*
X154790349Y-107318044D01*
X154980242Y-107414799D01*
X154980248Y-107414802D01*
X155182932Y-107480658D01*
X155393441Y-107514000D01*
X155606559Y-107514000D01*
X155817067Y-107480658D01*
X156019751Y-107414802D01*
X156019757Y-107414799D01*
X156209652Y-107318043D01*
X156209654Y-107318042D01*
X156302914Y-107250283D01*
X156302915Y-107250282D01*
X155720444Y-106667811D01*
X155837708Y-106600110D01*
X155940110Y-106497708D01*
X156007811Y-106380444D01*
X156590282Y-106962915D01*
X156590283Y-106962914D01*
X156658042Y-106869654D01*
X156658043Y-106869652D01*
X156754799Y-106679757D01*
X156754802Y-106679751D01*
X156820658Y-106477067D01*
X156854000Y-106266558D01*
X156854000Y-106053441D01*
X160646000Y-106053441D01*
X160646000Y-106266558D01*
X160679341Y-106477067D01*
X160745197Y-106679751D01*
X160745200Y-106679757D01*
X160841955Y-106869650D01*
X160909716Y-106962914D01*
X161492187Y-106380442D01*
X161559890Y-106497708D01*
X161662292Y-106600110D01*
X161779555Y-106667811D01*
X161197084Y-107250282D01*
X161290349Y-107318044D01*
X161480242Y-107414799D01*
X161480248Y-107414802D01*
X161682932Y-107480658D01*
X161893441Y-107514000D01*
X162106559Y-107514000D01*
X162317067Y-107480658D01*
X162519751Y-107414802D01*
X162519757Y-107414799D01*
X162709652Y-107318043D01*
X162709654Y-107318042D01*
X162802914Y-107250283D01*
X162802915Y-107250282D01*
X162220444Y-106667811D01*
X162337708Y-106600110D01*
X162440110Y-106497708D01*
X162507811Y-106380444D01*
X163090282Y-106962915D01*
X163090283Y-106962914D01*
X163158042Y-106869654D01*
X163158043Y-106869652D01*
X163254799Y-106679757D01*
X163254802Y-106679751D01*
X163320658Y-106477067D01*
X163354000Y-106266558D01*
X163354000Y-106053441D01*
X163320658Y-105842932D01*
X163254802Y-105640248D01*
X163254799Y-105640242D01*
X163158044Y-105450349D01*
X163090282Y-105357084D01*
X162507811Y-105939555D01*
X162440110Y-105822292D01*
X162337708Y-105719890D01*
X162220443Y-105652188D01*
X162802914Y-105069716D01*
X162709650Y-105001955D01*
X162519757Y-104905200D01*
X162519751Y-104905197D01*
X162317067Y-104839341D01*
X162106559Y-104806000D01*
X161893441Y-104806000D01*
X161682932Y-104839341D01*
X161480248Y-104905197D01*
X161480242Y-104905200D01*
X161290345Y-105001957D01*
X161197084Y-105069715D01*
X161197084Y-105069717D01*
X161779555Y-105652188D01*
X161662292Y-105719890D01*
X161559890Y-105822292D01*
X161492188Y-105939555D01*
X160909717Y-105357084D01*
X160909715Y-105357084D01*
X160841957Y-105450345D01*
X160745200Y-105640242D01*
X160745197Y-105640248D01*
X160679341Y-105842932D01*
X160646000Y-106053441D01*
X156854000Y-106053441D01*
X156820658Y-105842932D01*
X156754802Y-105640248D01*
X156754799Y-105640242D01*
X156658044Y-105450349D01*
X156590282Y-105357084D01*
X156007811Y-105939555D01*
X155940110Y-105822292D01*
X155837708Y-105719890D01*
X155720443Y-105652188D01*
X156302914Y-105069716D01*
X156209650Y-105001955D01*
X156019757Y-104905200D01*
X156019751Y-104905197D01*
X155817067Y-104839341D01*
X155606559Y-104806000D01*
X155393441Y-104806000D01*
X155182932Y-104839341D01*
X154980248Y-104905197D01*
X154980242Y-104905200D01*
X154790345Y-105001957D01*
X154697084Y-105069715D01*
X154697084Y-105069717D01*
X155279555Y-105652188D01*
X155162292Y-105719890D01*
X155059890Y-105822292D01*
X154992188Y-105939555D01*
X154409717Y-105357084D01*
X154409715Y-105357084D01*
X154341957Y-105450345D01*
X154245200Y-105640242D01*
X154245197Y-105640248D01*
X154179341Y-105842932D01*
X154146000Y-106053441D01*
X145951414Y-106053441D01*
X145898398Y-105855581D01*
X145798043Y-105613303D01*
X145798037Y-105613294D01*
X145798036Y-105613290D01*
X145666926Y-105386200D01*
X145666921Y-105386193D01*
X145519785Y-105194442D01*
X145519784Y-105194441D01*
X145507291Y-105178160D01*
X145507286Y-105178154D01*
X145507282Y-105178149D01*
X145507277Y-105178144D01*
X145507270Y-105178136D01*
X145321863Y-104992729D01*
X145321842Y-104992710D01*
X145113805Y-104833077D01*
X145113799Y-104833073D01*
X144886709Y-104701963D01*
X144886701Y-104701959D01*
X144886697Y-104701957D01*
X144644419Y-104601602D01*
X144391116Y-104533730D01*
X144391114Y-104533729D01*
X144391108Y-104533728D01*
X144131121Y-104499500D01*
X144131120Y-104499500D01*
X143868880Y-104499500D01*
X143868878Y-104499500D01*
X143608891Y-104533728D01*
X143355581Y-104601602D01*
X143113301Y-104701958D01*
X143113290Y-104701963D01*
X142886200Y-104833073D01*
X142886194Y-104833078D01*
X142703204Y-104973492D01*
X142636984Y-104999093D01*
X142567435Y-104984828D01*
X142516639Y-104935227D01*
X142500500Y-104873530D01*
X142500500Y-102146184D01*
X171446000Y-102146184D01*
X171446000Y-102353815D01*
X171486504Y-102557439D01*
X171486505Y-102557442D01*
X171565957Y-102749256D01*
X171625004Y-102837626D01*
X172112673Y-102349957D01*
X172127259Y-102404394D01*
X172179920Y-102495606D01*
X172254394Y-102570080D01*
X172345606Y-102622741D01*
X172400041Y-102637326D01*
X171912372Y-103124995D01*
X172000742Y-103184041D01*
X172192557Y-103263494D01*
X172192560Y-103263495D01*
X172396184Y-103303999D01*
X172396191Y-103304000D01*
X172603809Y-103304000D01*
X172603815Y-103303999D01*
X172807439Y-103263495D01*
X172807442Y-103263494D01*
X172999257Y-103184041D01*
X173087626Y-103124994D01*
X173087627Y-103124994D01*
X172599959Y-102637326D01*
X172654394Y-102622741D01*
X172745606Y-102570080D01*
X172820080Y-102495606D01*
X172872741Y-102404394D01*
X172887326Y-102349959D01*
X173374994Y-102837627D01*
X173374994Y-102837626D01*
X173434041Y-102749257D01*
X173513494Y-102557442D01*
X173513495Y-102557439D01*
X173553999Y-102353815D01*
X173554000Y-102353808D01*
X173554000Y-102146191D01*
X173553999Y-102146184D01*
X173513495Y-101942560D01*
X173513494Y-101942557D01*
X173434041Y-101750742D01*
X173374995Y-101662372D01*
X172887326Y-102150040D01*
X172872741Y-102095606D01*
X172820080Y-102004394D01*
X172745606Y-101929920D01*
X172654394Y-101877259D01*
X172599958Y-101862673D01*
X173087626Y-101375004D01*
X172999256Y-101315957D01*
X172807442Y-101236505D01*
X172807439Y-101236504D01*
X172603815Y-101196000D01*
X172396184Y-101196000D01*
X172192560Y-101236504D01*
X172192557Y-101236505D01*
X172000742Y-101315958D01*
X171912371Y-101375004D01*
X172400040Y-101862673D01*
X172345606Y-101877259D01*
X172254394Y-101929920D01*
X172179920Y-102004394D01*
X172127259Y-102095606D01*
X172112673Y-102150040D01*
X171625004Y-101662371D01*
X171565958Y-101750742D01*
X171486505Y-101942557D01*
X171486504Y-101942560D01*
X171446000Y-102146184D01*
X142500500Y-102146184D01*
X142500500Y-80626469D01*
X142520502Y-80558348D01*
X142574158Y-80511855D01*
X142644432Y-80501751D01*
X142703201Y-80526505D01*
X142886197Y-80666924D01*
X142972418Y-80716703D01*
X143113290Y-80798036D01*
X143113294Y-80798037D01*
X143113303Y-80798043D01*
X143355581Y-80898398D01*
X143608884Y-80966270D01*
X143608890Y-80966270D01*
X143608891Y-80966271D01*
X143633900Y-80969563D01*
X143868880Y-81000500D01*
X143868887Y-81000500D01*
X144131113Y-81000500D01*
X144131120Y-81000500D01*
X144192892Y-80992367D01*
X144263039Y-81003306D01*
X144316138Y-81050434D01*
X144335328Y-81118788D01*
X144314517Y-81186666D01*
X144298433Y-81206384D01*
X143552420Y-81952397D01*
X143552417Y-81952400D01*
X143527658Y-81977159D01*
X143454402Y-82050414D01*
X143441776Y-82069311D01*
X143377388Y-82165674D01*
X143324344Y-82293734D01*
X143324343Y-82293737D01*
X143324343Y-82293738D01*
X143298923Y-82421531D01*
X143297299Y-82429693D01*
X143297299Y-82574520D01*
X143297300Y-82574541D01*
X143297300Y-94368974D01*
X143297299Y-94369000D01*
X143297299Y-94374192D01*
X143297299Y-94512808D01*
X143319147Y-94622642D01*
X143324343Y-94648762D01*
X143324344Y-94648765D01*
X143377389Y-94776827D01*
X143454401Y-94892084D01*
X143454406Y-94892090D01*
X143556806Y-94994490D01*
X143556828Y-94994510D01*
X145232724Y-96670406D01*
X145232753Y-96670437D01*
X145333909Y-96771593D01*
X145333915Y-96771598D01*
X145333917Y-96771600D01*
X145449173Y-96848611D01*
X145492267Y-96866461D01*
X145501018Y-96870086D01*
X145556299Y-96914635D01*
X145578720Y-96981998D01*
X145578800Y-96986492D01*
X145578800Y-97029643D01*
X145578801Y-97029659D01*
X145581674Y-97060302D01*
X145581675Y-97060305D01*
X145626843Y-97189389D01*
X145626846Y-97189396D01*
X145708061Y-97299438D01*
X145818103Y-97380653D01*
X145818110Y-97380656D01*
X145947193Y-97425824D01*
X145947199Y-97425826D01*
X145977847Y-97428700D01*
X146118138Y-97428699D01*
X146186256Y-97448701D01*
X146232749Y-97502356D01*
X146242854Y-97572630D01*
X146213361Y-97637211D01*
X146175341Y-97666965D01*
X146125263Y-97692482D01*
X146125261Y-97692483D01*
X146051176Y-97746308D01*
X146051176Y-97746309D01*
X146525453Y-98220586D01*
X146414092Y-98284881D01*
X146302381Y-98396592D01*
X146238086Y-98507953D01*
X145763809Y-98033676D01*
X145763808Y-98033676D01*
X145709983Y-98107761D01*
X145709982Y-98107762D01*
X145620370Y-98283634D01*
X145559378Y-98471349D01*
X145528500Y-98666310D01*
X145528500Y-98863689D01*
X145559378Y-99058650D01*
X145620370Y-99246365D01*
X145709985Y-99422242D01*
X145763807Y-99496322D01*
X145763808Y-99496322D01*
X146238085Y-99022045D01*
X146302381Y-99133408D01*
X146414092Y-99245119D01*
X146525453Y-99309414D01*
X146051176Y-99783690D01*
X146051176Y-99783691D01*
X146125258Y-99837515D01*
X146301134Y-99927129D01*
X146488849Y-99988121D01*
X146683810Y-100019000D01*
X146881190Y-100019000D01*
X147076150Y-99988121D01*
X147263865Y-99927129D01*
X147439740Y-99837515D01*
X147439751Y-99837509D01*
X147513822Y-99783692D01*
X147513822Y-99783689D01*
X147039546Y-99309413D01*
X147150908Y-99245119D01*
X147262619Y-99133408D01*
X147326913Y-99022046D01*
X147801189Y-99496322D01*
X147801192Y-99496322D01*
X147855009Y-99422251D01*
X147855015Y-99422240D01*
X147944629Y-99246365D01*
X148005621Y-99058650D01*
X148036500Y-98863689D01*
X148036500Y-98666310D01*
X148005621Y-98471349D01*
X147944629Y-98283634D01*
X147855015Y-98107758D01*
X147801190Y-98033676D01*
X147326913Y-98507952D01*
X147262619Y-98396592D01*
X147150908Y-98284881D01*
X147039545Y-98220585D01*
X147513822Y-97746308D01*
X147513822Y-97746307D01*
X147439742Y-97692485D01*
X147389658Y-97666966D01*
X147338043Y-97618218D01*
X147320977Y-97549303D01*
X147343878Y-97482101D01*
X147399475Y-97437949D01*
X147446860Y-97428699D01*
X147587152Y-97428699D01*
X147617801Y-97425826D01*
X147746895Y-97380654D01*
X147856938Y-97299438D01*
X147938154Y-97189395D01*
X147983326Y-97060301D01*
X147986200Y-97029653D01*
X147986199Y-95420348D01*
X147983326Y-95389699D01*
X147938154Y-95260605D01*
X147938153Y-95260603D01*
X147856938Y-95150561D01*
X147746896Y-95069346D01*
X147746889Y-95069343D01*
X147617806Y-95024175D01*
X147617801Y-95024174D01*
X147587153Y-95021300D01*
X147587152Y-95021300D01*
X145977855Y-95021300D01*
X145977840Y-95021301D01*
X145947197Y-95024174D01*
X145947194Y-95024175D01*
X145818110Y-95069343D01*
X145818105Y-95069345D01*
X145792529Y-95088221D01*
X145725841Y-95112576D01*
X145656572Y-95097012D01*
X145628616Y-95075934D01*
X144741605Y-94188923D01*
X144707579Y-94126611D01*
X144704700Y-94099828D01*
X144704700Y-84140267D01*
X145013800Y-84140267D01*
X145013800Y-84329733D01*
X145043439Y-84516867D01*
X145043440Y-84516870D01*
X145101987Y-84697058D01*
X145188005Y-84865878D01*
X145299369Y-85019159D01*
X145433340Y-85153130D01*
X145586621Y-85264494D01*
X145586624Y-85264496D01*
X145721138Y-85333034D01*
X145772753Y-85381781D01*
X145789819Y-85450696D01*
X145766919Y-85517897D01*
X145711321Y-85562050D01*
X145663935Y-85571300D01*
X145412855Y-85571300D01*
X145412840Y-85571301D01*
X145382197Y-85574174D01*
X145382194Y-85574175D01*
X145253110Y-85619343D01*
X145253103Y-85619346D01*
X145143061Y-85700561D01*
X145061846Y-85810603D01*
X145061843Y-85810610D01*
X145016675Y-85939693D01*
X145016674Y-85939698D01*
X145013800Y-85970344D01*
X145013800Y-87579644D01*
X145013801Y-87579659D01*
X145016674Y-87610302D01*
X145016675Y-87610305D01*
X145061843Y-87739389D01*
X145061846Y-87739396D01*
X145143061Y-87849438D01*
X145253103Y-87930653D01*
X145253110Y-87930656D01*
X145318109Y-87953400D01*
X145382199Y-87975826D01*
X145412847Y-87978700D01*
X147022152Y-87978699D01*
X147052801Y-87975826D01*
X147181895Y-87930654D01*
X147291938Y-87849438D01*
X147373154Y-87739395D01*
X147418326Y-87610301D01*
X147419954Y-87592936D01*
X147446228Y-87526981D01*
X147503990Y-87485701D01*
X147545404Y-87478700D01*
X148931328Y-87478700D01*
X148999449Y-87498702D01*
X149020423Y-87515605D01*
X151259395Y-89754577D01*
X151293421Y-89816889D01*
X151296300Y-89843672D01*
X151296300Y-98425474D01*
X151296299Y-98425500D01*
X151296299Y-98430692D01*
X151296299Y-98569308D01*
X151311070Y-98643564D01*
X151318456Y-98680693D01*
X151318456Y-98680694D01*
X151323341Y-98705257D01*
X151323343Y-98705263D01*
X151376389Y-98833327D01*
X151453401Y-98948584D01*
X151453406Y-98948590D01*
X151555806Y-99050990D01*
X151555828Y-99051010D01*
X152950224Y-100445406D01*
X152950253Y-100445437D01*
X153051409Y-100546593D01*
X153051415Y-100546598D01*
X153051417Y-100546600D01*
X153166673Y-100623611D01*
X153294738Y-100676657D01*
X153430691Y-100703700D01*
X153430692Y-100703700D01*
X160424459Y-100703700D01*
X160424479Y-100703701D01*
X160430692Y-100703701D01*
X160569303Y-100703701D01*
X160569308Y-100703701D01*
X160705262Y-100676657D01*
X160833327Y-100623611D01*
X160948583Y-100546600D01*
X161046600Y-100448583D01*
X161053773Y-100441410D01*
X161053784Y-100441396D01*
X162441396Y-99053784D01*
X162441410Y-99053773D01*
X162546593Y-98948590D01*
X162546600Y-98948583D01*
X162623611Y-98833327D01*
X162676657Y-98705262D01*
X162676658Y-98705257D01*
X162681544Y-98680694D01*
X162681544Y-98680693D01*
X162685219Y-98662212D01*
X162703700Y-98569309D01*
X162703700Y-98430692D01*
X162703700Y-97429700D01*
X162723702Y-97361579D01*
X162777358Y-97315086D01*
X162829700Y-97303700D01*
X162904651Y-97303700D01*
X162904654Y-97303700D01*
X162935302Y-97300826D01*
X163034590Y-97266083D01*
X163064393Y-97255655D01*
X163064393Y-97255654D01*
X163064395Y-97255654D01*
X163174439Y-97174439D01*
X163255654Y-97064395D01*
X163300826Y-96935302D01*
X163303700Y-96904654D01*
X163303700Y-95095346D01*
X163300826Y-95064698D01*
X163276259Y-94994490D01*
X163255655Y-94935606D01*
X163223539Y-94892090D01*
X163174439Y-94825561D01*
X163108406Y-94776827D01*
X163064393Y-94744344D01*
X162935302Y-94699174D01*
X162904656Y-94696300D01*
X162904654Y-94696300D01*
X162829700Y-94696300D01*
X162761579Y-94676298D01*
X162715086Y-94622642D01*
X162703700Y-94570300D01*
X162703700Y-91824392D01*
X162723702Y-91756271D01*
X162755640Y-91722456D01*
X162849300Y-91654408D01*
X162849303Y-91654406D01*
X162994406Y-91509303D01*
X163115024Y-91343288D01*
X163208186Y-91160447D01*
X163271598Y-90965284D01*
X163303700Y-90762603D01*
X163303700Y-90557397D01*
X163271598Y-90354716D01*
X163208186Y-90159553D01*
X163115024Y-89976712D01*
X162994406Y-89810697D01*
X162994404Y-89810694D01*
X162849305Y-89665595D01*
X162683291Y-89544978D01*
X162683290Y-89544977D01*
X162683288Y-89544976D01*
X162500447Y-89451814D01*
X162500444Y-89451813D01*
X162500442Y-89451812D01*
X162305288Y-89388403D01*
X162305286Y-89388402D01*
X162305284Y-89388402D01*
X162102603Y-89356300D01*
X161897397Y-89356300D01*
X161694716Y-89388402D01*
X161694714Y-89388402D01*
X161694711Y-89388403D01*
X161499557Y-89451812D01*
X161499551Y-89451815D01*
X161316708Y-89544978D01*
X161150694Y-89665595D01*
X161005595Y-89810694D01*
X160884978Y-89976708D01*
X160791815Y-90159551D01*
X160791812Y-90159557D01*
X160728403Y-90354711D01*
X160728402Y-90354714D01*
X160728402Y-90354716D01*
X160696300Y-90557397D01*
X160696300Y-90762603D01*
X160707502Y-90833327D01*
X160728403Y-90965288D01*
X160788072Y-91148932D01*
X160791814Y-91160447D01*
X160884976Y-91343288D01*
X160884978Y-91343291D01*
X161005595Y-91509305D01*
X161150691Y-91654401D01*
X161150699Y-91654408D01*
X161244360Y-91722456D01*
X161287715Y-91778678D01*
X161296300Y-91824392D01*
X161296300Y-94570300D01*
X161276298Y-94638421D01*
X161222642Y-94684914D01*
X161170300Y-94696300D01*
X161095343Y-94696300D01*
X161064697Y-94699174D01*
X160935606Y-94744344D01*
X160825561Y-94825561D01*
X160744344Y-94935606D01*
X160699174Y-95064697D01*
X160696300Y-95095343D01*
X160696300Y-96904656D01*
X160699174Y-96935302D01*
X160744344Y-97064393D01*
X160778064Y-97110082D01*
X160825561Y-97174439D01*
X160912761Y-97238794D01*
X160935606Y-97255655D01*
X161000151Y-97278240D01*
X161064698Y-97300826D01*
X161095346Y-97303700D01*
X161170300Y-97303700D01*
X161238421Y-97323702D01*
X161284914Y-97377358D01*
X161296300Y-97429700D01*
X161296300Y-98156328D01*
X161276298Y-98224449D01*
X161259395Y-98245423D01*
X160245423Y-99259395D01*
X160183111Y-99293421D01*
X160156328Y-99296300D01*
X153843672Y-99296300D01*
X153775551Y-99276298D01*
X153754577Y-99259395D01*
X152740605Y-98245423D01*
X152706579Y-98183111D01*
X152703700Y-98156328D01*
X152703700Y-89575542D01*
X152703701Y-89575521D01*
X152703701Y-89430696D01*
X152703701Y-89430692D01*
X152676657Y-89294738D01*
X152623611Y-89166673D01*
X152594838Y-89123611D01*
X152546600Y-89051417D01*
X152448583Y-88953400D01*
X152448579Y-88953397D01*
X149826010Y-86330828D01*
X149825990Y-86330806D01*
X149723590Y-86228406D01*
X149723584Y-86228401D01*
X149608327Y-86151389D01*
X149480265Y-86098344D01*
X149480262Y-86098343D01*
X149344308Y-86071299D01*
X149205692Y-86071299D01*
X149199479Y-86071299D01*
X149199459Y-86071300D01*
X147545403Y-86071300D01*
X147477282Y-86051298D01*
X147430789Y-85997642D01*
X147419953Y-85957060D01*
X147418326Y-85939699D01*
X147373154Y-85810605D01*
X147373153Y-85810603D01*
X147291938Y-85700561D01*
X147181896Y-85619346D01*
X147181889Y-85619343D01*
X147052806Y-85574175D01*
X147052801Y-85574174D01*
X147022155Y-85571300D01*
X146771066Y-85571300D01*
X146702945Y-85551298D01*
X146656452Y-85497642D01*
X146646348Y-85427368D01*
X146675842Y-85362788D01*
X146713860Y-85333035D01*
X146848376Y-85264496D01*
X147001658Y-85153131D01*
X147135631Y-85019158D01*
X147156351Y-84990638D01*
X147212573Y-84947285D01*
X147258287Y-84938700D01*
X150891328Y-84938700D01*
X150959449Y-84958702D01*
X150980423Y-84975605D01*
X154759395Y-88754577D01*
X154793421Y-88816889D01*
X154796300Y-88843672D01*
X154796300Y-89495605D01*
X154776298Y-89563726D01*
X154744363Y-89597540D01*
X154650691Y-89665598D01*
X154505595Y-89810694D01*
X154384978Y-89976708D01*
X154291815Y-90159551D01*
X154291812Y-90159557D01*
X154228403Y-90354711D01*
X154228402Y-90354714D01*
X154228402Y-90354716D01*
X154196300Y-90557397D01*
X154196300Y-90762603D01*
X154207502Y-90833327D01*
X154228403Y-90965288D01*
X154288072Y-91148932D01*
X154291814Y-91160447D01*
X154384976Y-91343288D01*
X154384978Y-91343291D01*
X154505595Y-91509305D01*
X154650691Y-91654401D01*
X154650699Y-91654408D01*
X154744360Y-91722456D01*
X154787715Y-91778678D01*
X154796300Y-91824392D01*
X154796300Y-94570300D01*
X154776298Y-94638421D01*
X154722642Y-94684914D01*
X154670300Y-94696300D01*
X154595343Y-94696300D01*
X154564697Y-94699174D01*
X154435606Y-94744344D01*
X154325561Y-94825561D01*
X154244344Y-94935606D01*
X154199174Y-95064697D01*
X154196300Y-95095343D01*
X154196300Y-96904656D01*
X154199174Y-96935302D01*
X154244344Y-97064393D01*
X154278064Y-97110082D01*
X154325561Y-97174439D01*
X154412761Y-97238794D01*
X154435606Y-97255655D01*
X154500151Y-97278240D01*
X154564698Y-97300826D01*
X154595346Y-97303700D01*
X154595349Y-97303700D01*
X156404651Y-97303700D01*
X156404654Y-97303700D01*
X156435302Y-97300826D01*
X156534590Y-97266083D01*
X156564393Y-97255655D01*
X156564393Y-97255654D01*
X156564395Y-97255654D01*
X156674439Y-97174439D01*
X156755654Y-97064395D01*
X156800826Y-96935302D01*
X156803700Y-96904654D01*
X156803700Y-95095346D01*
X156800826Y-95064698D01*
X156776259Y-94994490D01*
X156755655Y-94935606D01*
X156723539Y-94892090D01*
X156674439Y-94825561D01*
X156608406Y-94776827D01*
X156564393Y-94744344D01*
X156435302Y-94699174D01*
X156404656Y-94696300D01*
X156404654Y-94696300D01*
X156329700Y-94696300D01*
X156261579Y-94676298D01*
X156215086Y-94622642D01*
X156203700Y-94570300D01*
X156203700Y-91824392D01*
X156223702Y-91756271D01*
X156255640Y-91722456D01*
X156349300Y-91654408D01*
X156349303Y-91654406D01*
X156494406Y-91509303D01*
X156615024Y-91343288D01*
X156708186Y-91160447D01*
X156771598Y-90965284D01*
X156803700Y-90762603D01*
X156803700Y-90557397D01*
X156771598Y-90354716D01*
X156708186Y-90159553D01*
X156615024Y-89976712D01*
X156494406Y-89810697D01*
X156494404Y-89810694D01*
X156349308Y-89665598D01*
X156349304Y-89665595D01*
X156349303Y-89665594D01*
X156286713Y-89620119D01*
X156255637Y-89597540D01*
X156212284Y-89541317D01*
X156203700Y-89495605D01*
X156203700Y-88575542D01*
X156203701Y-88575521D01*
X156203701Y-88430696D01*
X156203701Y-88430692D01*
X156176657Y-88294738D01*
X156123611Y-88166673D01*
X156046600Y-88051417D01*
X156046598Y-88051415D01*
X156046593Y-88051409D01*
X155945437Y-87950253D01*
X155945406Y-87950224D01*
X151786010Y-83790828D01*
X151785990Y-83790806D01*
X151683590Y-83688406D01*
X151683584Y-83688401D01*
X151568327Y-83611389D01*
X151440265Y-83558344D01*
X151440262Y-83558343D01*
X151304308Y-83531299D01*
X151165692Y-83531299D01*
X151159479Y-83531299D01*
X151159459Y-83531300D01*
X147258287Y-83531300D01*
X147190166Y-83511298D01*
X147156351Y-83479361D01*
X147135631Y-83450842D01*
X147135628Y-83450839D01*
X147135626Y-83450836D01*
X147001659Y-83316869D01*
X146848378Y-83205505D01*
X146679558Y-83119487D01*
X146499370Y-83060940D01*
X146499367Y-83060939D01*
X146312233Y-83031300D01*
X146122767Y-83031300D01*
X145935633Y-83060939D01*
X145935630Y-83060939D01*
X145935629Y-83060940D01*
X145755441Y-83119487D01*
X145586621Y-83205505D01*
X145433340Y-83316869D01*
X145299369Y-83450840D01*
X145188005Y-83604121D01*
X145101987Y-83772941D01*
X145043440Y-83953129D01*
X145043439Y-83953133D01*
X145013800Y-84140267D01*
X144704700Y-84140267D01*
X144704700Y-82842672D01*
X144724702Y-82774551D01*
X144741605Y-82753577D01*
X145253577Y-82241605D01*
X145315889Y-82207579D01*
X145342672Y-82204700D01*
X146923459Y-82204700D01*
X146923479Y-82204701D01*
X146929692Y-82204701D01*
X147068303Y-82204701D01*
X147068308Y-82204701D01*
X147204262Y-82177657D01*
X147332327Y-82124611D01*
X147447583Y-82047600D01*
X147545600Y-81949583D01*
X147552772Y-81942411D01*
X147552782Y-81942398D01*
X148254578Y-81240604D01*
X148316890Y-81206579D01*
X148343673Y-81203700D01*
X154070300Y-81203700D01*
X154138421Y-81223702D01*
X154184914Y-81277358D01*
X154196300Y-81329700D01*
X154196300Y-81404656D01*
X154199174Y-81435302D01*
X154244344Y-81564393D01*
X154278064Y-81610082D01*
X154325561Y-81674439D01*
X154398113Y-81727984D01*
X154435606Y-81755655D01*
X154500151Y-81778240D01*
X154564698Y-81800826D01*
X154595346Y-81803700D01*
X154595349Y-81803700D01*
X156404651Y-81803700D01*
X156404654Y-81803700D01*
X156435302Y-81800826D01*
X156534590Y-81766083D01*
X156564393Y-81755655D01*
X156564393Y-81755654D01*
X156564395Y-81755654D01*
X156674439Y-81674439D01*
X156755654Y-81564395D01*
X156800826Y-81435302D01*
X156803700Y-81404654D01*
X156803700Y-81329700D01*
X156823702Y-81261579D01*
X156877358Y-81215086D01*
X156929700Y-81203700D01*
X160570300Y-81203700D01*
X160638421Y-81223702D01*
X160684914Y-81277358D01*
X160696300Y-81329700D01*
X160696300Y-81404656D01*
X160699174Y-81435302D01*
X160744344Y-81564393D01*
X160778064Y-81610082D01*
X160825561Y-81674439D01*
X160898113Y-81727984D01*
X160935606Y-81755655D01*
X161000151Y-81778240D01*
X161064698Y-81800826D01*
X161095346Y-81803700D01*
X161095349Y-81803700D01*
X162904651Y-81803700D01*
X162904654Y-81803700D01*
X162935302Y-81800826D01*
X163064395Y-81755654D01*
X163089967Y-81736780D01*
X163156651Y-81712423D01*
X163225921Y-81727984D01*
X163253883Y-81749065D01*
X163759395Y-82254577D01*
X163793421Y-82316889D01*
X163796300Y-82343672D01*
X163796300Y-90425474D01*
X163796299Y-90425500D01*
X163796299Y-90569306D01*
X163823343Y-90705262D01*
X163823344Y-90705265D01*
X163876389Y-90833327D01*
X163953401Y-90948584D01*
X163953406Y-90948590D01*
X164055806Y-91050990D01*
X164055828Y-91051010D01*
X165450224Y-92445406D01*
X165450253Y-92445437D01*
X165551412Y-92546596D01*
X165551416Y-92546599D01*
X165551417Y-92546600D01*
X165632085Y-92600500D01*
X165666673Y-92623611D01*
X165794738Y-92676657D01*
X165930691Y-92703700D01*
X165930692Y-92703700D01*
X166170300Y-92703700D01*
X166238421Y-92723702D01*
X166284914Y-92777358D01*
X166296300Y-92829700D01*
X166296300Y-95425474D01*
X166296299Y-95425500D01*
X166296299Y-95569306D01*
X166323343Y-95705262D01*
X166323344Y-95705265D01*
X166376389Y-95833327D01*
X166453401Y-95948584D01*
X166453406Y-95948590D01*
X166555806Y-96050990D01*
X166555828Y-96051010D01*
X169700224Y-99195406D01*
X169700253Y-99195437D01*
X169801409Y-99296593D01*
X169801415Y-99296598D01*
X169801417Y-99296600D01*
X169916673Y-99373611D01*
X170044738Y-99426657D01*
X170180691Y-99453701D01*
X170180696Y-99453701D01*
X170325521Y-99453701D01*
X170325541Y-99453700D01*
X171732065Y-99453700D01*
X171800186Y-99473702D01*
X171821161Y-99490606D01*
X171860173Y-99529619D01*
X171860179Y-99529624D01*
X172024570Y-99639467D01*
X172207232Y-99715128D01*
X172401144Y-99753700D01*
X172598856Y-99753700D01*
X172792768Y-99715128D01*
X172975430Y-99639467D01*
X173139821Y-99529624D01*
X173279624Y-99389821D01*
X173389467Y-99225430D01*
X173465128Y-99042768D01*
X173503700Y-98848856D01*
X173503700Y-98651144D01*
X173465128Y-98457232D01*
X173389467Y-98274570D01*
X173279624Y-98110179D01*
X173279619Y-98110173D01*
X173139826Y-97970380D01*
X173139820Y-97970375D01*
X173085272Y-97933927D01*
X172975430Y-97860533D01*
X172860244Y-97812821D01*
X172792771Y-97784873D01*
X172792768Y-97784872D01*
X172598859Y-97746300D01*
X172598856Y-97746300D01*
X172401144Y-97746300D01*
X172401140Y-97746300D01*
X172207231Y-97784872D01*
X172207228Y-97784873D01*
X172024570Y-97860533D01*
X171860179Y-97970375D01*
X171860173Y-97970380D01*
X171821161Y-98009394D01*
X171758850Y-98043420D01*
X171732065Y-98046300D01*
X170593672Y-98046300D01*
X170525551Y-98026298D01*
X170504577Y-98009395D01*
X167740605Y-95245423D01*
X167706579Y-95183111D01*
X167703700Y-95156328D01*
X167703700Y-92611677D01*
X167723702Y-92543556D01*
X167724902Y-92541723D01*
X167800849Y-92428063D01*
X167868972Y-92263600D01*
X167903700Y-92089007D01*
X167903700Y-91910993D01*
X167903699Y-91910987D01*
X173716300Y-91910987D01*
X173716300Y-92089012D01*
X173741105Y-92213716D01*
X173751028Y-92263600D01*
X173819151Y-92428063D01*
X173885232Y-92526961D01*
X173918049Y-92576074D01*
X173918054Y-92576080D01*
X174043919Y-92701945D01*
X174043925Y-92701950D01*
X174191937Y-92800849D01*
X174356400Y-92868972D01*
X174506730Y-92898874D01*
X174530987Y-92903699D01*
X174530990Y-92903699D01*
X174530993Y-92903700D01*
X174530994Y-92903700D01*
X174709006Y-92903700D01*
X174709007Y-92903700D01*
X174883600Y-92868972D01*
X175048063Y-92800849D01*
X175196075Y-92701950D01*
X175321950Y-92576075D01*
X175420849Y-92428063D01*
X175488972Y-92263600D01*
X175523700Y-92089007D01*
X175523700Y-91910993D01*
X175488972Y-91736400D01*
X175420849Y-91571937D01*
X175321950Y-91423925D01*
X175321945Y-91423919D01*
X175196080Y-91298054D01*
X175196071Y-91298047D01*
X175129697Y-91253696D01*
X175084170Y-91199219D01*
X175073700Y-91148932D01*
X175073700Y-89620119D01*
X175093702Y-89551998D01*
X175110600Y-89531028D01*
X175863051Y-88778578D01*
X175905379Y-88705262D01*
X175922781Y-88675122D01*
X175953700Y-88559731D01*
X175953700Y-84084752D01*
X175973702Y-84016631D01*
X176022497Y-83972485D01*
X176078465Y-83943969D01*
X176219012Y-83841855D01*
X176341855Y-83719012D01*
X176443969Y-83578465D01*
X176522839Y-83423674D01*
X176576523Y-83258450D01*
X176603700Y-83086863D01*
X176603700Y-82913137D01*
X176576523Y-82741550D01*
X176522839Y-82576326D01*
X176443969Y-82421535D01*
X176367939Y-82316889D01*
X176341853Y-82280985D01*
X176219014Y-82158146D01*
X176078468Y-82056033D01*
X176078467Y-82056032D01*
X176078465Y-82056031D01*
X175923674Y-81977161D01*
X175923671Y-81977160D01*
X175923669Y-81977159D01*
X175758453Y-81923478D01*
X175758457Y-81923478D01*
X175716767Y-81916875D01*
X175586863Y-81896300D01*
X175413137Y-81896300D01*
X175241550Y-81923477D01*
X175241544Y-81923478D01*
X175076330Y-81977159D01*
X175076324Y-81977162D01*
X174921531Y-82056033D01*
X174780985Y-82158146D01*
X174658146Y-82280985D01*
X174556033Y-82421531D01*
X174477162Y-82576324D01*
X174477159Y-82576330D01*
X174423478Y-82741544D01*
X174423477Y-82741549D01*
X174423477Y-82741550D01*
X174396300Y-82913137D01*
X174396300Y-83086863D01*
X174423477Y-83258450D01*
X174423478Y-83258455D01*
X174477159Y-83423669D01*
X174477161Y-83423674D01*
X174545779Y-83558344D01*
X174556033Y-83578468D01*
X174658146Y-83719014D01*
X174780985Y-83841853D01*
X174921534Y-83943968D01*
X174921533Y-83943968D01*
X174921535Y-83943969D01*
X174977502Y-83972485D01*
X175029117Y-84021232D01*
X175046300Y-84084752D01*
X175046300Y-88259880D01*
X175026298Y-88328001D01*
X175009395Y-88348975D01*
X174256955Y-89101414D01*
X174256947Y-89101424D01*
X174219277Y-89166672D01*
X174197221Y-89204872D01*
X174197218Y-89204879D01*
X174166300Y-89320270D01*
X174166300Y-91148932D01*
X174146298Y-91217053D01*
X174110303Y-91253696D01*
X174043928Y-91298047D01*
X174043919Y-91298054D01*
X173918054Y-91423919D01*
X173918049Y-91423925D01*
X173819151Y-91571937D01*
X173756804Y-91722456D01*
X173751028Y-91736400D01*
X173746295Y-91760193D01*
X173716300Y-91910987D01*
X167903699Y-91910987D01*
X167868972Y-91736400D01*
X167800849Y-91571937D01*
X167701950Y-91423925D01*
X167701945Y-91423919D01*
X167576080Y-91298054D01*
X167576074Y-91298049D01*
X167509695Y-91253696D01*
X167428063Y-91199151D01*
X167263600Y-91131028D01*
X167213716Y-91121105D01*
X167089012Y-91096300D01*
X167089007Y-91096300D01*
X166910993Y-91096300D01*
X166910987Y-91096300D01*
X166761341Y-91126066D01*
X166736400Y-91131028D01*
X166736397Y-91131028D01*
X166736394Y-91131030D01*
X166571937Y-91199151D01*
X166458324Y-91275065D01*
X166439984Y-91280807D01*
X166423820Y-91291196D01*
X166392362Y-91295719D01*
X166390571Y-91296280D01*
X166388322Y-91296300D01*
X166343672Y-91296300D01*
X166275551Y-91276298D01*
X166254577Y-91259395D01*
X165240605Y-90245423D01*
X165206579Y-90183111D01*
X165203700Y-90156328D01*
X165203700Y-87716036D01*
X166046000Y-87716036D01*
X166046000Y-87903963D01*
X166082662Y-88088272D01*
X166082663Y-88088275D01*
X166154576Y-88261888D01*
X166197099Y-88325530D01*
X166653498Y-87869132D01*
X166673852Y-87945095D01*
X166719930Y-88024905D01*
X166785095Y-88090070D01*
X166864905Y-88136148D01*
X166940866Y-88156501D01*
X166484468Y-88612898D01*
X166548113Y-88655424D01*
X166721724Y-88727336D01*
X166721727Y-88727337D01*
X166906036Y-88763999D01*
X166906040Y-88764000D01*
X167093960Y-88764000D01*
X167093963Y-88763999D01*
X167278272Y-88727337D01*
X167278275Y-88727336D01*
X167451888Y-88655423D01*
X167515530Y-88612899D01*
X167059133Y-88156501D01*
X167135095Y-88136148D01*
X167214905Y-88090070D01*
X167280070Y-88024905D01*
X167326148Y-87945095D01*
X167346501Y-87869132D01*
X167802899Y-88325530D01*
X167845423Y-88261888D01*
X167917336Y-88088275D01*
X167917337Y-88088272D01*
X167953999Y-87903963D01*
X167954000Y-87903959D01*
X167954000Y-87716040D01*
X167953999Y-87716036D01*
X167917337Y-87531727D01*
X167917336Y-87531724D01*
X167845424Y-87358113D01*
X167802898Y-87294468D01*
X167346501Y-87750865D01*
X167326148Y-87674905D01*
X167280070Y-87595095D01*
X167214905Y-87529930D01*
X167135095Y-87483852D01*
X167059133Y-87463498D01*
X167515531Y-87007099D01*
X167451888Y-86964576D01*
X167278275Y-86892663D01*
X167278272Y-86892662D01*
X167093963Y-86856000D01*
X166906036Y-86856000D01*
X166721727Y-86892662D01*
X166721724Y-86892663D01*
X166548110Y-86964577D01*
X166484468Y-87007100D01*
X166484468Y-87007101D01*
X166940865Y-87463498D01*
X166864905Y-87483852D01*
X166785095Y-87529930D01*
X166719930Y-87595095D01*
X166673852Y-87674905D01*
X166653498Y-87750865D01*
X166197101Y-87294468D01*
X166197100Y-87294468D01*
X166154577Y-87358110D01*
X166082663Y-87531724D01*
X166082662Y-87531727D01*
X166046000Y-87716036D01*
X165203700Y-87716036D01*
X165203700Y-82074977D01*
X171806000Y-82074977D01*
X171806000Y-82796800D01*
X172557702Y-82796800D01*
X172540667Y-82826306D01*
X172510000Y-82940756D01*
X172510000Y-83059244D01*
X172540667Y-83173694D01*
X172557702Y-83203200D01*
X171806001Y-83203200D01*
X171806001Y-83925022D01*
X171820737Y-83999105D01*
X171820737Y-83999107D01*
X171876875Y-84083124D01*
X171960893Y-84139262D01*
X171960894Y-84139263D01*
X172034980Y-84153999D01*
X172756800Y-84153999D01*
X172756800Y-83402297D01*
X172786306Y-83419333D01*
X172900756Y-83450000D01*
X173019244Y-83450000D01*
X173133694Y-83419333D01*
X173163200Y-83402297D01*
X173163200Y-84153999D01*
X173885014Y-84153999D01*
X173885022Y-84153998D01*
X173959105Y-84139262D01*
X173959107Y-84139262D01*
X174043124Y-84083124D01*
X174099262Y-83999106D01*
X174099263Y-83999105D01*
X174113999Y-83925022D01*
X174114000Y-83925015D01*
X174114000Y-83203200D01*
X173362298Y-83203200D01*
X173379333Y-83173694D01*
X173410000Y-83059244D01*
X173410000Y-82940756D01*
X173379333Y-82826306D01*
X173362298Y-82796800D01*
X174113999Y-82796800D01*
X174113999Y-82074986D01*
X174113998Y-82074977D01*
X174099262Y-82000894D01*
X174099262Y-82000892D01*
X174043124Y-81916875D01*
X173959106Y-81860737D01*
X173959105Y-81860736D01*
X173885022Y-81846000D01*
X173163200Y-81846000D01*
X173163200Y-82597702D01*
X173133694Y-82580667D01*
X173019244Y-82550000D01*
X172900756Y-82550000D01*
X172786306Y-82580667D01*
X172756800Y-82597702D01*
X172756800Y-81846000D01*
X172034986Y-81846000D01*
X172034976Y-81846001D01*
X171960894Y-81860737D01*
X171960892Y-81860737D01*
X171876875Y-81916875D01*
X171820737Y-82000893D01*
X171820736Y-82000894D01*
X171806000Y-82074977D01*
X165203700Y-82074977D01*
X165203700Y-81930693D01*
X165203699Y-81930689D01*
X165202265Y-81923478D01*
X165176657Y-81794738D01*
X165123611Y-81666673D01*
X165046600Y-81551417D01*
X165046598Y-81551415D01*
X165046593Y-81551409D01*
X164945437Y-81450253D01*
X164945406Y-81450224D01*
X164603977Y-81108795D01*
X164569951Y-81046483D01*
X164575016Y-80975668D01*
X164617563Y-80918832D01*
X164684083Y-80894021D01*
X164693072Y-80893700D01*
X166388322Y-80893700D01*
X166456443Y-80913702D01*
X166458324Y-80914935D01*
X166475070Y-80926124D01*
X166571937Y-80990849D01*
X166736400Y-81058972D01*
X166886730Y-81088874D01*
X166910987Y-81093699D01*
X166910990Y-81093699D01*
X166910993Y-81093700D01*
X166910994Y-81093700D01*
X167089006Y-81093700D01*
X167089007Y-81093700D01*
X167263600Y-81058972D01*
X167428063Y-80990849D01*
X167576075Y-80891950D01*
X167701950Y-80766075D01*
X167800849Y-80618063D01*
X167868972Y-80453600D01*
X167903700Y-80279007D01*
X167903700Y-80100993D01*
X167868972Y-79926400D01*
X167800849Y-79761937D01*
X167701950Y-79613925D01*
X167701945Y-79613919D01*
X167576080Y-79488054D01*
X167576074Y-79488049D01*
X167496860Y-79435120D01*
X167428063Y-79389151D01*
X167263600Y-79321028D01*
X167213716Y-79311105D01*
X167089012Y-79286300D01*
X167089007Y-79286300D01*
X166910993Y-79286300D01*
X166910987Y-79286300D01*
X166761341Y-79316066D01*
X166736400Y-79321028D01*
X166736397Y-79321028D01*
X166736394Y-79321030D01*
X166571937Y-79389151D01*
X166458324Y-79465065D01*
X166390571Y-79486280D01*
X166388322Y-79486300D01*
X163356676Y-79486300D01*
X163288555Y-79466298D01*
X163255296Y-79435120D01*
X163174440Y-79325562D01*
X163168299Y-79321030D01*
X163126445Y-79290140D01*
X163064393Y-79244344D01*
X162935302Y-79199174D01*
X162904656Y-79196300D01*
X162904654Y-79196300D01*
X161095346Y-79196300D01*
X161095343Y-79196300D01*
X161064697Y-79199174D01*
X160935606Y-79244344D01*
X160825561Y-79325561D01*
X160744344Y-79435606D01*
X160699174Y-79564697D01*
X160696300Y-79595343D01*
X160696300Y-79670300D01*
X160676298Y-79738421D01*
X160622642Y-79784914D01*
X160570300Y-79796300D01*
X156929700Y-79796300D01*
X156861579Y-79776298D01*
X156815086Y-79722642D01*
X156803700Y-79670300D01*
X156803700Y-79595349D01*
X156803700Y-79595346D01*
X156800826Y-79564698D01*
X156774007Y-79488054D01*
X156755655Y-79435606D01*
X156721370Y-79389151D01*
X156674439Y-79325561D01*
X156610082Y-79278064D01*
X156564393Y-79244344D01*
X156435302Y-79199174D01*
X156404656Y-79196300D01*
X156404654Y-79196300D01*
X154595346Y-79196300D01*
X154595343Y-79196300D01*
X154564697Y-79199174D01*
X154435606Y-79244344D01*
X154325561Y-79325561D01*
X154244344Y-79435606D01*
X154199174Y-79564697D01*
X154196300Y-79595343D01*
X154196300Y-79670300D01*
X154176298Y-79738421D01*
X154122642Y-79784914D01*
X154070300Y-79796300D01*
X148075542Y-79796300D01*
X148075522Y-79796299D01*
X148069309Y-79796299D01*
X147930692Y-79796299D01*
X147930689Y-79796299D01*
X147794740Y-79823341D01*
X147794738Y-79823342D01*
X147714272Y-79856673D01*
X147666672Y-79876389D01*
X147551415Y-79953401D01*
X147551415Y-79953402D01*
X147453400Y-80051417D01*
X146744422Y-80760395D01*
X146682110Y-80794421D01*
X146655327Y-80797300D01*
X145315077Y-80797300D01*
X145246956Y-80777298D01*
X145200463Y-80723642D01*
X145190359Y-80653368D01*
X145219853Y-80588788D01*
X145238373Y-80571338D01*
X145321842Y-80507289D01*
X145321842Y-80507288D01*
X145321851Y-80507282D01*
X145507282Y-80321851D01*
X145666924Y-80113803D01*
X145798043Y-79886697D01*
X145898398Y-79644419D01*
X145966270Y-79391116D01*
X146000500Y-79131120D01*
X146000500Y-78868880D01*
X145966270Y-78608884D01*
X145898398Y-78355581D01*
X145798043Y-78113303D01*
X145798037Y-78113294D01*
X145798036Y-78113290D01*
X145666926Y-77886200D01*
X145666924Y-77886197D01*
X145526508Y-77703204D01*
X145500907Y-77636984D01*
X145515172Y-77567435D01*
X145564773Y-77516639D01*
X145626470Y-77500500D01*
X178373530Y-77500500D01*
X178441651Y-77520502D01*
G37*
%TD.AperFunction*%
%TD*%
M02*
