%TF.GenerationSoftware,KiCad,Pcbnew,9.0.7*%
%TF.CreationDate,2026-06-19T13:48:12+05:30*%
%TF.ProjectId,AC_TO_DC_converter,41435f54-4f5f-4444-935f-636f6e766572,rev?*%
%TF.SameCoordinates,Original*%
%TF.FileFunction,Legend,Bot*%
%TF.FilePolarity,Positive*%
%FSLAX46Y46*%
G04 Gerber Fmt 4.6, Leading zero omitted, Abs format (unit mm)*
G04 Created by KiCad (PCBNEW 9.0.7) date 2026-06-19 13:48:12*
%MOMM*%
%LPD*%
G01*
G04 APERTURE LIST*
%ADD10C,0.010000*%
G04 APERTURE END LIST*
D10*
%TO.C,REF\u002A\u002A*%
X170355406Y-97274949D02*
X170381127Y-97290647D01*
X170407778Y-97312227D01*
X170407778Y-97959684D01*
X170381127Y-97981264D01*
X170349767Y-97998739D01*
X170313966Y-97999575D01*
X170282528Y-97979082D01*
X170278652Y-97974416D01*
X170273186Y-97964949D01*
X170268979Y-97951267D01*
X170265867Y-97930748D01*
X170263687Y-97900768D01*
X170262276Y-97858704D01*
X170261471Y-97801932D01*
X170261107Y-97727830D01*
X170261022Y-97633773D01*
X170261022Y-97312227D01*
X170287673Y-97290647D01*
X170311386Y-97275877D01*
X170334400Y-97269067D01*
X170355406Y-97274949D01*
G36*
X170355406Y-97274949D02*
G01*
X170381127Y-97290647D01*
X170407778Y-97312227D01*
X170407778Y-97959684D01*
X170381127Y-97981264D01*
X170349767Y-97998739D01*
X170313966Y-97999575D01*
X170282528Y-97979082D01*
X170278652Y-97974416D01*
X170273186Y-97964949D01*
X170268979Y-97951267D01*
X170265867Y-97930748D01*
X170263687Y-97900768D01*
X170262276Y-97858704D01*
X170261471Y-97801932D01*
X170261107Y-97727830D01*
X170261022Y-97633773D01*
X170261022Y-97312227D01*
X170287673Y-97290647D01*
X170311386Y-97275877D01*
X170334400Y-97269067D01*
X170355406Y-97274949D01*
G37*
X177486137Y-97273463D02*
X177520291Y-97296776D01*
X177548000Y-97324485D01*
X177548000Y-97637537D01*
X177547959Y-97721567D01*
X177547701Y-97795789D01*
X177547030Y-97852541D01*
X177545752Y-97894512D01*
X177543673Y-97924389D01*
X177540599Y-97944861D01*
X177536334Y-97958614D01*
X177530684Y-97968337D01*
X177523455Y-97976717D01*
X177491991Y-97998181D01*
X177456826Y-97999947D01*
X177423822Y-97980267D01*
X177418516Y-97974398D01*
X177413066Y-97965314D01*
X177408900Y-97951973D01*
X177405846Y-97931757D01*
X177403732Y-97902049D01*
X177402386Y-97860232D01*
X177401638Y-97803689D01*
X177401314Y-97729802D01*
X177401245Y-97635956D01*
X177401284Y-97560294D01*
X177401539Y-97482385D01*
X177402183Y-97422375D01*
X177403387Y-97377648D01*
X177405324Y-97345585D01*
X177408164Y-97323571D01*
X177412079Y-97308987D01*
X177417242Y-97299218D01*
X177423822Y-97291645D01*
X177453006Y-97272623D01*
X177486137Y-97273463D01*
G36*
X177486137Y-97273463D02*
G01*
X177520291Y-97296776D01*
X177548000Y-97324485D01*
X177548000Y-97637537D01*
X177547959Y-97721567D01*
X177547701Y-97795789D01*
X177547030Y-97852541D01*
X177545752Y-97894512D01*
X177543673Y-97924389D01*
X177540599Y-97944861D01*
X177536334Y-97958614D01*
X177530684Y-97968337D01*
X177523455Y-97976717D01*
X177491991Y-97998181D01*
X177456826Y-97999947D01*
X177423822Y-97980267D01*
X177418516Y-97974398D01*
X177413066Y-97965314D01*
X177408900Y-97951973D01*
X177405846Y-97931757D01*
X177403732Y-97902049D01*
X177402386Y-97860232D01*
X177401638Y-97803689D01*
X177401314Y-97729802D01*
X177401245Y-97635956D01*
X177401284Y-97560294D01*
X177401539Y-97482385D01*
X177402183Y-97422375D01*
X177403387Y-97377648D01*
X177405324Y-97345585D01*
X177408164Y-97323571D01*
X177412079Y-97308987D01*
X177417242Y-97299218D01*
X177423822Y-97291645D01*
X177453006Y-97272623D01*
X177486137Y-97273463D01*
G37*
X176954562Y-92032850D02*
X177037313Y-92060053D01*
X177112406Y-92105484D01*
X177184298Y-92171302D01*
X177222846Y-92215567D01*
X177262256Y-92273961D01*
X177287446Y-92334586D01*
X177300861Y-92403865D01*
X177304948Y-92488222D01*
X177304669Y-92534307D01*
X177302460Y-92575450D01*
X177296894Y-92607582D01*
X177286586Y-92638122D01*
X177270148Y-92674489D01*
X177256200Y-92701728D01*
X177197665Y-92787429D01*
X177125619Y-92856617D01*
X177041947Y-92907741D01*
X176948531Y-92939250D01*
X176915434Y-92946225D01*
X176874960Y-92953094D01*
X176841999Y-92954919D01*
X176807698Y-92951947D01*
X176763200Y-92944426D01*
X176711934Y-92932002D01*
X176621434Y-92894112D01*
X176542345Y-92839836D01*
X176476528Y-92771770D01*
X176425840Y-92692511D01*
X176392140Y-92604654D01*
X176377286Y-92510795D01*
X176383136Y-92413530D01*
X176409399Y-92317220D01*
X176454418Y-92228494D01*
X176515373Y-92153419D01*
X176590184Y-92093641D01*
X176676768Y-92050809D01*
X176773043Y-92026571D01*
X176876928Y-92022576D01*
X176954562Y-92032850D01*
G36*
X176954562Y-92032850D02*
G01*
X177037313Y-92060053D01*
X177112406Y-92105484D01*
X177184298Y-92171302D01*
X177222846Y-92215567D01*
X177262256Y-92273961D01*
X177287446Y-92334586D01*
X177300861Y-92403865D01*
X177304948Y-92488222D01*
X177304669Y-92534307D01*
X177302460Y-92575450D01*
X177296894Y-92607582D01*
X177286586Y-92638122D01*
X177270148Y-92674489D01*
X177256200Y-92701728D01*
X177197665Y-92787429D01*
X177125619Y-92856617D01*
X177041947Y-92907741D01*
X176948531Y-92939250D01*
X176915434Y-92946225D01*
X176874960Y-92953094D01*
X176841999Y-92954919D01*
X176807698Y-92951947D01*
X176763200Y-92944426D01*
X176711934Y-92932002D01*
X176621434Y-92894112D01*
X176542345Y-92839836D01*
X176476528Y-92771770D01*
X176425840Y-92692511D01*
X176392140Y-92604654D01*
X176377286Y-92510795D01*
X176383136Y-92413530D01*
X176409399Y-92317220D01*
X176454418Y-92228494D01*
X176515373Y-92153419D01*
X176590184Y-92093641D01*
X176676768Y-92050809D01*
X176773043Y-92026571D01*
X176876928Y-92022576D01*
X176954562Y-92032850D01*
G37*
X169655767Y-97269068D02*
X169749890Y-97269158D01*
X169824405Y-97269498D01*
X169881811Y-97270239D01*
X169924611Y-97271535D01*
X169955304Y-97273537D01*
X169976391Y-97276396D01*
X169990373Y-97280266D01*
X169999750Y-97285298D01*
X170007022Y-97291645D01*
X170025828Y-97324362D01*
X170027275Y-97361939D01*
X170010917Y-97395178D01*
X170009557Y-97396631D01*
X169998354Y-97404992D01*
X169981252Y-97410547D01*
X169954082Y-97413840D01*
X169912678Y-97415418D01*
X169852873Y-97415822D01*
X169713511Y-97415822D01*
X169713511Y-97679589D01*
X169713436Y-97755417D01*
X169713028Y-97822083D01*
X169712046Y-97871867D01*
X169710250Y-97907784D01*
X169707399Y-97932850D01*
X169703253Y-97950081D01*
X169697571Y-97962492D01*
X169690114Y-97973100D01*
X169687824Y-97975906D01*
X169656646Y-97998548D01*
X169622266Y-98000112D01*
X169589334Y-97980267D01*
X169582355Y-97972191D01*
X169576883Y-97961593D01*
X169572863Y-97945749D01*
X169570072Y-97921773D01*
X169568288Y-97886774D01*
X169567289Y-97837864D01*
X169566852Y-97772154D01*
X169566756Y-97686756D01*
X169566756Y-97415822D01*
X169420820Y-97415822D01*
X169409720Y-97415821D01*
X169353202Y-97415596D01*
X169314358Y-97414457D01*
X169288965Y-97411657D01*
X169272804Y-97406450D01*
X169261652Y-97398089D01*
X169251289Y-97385826D01*
X169235441Y-97355138D01*
X169238543Y-97321358D01*
X169264187Y-97288822D01*
X169269129Y-97285105D01*
X169279338Y-97280269D01*
X169294764Y-97276506D01*
X169317886Y-97273683D01*
X169351183Y-97271670D01*
X169397137Y-97270333D01*
X169458228Y-97269542D01*
X169536935Y-97269163D01*
X169635740Y-97269067D01*
X169655767Y-97269068D01*
G36*
X169655767Y-97269068D02*
G01*
X169749890Y-97269158D01*
X169824405Y-97269498D01*
X169881811Y-97270239D01*
X169924611Y-97271535D01*
X169955304Y-97273537D01*
X169976391Y-97276396D01*
X169990373Y-97280266D01*
X169999750Y-97285298D01*
X170007022Y-97291645D01*
X170025828Y-97324362D01*
X170027275Y-97361939D01*
X170010917Y-97395178D01*
X170009557Y-97396631D01*
X169998354Y-97404992D01*
X169981252Y-97410547D01*
X169954082Y-97413840D01*
X169912678Y-97415418D01*
X169852873Y-97415822D01*
X169713511Y-97415822D01*
X169713511Y-97679589D01*
X169713436Y-97755417D01*
X169713028Y-97822083D01*
X169712046Y-97871867D01*
X169710250Y-97907784D01*
X169707399Y-97932850D01*
X169703253Y-97950081D01*
X169697571Y-97962492D01*
X169690114Y-97973100D01*
X169687824Y-97975906D01*
X169656646Y-97998548D01*
X169622266Y-98000112D01*
X169589334Y-97980267D01*
X169582355Y-97972191D01*
X169576883Y-97961593D01*
X169572863Y-97945749D01*
X169570072Y-97921773D01*
X169568288Y-97886774D01*
X169567289Y-97837864D01*
X169566852Y-97772154D01*
X169566756Y-97686756D01*
X169566756Y-97415822D01*
X169420820Y-97415822D01*
X169409720Y-97415821D01*
X169353202Y-97415596D01*
X169314358Y-97414457D01*
X169288965Y-97411657D01*
X169272804Y-97406450D01*
X169261652Y-97398089D01*
X169251289Y-97385826D01*
X169235441Y-97355138D01*
X169238543Y-97321358D01*
X169264187Y-97288822D01*
X169269129Y-97285105D01*
X169279338Y-97280269D01*
X169294764Y-97276506D01*
X169317886Y-97273683D01*
X169351183Y-97271670D01*
X169397137Y-97270333D01*
X169458228Y-97269542D01*
X169536935Y-97269163D01*
X169635740Y-97269067D01*
X169655767Y-97269068D01*
G37*
X168979734Y-97291645D02*
X168985366Y-97297835D01*
X168990456Y-97306041D01*
X168994543Y-97317817D01*
X168997721Y-97335276D01*
X169000087Y-97360530D01*
X169001738Y-97395690D01*
X169002769Y-97442869D01*
X169003277Y-97504177D01*
X169003359Y-97581727D01*
X169003109Y-97677631D01*
X169002625Y-97794000D01*
X169002557Y-97808175D01*
X169001971Y-97869937D01*
X169000648Y-97913620D01*
X168998103Y-97943001D01*
X168993848Y-97961855D01*
X168987396Y-97973959D01*
X168978262Y-97983089D01*
X168944804Y-98000506D01*
X168909856Y-97997604D01*
X168878953Y-97973100D01*
X168869944Y-97959897D01*
X168862492Y-97941361D01*
X168858124Y-97915333D01*
X168856069Y-97876787D01*
X168855556Y-97820700D01*
X168855556Y-97698045D01*
X168358845Y-97698045D01*
X168358845Y-97832871D01*
X168358772Y-97868662D01*
X168358009Y-97914992D01*
X168355833Y-97945526D01*
X168351536Y-97964557D01*
X168344412Y-97976374D01*
X168333755Y-97985271D01*
X168301504Y-98000341D01*
X168266217Y-97997673D01*
X168235486Y-97973100D01*
X168230831Y-97966845D01*
X168224895Y-97956321D01*
X168220364Y-97942391D01*
X168217048Y-97922317D01*
X168214759Y-97893360D01*
X168213308Y-97852780D01*
X168212505Y-97797840D01*
X168212162Y-97725799D01*
X168212089Y-97633920D01*
X168212089Y-97324485D01*
X168239798Y-97296776D01*
X168271177Y-97274533D01*
X168304406Y-97271844D01*
X168336267Y-97291645D01*
X168344553Y-97301415D01*
X168351965Y-97317307D01*
X168356302Y-97341275D01*
X168358338Y-97378148D01*
X168358845Y-97432756D01*
X168358845Y-97551289D01*
X168855556Y-97551289D01*
X168855556Y-97435776D01*
X168855994Y-97384078D01*
X168857958Y-97349554D01*
X168862474Y-97326978D01*
X168870567Y-97311126D01*
X168883265Y-97296776D01*
X168914643Y-97274533D01*
X168947872Y-97271844D01*
X168979734Y-97291645D01*
G36*
X168979734Y-97291645D02*
G01*
X168985366Y-97297835D01*
X168990456Y-97306041D01*
X168994543Y-97317817D01*
X168997721Y-97335276D01*
X169000087Y-97360530D01*
X169001738Y-97395690D01*
X169002769Y-97442869D01*
X169003277Y-97504177D01*
X169003359Y-97581727D01*
X169003109Y-97677631D01*
X169002625Y-97794000D01*
X169002557Y-97808175D01*
X169001971Y-97869937D01*
X169000648Y-97913620D01*
X168998103Y-97943001D01*
X168993848Y-97961855D01*
X168987396Y-97973959D01*
X168978262Y-97983089D01*
X168944804Y-98000506D01*
X168909856Y-97997604D01*
X168878953Y-97973100D01*
X168869944Y-97959897D01*
X168862492Y-97941361D01*
X168858124Y-97915333D01*
X168856069Y-97876787D01*
X168855556Y-97820700D01*
X168855556Y-97698045D01*
X168358845Y-97698045D01*
X168358845Y-97832871D01*
X168358772Y-97868662D01*
X168358009Y-97914992D01*
X168355833Y-97945526D01*
X168351536Y-97964557D01*
X168344412Y-97976374D01*
X168333755Y-97985271D01*
X168301504Y-98000341D01*
X168266217Y-97997673D01*
X168235486Y-97973100D01*
X168230831Y-97966845D01*
X168224895Y-97956321D01*
X168220364Y-97942391D01*
X168217048Y-97922317D01*
X168214759Y-97893360D01*
X168213308Y-97852780D01*
X168212505Y-97797840D01*
X168212162Y-97725799D01*
X168212089Y-97633920D01*
X168212089Y-97324485D01*
X168239798Y-97296776D01*
X168271177Y-97274533D01*
X168304406Y-97271844D01*
X168336267Y-97291645D01*
X168344553Y-97301415D01*
X168351965Y-97317307D01*
X168356302Y-97341275D01*
X168358338Y-97378148D01*
X168358845Y-97432756D01*
X168358845Y-97551289D01*
X168855556Y-97551289D01*
X168855556Y-97435776D01*
X168855994Y-97384078D01*
X168857958Y-97349554D01*
X168862474Y-97326978D01*
X168870567Y-97311126D01*
X168883265Y-97296776D01*
X168914643Y-97274533D01*
X168947872Y-97271844D01*
X168979734Y-97291645D01*
G37*
X173685133Y-97880396D02*
X173683163Y-97913175D01*
X173680235Y-97936095D01*
X173676158Y-97951897D01*
X173670743Y-97963319D01*
X173663803Y-97973100D01*
X173640406Y-98002845D01*
X173474714Y-98002251D01*
X173439918Y-98001953D01*
X173341435Y-97998522D01*
X173260473Y-97990839D01*
X173193379Y-97978282D01*
X173136496Y-97960227D01*
X173086169Y-97936052D01*
X173082810Y-97934135D01*
X173024998Y-97897417D01*
X172982644Y-97860451D01*
X172949828Y-97816966D01*
X172920628Y-97760689D01*
X172916346Y-97751073D01*
X172893769Y-97687887D01*
X172888034Y-97642333D01*
X173037279Y-97642333D01*
X173042892Y-97667061D01*
X173048618Y-97682939D01*
X173081548Y-97742847D01*
X173128886Y-97788600D01*
X173192652Y-97821736D01*
X173274861Y-97843790D01*
X173277655Y-97844292D01*
X173323940Y-97850255D01*
X173380336Y-97854483D01*
X173435274Y-97856089D01*
X173529156Y-97856089D01*
X173529156Y-97415822D01*
X173441667Y-97416270D01*
X173374747Y-97418746D01*
X173282349Y-97429998D01*
X173203034Y-97449537D01*
X173141060Y-97476511D01*
X173110120Y-97497240D01*
X173082000Y-97527006D01*
X173058660Y-97569434D01*
X173051533Y-97585400D01*
X173039709Y-97617902D01*
X173037279Y-97642333D01*
X172888034Y-97642333D01*
X172886797Y-97632509D01*
X172895399Y-97577483D01*
X172919541Y-97515351D01*
X172920337Y-97513658D01*
X172960788Y-97444236D01*
X173011473Y-97387638D01*
X173074198Y-97343070D01*
X173150774Y-97309741D01*
X173243009Y-97286861D01*
X173352712Y-97273636D01*
X173481691Y-97269275D01*
X173485263Y-97269270D01*
X173545283Y-97269410D01*
X173587214Y-97270446D01*
X173615328Y-97273040D01*
X173633897Y-97277853D01*
X173647194Y-97285544D01*
X173659491Y-97296776D01*
X173687200Y-97324485D01*
X173687200Y-97633920D01*
X173687175Y-97695526D01*
X173686950Y-97774311D01*
X173686332Y-97835021D01*
X173685775Y-97856089D01*
X173685133Y-97880396D01*
G36*
X173685133Y-97880396D02*
G01*
X173683163Y-97913175D01*
X173680235Y-97936095D01*
X173676158Y-97951897D01*
X173670743Y-97963319D01*
X173663803Y-97973100D01*
X173640406Y-98002845D01*
X173474714Y-98002251D01*
X173439918Y-98001953D01*
X173341435Y-97998522D01*
X173260473Y-97990839D01*
X173193379Y-97978282D01*
X173136496Y-97960227D01*
X173086169Y-97936052D01*
X173082810Y-97934135D01*
X173024998Y-97897417D01*
X172982644Y-97860451D01*
X172949828Y-97816966D01*
X172920628Y-97760689D01*
X172916346Y-97751073D01*
X172893769Y-97687887D01*
X172888034Y-97642333D01*
X173037279Y-97642333D01*
X173042892Y-97667061D01*
X173048618Y-97682939D01*
X173081548Y-97742847D01*
X173128886Y-97788600D01*
X173192652Y-97821736D01*
X173274861Y-97843790D01*
X173277655Y-97844292D01*
X173323940Y-97850255D01*
X173380336Y-97854483D01*
X173435274Y-97856089D01*
X173529156Y-97856089D01*
X173529156Y-97415822D01*
X173441667Y-97416270D01*
X173374747Y-97418746D01*
X173282349Y-97429998D01*
X173203034Y-97449537D01*
X173141060Y-97476511D01*
X173110120Y-97497240D01*
X173082000Y-97527006D01*
X173058660Y-97569434D01*
X173051533Y-97585400D01*
X173039709Y-97617902D01*
X173037279Y-97642333D01*
X172888034Y-97642333D01*
X172886797Y-97632509D01*
X172895399Y-97577483D01*
X172919541Y-97515351D01*
X172920337Y-97513658D01*
X172960788Y-97444236D01*
X173011473Y-97387638D01*
X173074198Y-97343070D01*
X173150774Y-97309741D01*
X173243009Y-97286861D01*
X173352712Y-97273636D01*
X173481691Y-97269275D01*
X173485263Y-97269270D01*
X173545283Y-97269410D01*
X173587214Y-97270446D01*
X173615328Y-97273040D01*
X173633897Y-97277853D01*
X173647194Y-97285544D01*
X173659491Y-97296776D01*
X173687200Y-97324485D01*
X173687200Y-97633920D01*
X173687175Y-97695526D01*
X173686950Y-97774311D01*
X173686332Y-97835021D01*
X173685775Y-97856089D01*
X173685133Y-97880396D01*
G37*
X180776817Y-97454427D02*
X180776870Y-97535041D01*
X180776622Y-97635956D01*
X180776583Y-97711617D01*
X180776328Y-97789526D01*
X180775684Y-97849536D01*
X180774480Y-97894264D01*
X180772543Y-97926326D01*
X180769703Y-97948340D01*
X180765788Y-97962924D01*
X180760626Y-97972694D01*
X180754045Y-97980267D01*
X180747077Y-97986501D01*
X180734079Y-97993801D01*
X180714931Y-97998554D01*
X180685528Y-98001292D01*
X180641762Y-98002545D01*
X180579528Y-98002845D01*
X180530582Y-98002469D01*
X180423722Y-97998041D01*
X180334494Y-97987953D01*
X180259696Y-97971365D01*
X180196125Y-97947435D01*
X180140579Y-97915321D01*
X180089854Y-97874182D01*
X180083866Y-97868330D01*
X180046999Y-97819821D01*
X180015899Y-97759013D01*
X179994417Y-97694769D01*
X179989136Y-97656026D01*
X180136353Y-97656026D01*
X180154635Y-97706961D01*
X180184305Y-97752878D01*
X180231002Y-97795287D01*
X180292392Y-97825090D01*
X180371538Y-97844226D01*
X180373028Y-97844464D01*
X180421999Y-97850256D01*
X180480693Y-97854396D01*
X180536734Y-97856004D01*
X180629867Y-97856089D01*
X180629867Y-97415822D01*
X180553667Y-97415808D01*
X180550639Y-97415817D01*
X180499519Y-97417782D01*
X180439416Y-97422507D01*
X180382708Y-97429035D01*
X180332750Y-97438331D01*
X180257998Y-97464600D01*
X180200489Y-97503899D01*
X180158988Y-97556933D01*
X180137771Y-97608200D01*
X180136353Y-97656026D01*
X179989136Y-97656026D01*
X179986400Y-97635956D01*
X179987679Y-97614739D01*
X179999991Y-97557323D01*
X180022520Y-97497413D01*
X180051750Y-97443363D01*
X180084167Y-97403532D01*
X180103708Y-97386510D01*
X180158420Y-97347322D01*
X180218723Y-97317193D01*
X180287919Y-97295232D01*
X180369311Y-97280550D01*
X180466200Y-97272259D01*
X180581889Y-97269467D01*
X180621371Y-97269066D01*
X180667082Y-97268653D01*
X180702883Y-97270457D01*
X180729974Y-97276739D01*
X180749556Y-97289759D01*
X180762830Y-97311778D01*
X180770998Y-97345055D01*
X180775260Y-97391851D01*
X180775857Y-97415822D01*
X180776817Y-97454427D01*
G36*
X180776817Y-97454427D02*
G01*
X180776870Y-97535041D01*
X180776622Y-97635956D01*
X180776583Y-97711617D01*
X180776328Y-97789526D01*
X180775684Y-97849536D01*
X180774480Y-97894264D01*
X180772543Y-97926326D01*
X180769703Y-97948340D01*
X180765788Y-97962924D01*
X180760626Y-97972694D01*
X180754045Y-97980267D01*
X180747077Y-97986501D01*
X180734079Y-97993801D01*
X180714931Y-97998554D01*
X180685528Y-98001292D01*
X180641762Y-98002545D01*
X180579528Y-98002845D01*
X180530582Y-98002469D01*
X180423722Y-97998041D01*
X180334494Y-97987953D01*
X180259696Y-97971365D01*
X180196125Y-97947435D01*
X180140579Y-97915321D01*
X180089854Y-97874182D01*
X180083866Y-97868330D01*
X180046999Y-97819821D01*
X180015899Y-97759013D01*
X179994417Y-97694769D01*
X179989136Y-97656026D01*
X180136353Y-97656026D01*
X180154635Y-97706961D01*
X180184305Y-97752878D01*
X180231002Y-97795287D01*
X180292392Y-97825090D01*
X180371538Y-97844226D01*
X180373028Y-97844464D01*
X180421999Y-97850256D01*
X180480693Y-97854396D01*
X180536734Y-97856004D01*
X180629867Y-97856089D01*
X180629867Y-97415822D01*
X180553667Y-97415808D01*
X180550639Y-97415817D01*
X180499519Y-97417782D01*
X180439416Y-97422507D01*
X180382708Y-97429035D01*
X180332750Y-97438331D01*
X180257998Y-97464600D01*
X180200489Y-97503899D01*
X180158988Y-97556933D01*
X180137771Y-97608200D01*
X180136353Y-97656026D01*
X179989136Y-97656026D01*
X179986400Y-97635956D01*
X179987679Y-97614739D01*
X179999991Y-97557323D01*
X180022520Y-97497413D01*
X180051750Y-97443363D01*
X180084167Y-97403532D01*
X180103708Y-97386510D01*
X180158420Y-97347322D01*
X180218723Y-97317193D01*
X180287919Y-97295232D01*
X180369311Y-97280550D01*
X180466200Y-97272259D01*
X180581889Y-97269467D01*
X180621371Y-97269066D01*
X180667082Y-97268653D01*
X180702883Y-97270457D01*
X180729974Y-97276739D01*
X180749556Y-97289759D01*
X180762830Y-97311778D01*
X180770998Y-97345055D01*
X180775260Y-97391851D01*
X180775857Y-97415822D01*
X180776817Y-97454427D01*
G37*
X175831893Y-97267892D02*
X175843301Y-97274029D01*
X175853850Y-97284691D01*
X175865136Y-97298811D01*
X175869589Y-97304772D01*
X175875588Y-97315268D01*
X175880167Y-97329093D01*
X175883519Y-97348998D01*
X175885833Y-97377732D01*
X175887301Y-97418045D01*
X175888113Y-97472687D01*
X175888460Y-97544407D01*
X175888534Y-97635956D01*
X175888511Y-97694486D01*
X175888292Y-97773573D01*
X175887683Y-97834516D01*
X175886492Y-97880062D01*
X175884529Y-97912963D01*
X175881603Y-97935968D01*
X175877523Y-97951826D01*
X175872097Y-97963286D01*
X175865136Y-97973100D01*
X175834708Y-97997493D01*
X175799765Y-98000372D01*
X175762784Y-97981282D01*
X175758600Y-97977807D01*
X175750424Y-97969279D01*
X175744364Y-97957728D01*
X175739981Y-97939896D01*
X175736839Y-97912524D01*
X175734502Y-97872354D01*
X175732531Y-97816128D01*
X175730489Y-97740589D01*
X175724845Y-97521458D01*
X175459556Y-97762099D01*
X175385722Y-97828875D01*
X175320542Y-97886991D01*
X175268348Y-97931949D01*
X175227273Y-97964871D01*
X175195455Y-97986879D01*
X175171026Y-97999094D01*
X175152124Y-98002639D01*
X175136883Y-97998636D01*
X175123439Y-97988207D01*
X175109927Y-97972474D01*
X175103682Y-97963991D01*
X175098050Y-97953413D01*
X175093839Y-97939255D01*
X175090887Y-97918803D01*
X175089032Y-97889342D01*
X175088113Y-97848161D01*
X175087968Y-97792544D01*
X175088435Y-97719779D01*
X175089352Y-97627151D01*
X175092667Y-97312199D01*
X175119318Y-97290633D01*
X175145383Y-97274441D01*
X175178241Y-97271670D01*
X175212772Y-97290623D01*
X175217084Y-97294208D01*
X175225216Y-97302737D01*
X175231245Y-97314329D01*
X175235606Y-97332235D01*
X175238734Y-97359706D01*
X175241063Y-97399994D01*
X175243029Y-97456351D01*
X175245067Y-97532029D01*
X175250711Y-97751878D01*
X175431334Y-97588084D01*
X175518072Y-97509451D01*
X175593843Y-97441058D01*
X175655980Y-97385708D01*
X175706078Y-97342338D01*
X175745735Y-97309881D01*
X175776548Y-97287273D01*
X175800114Y-97273448D01*
X175818030Y-97267343D01*
X175831893Y-97267892D01*
G36*
X175831893Y-97267892D02*
G01*
X175843301Y-97274029D01*
X175853850Y-97284691D01*
X175865136Y-97298811D01*
X175869589Y-97304772D01*
X175875588Y-97315268D01*
X175880167Y-97329093D01*
X175883519Y-97348998D01*
X175885833Y-97377732D01*
X175887301Y-97418045D01*
X175888113Y-97472687D01*
X175888460Y-97544407D01*
X175888534Y-97635956D01*
X175888511Y-97694486D01*
X175888292Y-97773573D01*
X175887683Y-97834516D01*
X175886492Y-97880062D01*
X175884529Y-97912963D01*
X175881603Y-97935968D01*
X175877523Y-97951826D01*
X175872097Y-97963286D01*
X175865136Y-97973100D01*
X175834708Y-97997493D01*
X175799765Y-98000372D01*
X175762784Y-97981282D01*
X175758600Y-97977807D01*
X175750424Y-97969279D01*
X175744364Y-97957728D01*
X175739981Y-97939896D01*
X175736839Y-97912524D01*
X175734502Y-97872354D01*
X175732531Y-97816128D01*
X175730489Y-97740589D01*
X175724845Y-97521458D01*
X175459556Y-97762099D01*
X175385722Y-97828875D01*
X175320542Y-97886991D01*
X175268348Y-97931949D01*
X175227273Y-97964871D01*
X175195455Y-97986879D01*
X175171026Y-97999094D01*
X175152124Y-98002639D01*
X175136883Y-97998636D01*
X175123439Y-97988207D01*
X175109927Y-97972474D01*
X175103682Y-97963991D01*
X175098050Y-97953413D01*
X175093839Y-97939255D01*
X175090887Y-97918803D01*
X175089032Y-97889342D01*
X175088113Y-97848161D01*
X175087968Y-97792544D01*
X175088435Y-97719779D01*
X175089352Y-97627151D01*
X175092667Y-97312199D01*
X175119318Y-97290633D01*
X175145383Y-97274441D01*
X175178241Y-97271670D01*
X175212772Y-97290623D01*
X175217084Y-97294208D01*
X175225216Y-97302737D01*
X175231245Y-97314329D01*
X175235606Y-97332235D01*
X175238734Y-97359706D01*
X175241063Y-97399994D01*
X175243029Y-97456351D01*
X175245067Y-97532029D01*
X175250711Y-97751878D01*
X175431334Y-97588084D01*
X175518072Y-97509451D01*
X175593843Y-97441058D01*
X175655980Y-97385708D01*
X175706078Y-97342338D01*
X175745735Y-97309881D01*
X175776548Y-97287273D01*
X175800114Y-97273448D01*
X175818030Y-97267343D01*
X175831893Y-97267892D01*
G37*
X176629150Y-97274179D02*
X176735157Y-97290494D01*
X176828969Y-97318545D01*
X176907765Y-97357452D01*
X176968719Y-97406334D01*
X176994789Y-97439195D01*
X177024297Y-97488394D01*
X177049568Y-97542252D01*
X177067218Y-97593419D01*
X177073858Y-97634544D01*
X177072298Y-97654259D01*
X177059357Y-97705592D01*
X177036194Y-97762118D01*
X177006302Y-97816035D01*
X176973173Y-97859539D01*
X176962977Y-97869887D01*
X176895892Y-97921662D01*
X176815766Y-97961554D01*
X176729556Y-97985956D01*
X176674592Y-97994068D01*
X176581139Y-98000673D01*
X176491358Y-97998586D01*
X176408869Y-97988340D01*
X176337286Y-97970470D01*
X176280228Y-97945508D01*
X176241311Y-97913988D01*
X176239936Y-97912012D01*
X176232848Y-97886786D01*
X176228609Y-97839535D01*
X176227200Y-97770071D01*
X176228060Y-97707838D01*
X176232780Y-97660456D01*
X176244470Y-97628353D01*
X176266239Y-97608800D01*
X176301198Y-97599070D01*
X176352456Y-97596433D01*
X176423123Y-97598161D01*
X176471743Y-97601173D01*
X176521939Y-97609366D01*
X176554433Y-97623419D01*
X176571892Y-97644654D01*
X176576983Y-97674394D01*
X176576877Y-97678936D01*
X176568175Y-97713730D01*
X176544165Y-97737147D01*
X176502900Y-97750347D01*
X176442431Y-97754489D01*
X176373956Y-97754489D01*
X176373956Y-97792841D01*
X176374006Y-97801976D01*
X176376227Y-97819227D01*
X176385494Y-97829521D01*
X176406875Y-97836459D01*
X176445436Y-97843641D01*
X176450910Y-97844575D01*
X176547860Y-97854478D01*
X176637852Y-97851559D01*
X176718760Y-97836829D01*
X176788459Y-97811299D01*
X176844824Y-97775978D01*
X176885729Y-97731879D01*
X176909051Y-97680012D01*
X176912663Y-97621388D01*
X176907145Y-97592494D01*
X176880461Y-97536604D01*
X176834273Y-97490945D01*
X176769291Y-97456108D01*
X176686229Y-97432690D01*
X176661555Y-97428241D01*
X176572226Y-97417742D01*
X176492419Y-97418971D01*
X176414326Y-97431906D01*
X176379183Y-97438696D01*
X176333745Y-97439713D01*
X176302430Y-97427182D01*
X176282277Y-97400395D01*
X176275893Y-97372148D01*
X176285379Y-97340924D01*
X176294708Y-97327499D01*
X176328943Y-97303967D01*
X176381565Y-97286095D01*
X176450081Y-97274599D01*
X176532000Y-97270192D01*
X176629150Y-97274179D01*
G36*
X176629150Y-97274179D02*
G01*
X176735157Y-97290494D01*
X176828969Y-97318545D01*
X176907765Y-97357452D01*
X176968719Y-97406334D01*
X176994789Y-97439195D01*
X177024297Y-97488394D01*
X177049568Y-97542252D01*
X177067218Y-97593419D01*
X177073858Y-97634544D01*
X177072298Y-97654259D01*
X177059357Y-97705592D01*
X177036194Y-97762118D01*
X177006302Y-97816035D01*
X176973173Y-97859539D01*
X176962977Y-97869887D01*
X176895892Y-97921662D01*
X176815766Y-97961554D01*
X176729556Y-97985956D01*
X176674592Y-97994068D01*
X176581139Y-98000673D01*
X176491358Y-97998586D01*
X176408869Y-97988340D01*
X176337286Y-97970470D01*
X176280228Y-97945508D01*
X176241311Y-97913988D01*
X176239936Y-97912012D01*
X176232848Y-97886786D01*
X176228609Y-97839535D01*
X176227200Y-97770071D01*
X176228060Y-97707838D01*
X176232780Y-97660456D01*
X176244470Y-97628353D01*
X176266239Y-97608800D01*
X176301198Y-97599070D01*
X176352456Y-97596433D01*
X176423123Y-97598161D01*
X176471743Y-97601173D01*
X176521939Y-97609366D01*
X176554433Y-97623419D01*
X176571892Y-97644654D01*
X176576983Y-97674394D01*
X176576877Y-97678936D01*
X176568175Y-97713730D01*
X176544165Y-97737147D01*
X176502900Y-97750347D01*
X176442431Y-97754489D01*
X176373956Y-97754489D01*
X176373956Y-97792841D01*
X176374006Y-97801976D01*
X176376227Y-97819227D01*
X176385494Y-97829521D01*
X176406875Y-97836459D01*
X176445436Y-97843641D01*
X176450910Y-97844575D01*
X176547860Y-97854478D01*
X176637852Y-97851559D01*
X176718760Y-97836829D01*
X176788459Y-97811299D01*
X176844824Y-97775978D01*
X176885729Y-97731879D01*
X176909051Y-97680012D01*
X176912663Y-97621388D01*
X176907145Y-97592494D01*
X176880461Y-97536604D01*
X176834273Y-97490945D01*
X176769291Y-97456108D01*
X176686229Y-97432690D01*
X176661555Y-97428241D01*
X176572226Y-97417742D01*
X176492419Y-97418971D01*
X176414326Y-97431906D01*
X176379183Y-97438696D01*
X176333745Y-97439713D01*
X176302430Y-97427182D01*
X176282277Y-97400395D01*
X176275893Y-97372148D01*
X176285379Y-97340924D01*
X176294708Y-97327499D01*
X176328943Y-97303967D01*
X176381565Y-97286095D01*
X176450081Y-97274599D01*
X176532000Y-97270192D01*
X176629150Y-97274179D01*
G37*
X174679803Y-97298811D02*
X174684752Y-97305495D01*
X174690596Y-97316066D01*
X174695057Y-97330153D01*
X174698321Y-97350478D01*
X174700574Y-97379765D01*
X174702002Y-97420737D01*
X174702792Y-97476117D01*
X174703129Y-97548628D01*
X174703200Y-97640994D01*
X174703171Y-97706911D01*
X174702939Y-97785228D01*
X174702319Y-97845496D01*
X174701126Y-97890393D01*
X174699179Y-97922602D01*
X174696294Y-97944800D01*
X174692288Y-97959669D01*
X174686979Y-97969889D01*
X174680183Y-97978138D01*
X174675668Y-97982795D01*
X174667438Y-97989282D01*
X174656078Y-97994194D01*
X174638810Y-97997749D01*
X174612855Y-98000167D01*
X174575436Y-98001667D01*
X174523773Y-98002467D01*
X174455089Y-98002787D01*
X174366606Y-98002845D01*
X174346931Y-98002838D01*
X174259906Y-98002572D01*
X174192254Y-98001806D01*
X174141299Y-98000392D01*
X174104367Y-97998180D01*
X174078783Y-97995022D01*
X174061871Y-97990769D01*
X174050957Y-97985271D01*
X174040464Y-97975285D01*
X174027203Y-97944168D01*
X174028386Y-97908280D01*
X174044550Y-97876733D01*
X174046739Y-97874457D01*
X174055427Y-97868189D01*
X174068769Y-97863523D01*
X174089752Y-97860227D01*
X174121363Y-97858068D01*
X174166590Y-97856814D01*
X174228420Y-97856231D01*
X174309839Y-97856089D01*
X174556445Y-97856089D01*
X174556445Y-97698045D01*
X174394006Y-97698045D01*
X174358338Y-97697964D01*
X174302568Y-97697167D01*
X174263430Y-97695162D01*
X174236976Y-97691521D01*
X174219259Y-97685812D01*
X174206329Y-97677607D01*
X174202686Y-97674423D01*
X174184278Y-97643448D01*
X174183644Y-97607112D01*
X174201183Y-97573493D01*
X174201245Y-97573424D01*
X174210916Y-97564798D01*
X174224209Y-97558742D01*
X174244917Y-97554811D01*
X174276828Y-97552556D01*
X174323734Y-97551531D01*
X174389424Y-97551289D01*
X174557571Y-97551289D01*
X174554186Y-97486378D01*
X174550800Y-97421467D01*
X174308723Y-97418414D01*
X174283707Y-97418086D01*
X174202087Y-97416606D01*
X174139768Y-97414222D01*
X174094154Y-97410227D01*
X174062652Y-97403913D01*
X174042667Y-97394574D01*
X174031604Y-97381503D01*
X174026869Y-97363992D01*
X174025867Y-97341335D01*
X174025873Y-97338970D01*
X174027027Y-97318939D01*
X174031824Y-97303146D01*
X174042632Y-97291090D01*
X174061817Y-97282267D01*
X174091745Y-97276175D01*
X174134783Y-97272311D01*
X174193299Y-97270174D01*
X174269657Y-97269260D01*
X174366226Y-97269067D01*
X174656406Y-97269067D01*
X174679803Y-97298811D01*
G36*
X174679803Y-97298811D02*
G01*
X174684752Y-97305495D01*
X174690596Y-97316066D01*
X174695057Y-97330153D01*
X174698321Y-97350478D01*
X174700574Y-97379765D01*
X174702002Y-97420737D01*
X174702792Y-97476117D01*
X174703129Y-97548628D01*
X174703200Y-97640994D01*
X174703171Y-97706911D01*
X174702939Y-97785228D01*
X174702319Y-97845496D01*
X174701126Y-97890393D01*
X174699179Y-97922602D01*
X174696294Y-97944800D01*
X174692288Y-97959669D01*
X174686979Y-97969889D01*
X174680183Y-97978138D01*
X174675668Y-97982795D01*
X174667438Y-97989282D01*
X174656078Y-97994194D01*
X174638810Y-97997749D01*
X174612855Y-98000167D01*
X174575436Y-98001667D01*
X174523773Y-98002467D01*
X174455089Y-98002787D01*
X174366606Y-98002845D01*
X174346931Y-98002838D01*
X174259906Y-98002572D01*
X174192254Y-98001806D01*
X174141299Y-98000392D01*
X174104367Y-97998180D01*
X174078783Y-97995022D01*
X174061871Y-97990769D01*
X174050957Y-97985271D01*
X174040464Y-97975285D01*
X174027203Y-97944168D01*
X174028386Y-97908280D01*
X174044550Y-97876733D01*
X174046739Y-97874457D01*
X174055427Y-97868189D01*
X174068769Y-97863523D01*
X174089752Y-97860227D01*
X174121363Y-97858068D01*
X174166590Y-97856814D01*
X174228420Y-97856231D01*
X174309839Y-97856089D01*
X174556445Y-97856089D01*
X174556445Y-97698045D01*
X174394006Y-97698045D01*
X174358338Y-97697964D01*
X174302568Y-97697167D01*
X174263430Y-97695162D01*
X174236976Y-97691521D01*
X174219259Y-97685812D01*
X174206329Y-97677607D01*
X174202686Y-97674423D01*
X174184278Y-97643448D01*
X174183644Y-97607112D01*
X174201183Y-97573493D01*
X174201245Y-97573424D01*
X174210916Y-97564798D01*
X174224209Y-97558742D01*
X174244917Y-97554811D01*
X174276828Y-97552556D01*
X174323734Y-97551531D01*
X174389424Y-97551289D01*
X174557571Y-97551289D01*
X174554186Y-97486378D01*
X174550800Y-97421467D01*
X174308723Y-97418414D01*
X174283707Y-97418086D01*
X174202087Y-97416606D01*
X174139768Y-97414222D01*
X174094154Y-97410227D01*
X174062652Y-97403913D01*
X174042667Y-97394574D01*
X174031604Y-97381503D01*
X174026869Y-97363992D01*
X174025867Y-97341335D01*
X174025873Y-97338970D01*
X174027027Y-97318939D01*
X174031824Y-97303146D01*
X174042632Y-97291090D01*
X174061817Y-97282267D01*
X174091745Y-97276175D01*
X174134783Y-97272311D01*
X174193299Y-97270174D01*
X174269657Y-97269260D01*
X174366226Y-97269067D01*
X174656406Y-97269067D01*
X174679803Y-97298811D01*
G37*
X179356734Y-97269083D02*
X179433831Y-97269275D01*
X179492777Y-97269860D01*
X179536364Y-97271051D01*
X179567383Y-97273064D01*
X179588625Y-97276112D01*
X179602882Y-97280409D01*
X179612945Y-97286172D01*
X179621606Y-97293612D01*
X179623391Y-97295293D01*
X179630635Y-97302832D01*
X179636277Y-97311850D01*
X179640517Y-97324984D01*
X179643556Y-97344872D01*
X179645594Y-97374151D01*
X179646830Y-97415458D01*
X179647465Y-97471431D01*
X179647700Y-97544707D01*
X179647734Y-97637923D01*
X179647697Y-97710713D01*
X179647448Y-97788889D01*
X179646812Y-97849103D01*
X179645615Y-97893982D01*
X179643684Y-97926152D01*
X179640846Y-97948239D01*
X179636927Y-97962870D01*
X179631755Y-97972670D01*
X179625156Y-97980267D01*
X179621822Y-97983444D01*
X179613300Y-97989554D01*
X179601298Y-97994229D01*
X179583087Y-97997659D01*
X179555940Y-98000036D01*
X179517129Y-98001552D01*
X179463924Y-98002398D01*
X179393598Y-98002765D01*
X179303422Y-98002845D01*
X179261314Y-98002833D01*
X179180167Y-98002651D01*
X179117675Y-98002098D01*
X179071109Y-98000982D01*
X179037741Y-97999113D01*
X179014844Y-97996298D01*
X178999688Y-97992346D01*
X178989546Y-97987066D01*
X178981689Y-97980267D01*
X178966963Y-97958667D01*
X178959111Y-97929467D01*
X178964610Y-97905560D01*
X178981689Y-97878667D01*
X178986668Y-97874059D01*
X178996443Y-97867772D01*
X179010559Y-97863146D01*
X179032054Y-97859930D01*
X179063968Y-97857870D01*
X179109342Y-97856712D01*
X179171213Y-97856202D01*
X179252622Y-97856089D01*
X179500978Y-97856089D01*
X179500978Y-97698045D01*
X179339801Y-97698045D01*
X179303983Y-97697899D01*
X179238359Y-97696176D01*
X179191118Y-97691741D01*
X179159383Y-97683637D01*
X179140277Y-97670906D01*
X179130923Y-97652592D01*
X179128445Y-97627738D01*
X179129242Y-97607482D01*
X179134494Y-97585656D01*
X179147288Y-97570304D01*
X179170628Y-97560309D01*
X179207517Y-97554553D01*
X179260959Y-97551919D01*
X179333958Y-97551289D01*
X179502105Y-97551289D01*
X179498719Y-97486378D01*
X179495334Y-97421467D01*
X179247617Y-97418418D01*
X179185026Y-97417539D01*
X179116565Y-97416095D01*
X179065661Y-97414164D01*
X179029408Y-97411514D01*
X179004901Y-97407910D01*
X178989235Y-97403121D01*
X178979506Y-97396913D01*
X178973491Y-97390510D01*
X178960482Y-97358828D01*
X178964043Y-97323142D01*
X178983818Y-97292084D01*
X178987069Y-97289161D01*
X178996049Y-97282810D01*
X179008153Y-97277957D01*
X179026159Y-97274403D01*
X179052847Y-97271946D01*
X179090997Y-97270385D01*
X179143386Y-97269518D01*
X179212794Y-97269146D01*
X179302001Y-97269067D01*
X179356734Y-97269083D01*
G36*
X179356734Y-97269083D02*
G01*
X179433831Y-97269275D01*
X179492777Y-97269860D01*
X179536364Y-97271051D01*
X179567383Y-97273064D01*
X179588625Y-97276112D01*
X179602882Y-97280409D01*
X179612945Y-97286172D01*
X179621606Y-97293612D01*
X179623391Y-97295293D01*
X179630635Y-97302832D01*
X179636277Y-97311850D01*
X179640517Y-97324984D01*
X179643556Y-97344872D01*
X179645594Y-97374151D01*
X179646830Y-97415458D01*
X179647465Y-97471431D01*
X179647700Y-97544707D01*
X179647734Y-97637923D01*
X179647697Y-97710713D01*
X179647448Y-97788889D01*
X179646812Y-97849103D01*
X179645615Y-97893982D01*
X179643684Y-97926152D01*
X179640846Y-97948239D01*
X179636927Y-97962870D01*
X179631755Y-97972670D01*
X179625156Y-97980267D01*
X179621822Y-97983444D01*
X179613300Y-97989554D01*
X179601298Y-97994229D01*
X179583087Y-97997659D01*
X179555940Y-98000036D01*
X179517129Y-98001552D01*
X179463924Y-98002398D01*
X179393598Y-98002765D01*
X179303422Y-98002845D01*
X179261314Y-98002833D01*
X179180167Y-98002651D01*
X179117675Y-98002098D01*
X179071109Y-98000982D01*
X179037741Y-97999113D01*
X179014844Y-97996298D01*
X178999688Y-97992346D01*
X178989546Y-97987066D01*
X178981689Y-97980267D01*
X178966963Y-97958667D01*
X178959111Y-97929467D01*
X178964610Y-97905560D01*
X178981689Y-97878667D01*
X178986668Y-97874059D01*
X178996443Y-97867772D01*
X179010559Y-97863146D01*
X179032054Y-97859930D01*
X179063968Y-97857870D01*
X179109342Y-97856712D01*
X179171213Y-97856202D01*
X179252622Y-97856089D01*
X179500978Y-97856089D01*
X179500978Y-97698045D01*
X179339801Y-97698045D01*
X179303983Y-97697899D01*
X179238359Y-97696176D01*
X179191118Y-97691741D01*
X179159383Y-97683637D01*
X179140277Y-97670906D01*
X179130923Y-97652592D01*
X179128445Y-97627738D01*
X179129242Y-97607482D01*
X179134494Y-97585656D01*
X179147288Y-97570304D01*
X179170628Y-97560309D01*
X179207517Y-97554553D01*
X179260959Y-97551919D01*
X179333958Y-97551289D01*
X179502105Y-97551289D01*
X179498719Y-97486378D01*
X179495334Y-97421467D01*
X179247617Y-97418418D01*
X179185026Y-97417539D01*
X179116565Y-97416095D01*
X179065661Y-97414164D01*
X179029408Y-97411514D01*
X179004901Y-97407910D01*
X178989235Y-97403121D01*
X178979506Y-97396913D01*
X178973491Y-97390510D01*
X178960482Y-97358828D01*
X178964043Y-97323142D01*
X178983818Y-97292084D01*
X178987069Y-97289161D01*
X178996049Y-97282810D01*
X179008153Y-97277957D01*
X179026159Y-97274403D01*
X179052847Y-97271946D01*
X179090997Y-97270385D01*
X179143386Y-97269518D01*
X179212794Y-97269146D01*
X179302001Y-97269067D01*
X179356734Y-97269083D01*
G37*
X170789702Y-97278478D02*
X170807663Y-97296989D01*
X170828263Y-97328071D01*
X170853095Y-97373756D01*
X170883750Y-97436078D01*
X170921820Y-97517071D01*
X170936454Y-97548454D01*
X170966203Y-97611638D01*
X170992297Y-97666244D01*
X171013292Y-97709290D01*
X171027739Y-97737793D01*
X171034191Y-97748770D01*
X171035550Y-97748189D01*
X171045542Y-97734242D01*
X171062833Y-97704704D01*
X171085430Y-97663087D01*
X171111338Y-97612903D01*
X171127311Y-97581414D01*
X171156261Y-97526061D01*
X171178749Y-97487044D01*
X171196965Y-97461566D01*
X171213096Y-97446831D01*
X171229330Y-97440042D01*
X171247857Y-97438400D01*
X171258360Y-97438875D01*
X171274476Y-97443082D01*
X171289790Y-97453946D01*
X171306388Y-97474219D01*
X171326357Y-97506654D01*
X171351783Y-97554004D01*
X171384752Y-97619022D01*
X171394485Y-97638277D01*
X171418943Y-97684946D01*
X171439178Y-97721109D01*
X171453311Y-97743497D01*
X171459460Y-97748845D01*
X171460827Y-97745573D01*
X171470202Y-97724664D01*
X171487062Y-97687725D01*
X171509979Y-97637874D01*
X171537520Y-97578226D01*
X171568255Y-97511898D01*
X171594970Y-97454677D01*
X171624593Y-97392688D01*
X171647664Y-97346949D01*
X171665643Y-97314908D01*
X171679990Y-97294014D01*
X171692166Y-97281718D01*
X171703632Y-97275466D01*
X171713042Y-97272574D01*
X171738147Y-97272425D01*
X171765290Y-97287768D01*
X171766590Y-97288753D01*
X171788674Y-97311388D01*
X171799723Y-97333613D01*
X171799769Y-97334253D01*
X171795228Y-97351915D01*
X171782364Y-97386481D01*
X171762605Y-97434826D01*
X171737381Y-97493825D01*
X171708119Y-97560355D01*
X171676250Y-97631291D01*
X171643201Y-97703507D01*
X171610401Y-97773880D01*
X171579280Y-97839285D01*
X171551265Y-97896597D01*
X171527786Y-97942692D01*
X171510272Y-97974446D01*
X171500151Y-97988733D01*
X171465743Y-98002102D01*
X171424046Y-97995741D01*
X171418681Y-97991044D01*
X171402852Y-97968893D01*
X171380650Y-97932132D01*
X171354233Y-97884415D01*
X171325760Y-97829393D01*
X171245986Y-97670150D01*
X171172799Y-97816742D01*
X171163103Y-97836032D01*
X171136125Y-97888380D01*
X171112096Y-97933170D01*
X171093332Y-97966154D01*
X171082146Y-97983089D01*
X171081000Y-97984332D01*
X171052879Y-97999619D01*
X171017817Y-98001302D01*
X170986776Y-97988733D01*
X170984350Y-97985884D01*
X170972090Y-97965259D01*
X170952352Y-97927708D01*
X170926448Y-97875880D01*
X170895685Y-97812423D01*
X170861375Y-97739985D01*
X170824825Y-97661216D01*
X170804585Y-97617093D01*
X170767812Y-97536365D01*
X170739355Y-97472687D01*
X170718331Y-97423752D01*
X170703854Y-97387257D01*
X170695039Y-97360895D01*
X170691004Y-97342361D01*
X170690862Y-97329352D01*
X170693730Y-97319561D01*
X170708387Y-97298678D01*
X170734990Y-97278377D01*
X170735745Y-97278035D01*
X170755335Y-97271034D01*
X170772790Y-97270504D01*
X170789702Y-97278478D01*
G36*
X170789702Y-97278478D02*
G01*
X170807663Y-97296989D01*
X170828263Y-97328071D01*
X170853095Y-97373756D01*
X170883750Y-97436078D01*
X170921820Y-97517071D01*
X170936454Y-97548454D01*
X170966203Y-97611638D01*
X170992297Y-97666244D01*
X171013292Y-97709290D01*
X171027739Y-97737793D01*
X171034191Y-97748770D01*
X171035550Y-97748189D01*
X171045542Y-97734242D01*
X171062833Y-97704704D01*
X171085430Y-97663087D01*
X171111338Y-97612903D01*
X171127311Y-97581414D01*
X171156261Y-97526061D01*
X171178749Y-97487044D01*
X171196965Y-97461566D01*
X171213096Y-97446831D01*
X171229330Y-97440042D01*
X171247857Y-97438400D01*
X171258360Y-97438875D01*
X171274476Y-97443082D01*
X171289790Y-97453946D01*
X171306388Y-97474219D01*
X171326357Y-97506654D01*
X171351783Y-97554004D01*
X171384752Y-97619022D01*
X171394485Y-97638277D01*
X171418943Y-97684946D01*
X171439178Y-97721109D01*
X171453311Y-97743497D01*
X171459460Y-97748845D01*
X171460827Y-97745573D01*
X171470202Y-97724664D01*
X171487062Y-97687725D01*
X171509979Y-97637874D01*
X171537520Y-97578226D01*
X171568255Y-97511898D01*
X171594970Y-97454677D01*
X171624593Y-97392688D01*
X171647664Y-97346949D01*
X171665643Y-97314908D01*
X171679990Y-97294014D01*
X171692166Y-97281718D01*
X171703632Y-97275466D01*
X171713042Y-97272574D01*
X171738147Y-97272425D01*
X171765290Y-97287768D01*
X171766590Y-97288753D01*
X171788674Y-97311388D01*
X171799723Y-97333613D01*
X171799769Y-97334253D01*
X171795228Y-97351915D01*
X171782364Y-97386481D01*
X171762605Y-97434826D01*
X171737381Y-97493825D01*
X171708119Y-97560355D01*
X171676250Y-97631291D01*
X171643201Y-97703507D01*
X171610401Y-97773880D01*
X171579280Y-97839285D01*
X171551265Y-97896597D01*
X171527786Y-97942692D01*
X171510272Y-97974446D01*
X171500151Y-97988733D01*
X171465743Y-98002102D01*
X171424046Y-97995741D01*
X171418681Y-97991044D01*
X171402852Y-97968893D01*
X171380650Y-97932132D01*
X171354233Y-97884415D01*
X171325760Y-97829393D01*
X171245986Y-97670150D01*
X171172799Y-97816742D01*
X171163103Y-97836032D01*
X171136125Y-97888380D01*
X171112096Y-97933170D01*
X171093332Y-97966154D01*
X171082146Y-97983089D01*
X171081000Y-97984332D01*
X171052879Y-97999619D01*
X171017817Y-98001302D01*
X170986776Y-97988733D01*
X170984350Y-97985884D01*
X170972090Y-97965259D01*
X170952352Y-97927708D01*
X170926448Y-97875880D01*
X170895685Y-97812423D01*
X170861375Y-97739985D01*
X170824825Y-97661216D01*
X170804585Y-97617093D01*
X170767812Y-97536365D01*
X170739355Y-97472687D01*
X170718331Y-97423752D01*
X170703854Y-97387257D01*
X170695039Y-97360895D01*
X170691004Y-97342361D01*
X170690862Y-97329352D01*
X170693730Y-97319561D01*
X170708387Y-97298678D01*
X170734990Y-97278377D01*
X170735745Y-97278035D01*
X170755335Y-97271034D01*
X170772790Y-97270504D01*
X170789702Y-97278478D01*
G37*
X178340853Y-97269936D02*
X178407100Y-97275366D01*
X178462400Y-97284964D01*
X178513283Y-97299825D01*
X178584595Y-97332958D01*
X178635752Y-97375640D01*
X178666575Y-97427705D01*
X178676889Y-97488983D01*
X178675952Y-97520232D01*
X178670160Y-97545029D01*
X178655353Y-97566699D01*
X178627380Y-97594049D01*
X178619402Y-97601378D01*
X178595692Y-97622281D01*
X178573298Y-97639251D01*
X178549265Y-97653205D01*
X178520637Y-97665056D01*
X178484460Y-97675720D01*
X178437780Y-97686111D01*
X178377641Y-97697146D01*
X178301090Y-97709738D01*
X178205171Y-97724804D01*
X178186808Y-97727838D01*
X178124478Y-97741458D01*
X178079260Y-97757192D01*
X178052976Y-97774263D01*
X178047447Y-97791897D01*
X178050068Y-97796168D01*
X178068000Y-97811233D01*
X178096126Y-97827867D01*
X178108926Y-97833857D01*
X178130224Y-97841050D01*
X178156610Y-97845827D01*
X178192454Y-97848646D01*
X178242128Y-97849964D01*
X178310000Y-97850237D01*
X178327785Y-97850164D01*
X178395406Y-97849053D01*
X178460345Y-97846828D01*
X178515970Y-97843762D01*
X178555651Y-97840127D01*
X178591162Y-97836059D01*
X178620415Y-97835276D01*
X178639315Y-97839876D01*
X178654429Y-97850551D01*
X178658085Y-97854144D01*
X178674427Y-97885918D01*
X178673107Y-97921572D01*
X178654150Y-97952190D01*
X178633780Y-97963796D01*
X178597796Y-97976491D01*
X178555372Y-97986541D01*
X178551922Y-97987140D01*
X178509252Y-97992356D01*
X178451866Y-97996730D01*
X178386849Y-97999818D01*
X178321289Y-98001177D01*
X178305057Y-98001218D01*
X178206744Y-97998741D01*
X178126692Y-97990735D01*
X178061513Y-97976203D01*
X178007817Y-97954149D01*
X177962216Y-97923576D01*
X177921323Y-97883486D01*
X177901202Y-97857259D01*
X177889576Y-97827712D01*
X177886667Y-97787995D01*
X177886808Y-97776026D01*
X177890681Y-97743345D01*
X177903065Y-97716819D01*
X177928230Y-97685971D01*
X177949442Y-97663831D01*
X177975838Y-97641285D01*
X178005555Y-97622917D01*
X178041785Y-97607661D01*
X178087717Y-97594449D01*
X178146544Y-97582214D01*
X178221456Y-97569889D01*
X178315645Y-97556406D01*
X178360957Y-97549396D01*
X178428911Y-97534837D01*
X178478047Y-97518337D01*
X178507614Y-97500439D01*
X178516864Y-97481685D01*
X178505048Y-97462615D01*
X178471416Y-97443771D01*
X178468370Y-97442557D01*
X178422011Y-97430479D01*
X178359361Y-97422279D01*
X178285927Y-97418119D01*
X178207217Y-97418161D01*
X178128739Y-97422569D01*
X178056000Y-97431505D01*
X178052073Y-97432154D01*
X178003257Y-97439861D01*
X177971005Y-97443473D01*
X177950008Y-97442876D01*
X177934954Y-97437954D01*
X177920534Y-97428596D01*
X177919364Y-97427725D01*
X177894847Y-97397351D01*
X177890054Y-97361850D01*
X177905860Y-97327269D01*
X177910406Y-97322813D01*
X177940020Y-97307673D01*
X177987002Y-97294550D01*
X178047306Y-97283750D01*
X178116888Y-97275581D01*
X178191703Y-97270351D01*
X178267706Y-97268367D01*
X178340853Y-97269936D01*
G36*
X178340853Y-97269936D02*
G01*
X178407100Y-97275366D01*
X178462400Y-97284964D01*
X178513283Y-97299825D01*
X178584595Y-97332958D01*
X178635752Y-97375640D01*
X178666575Y-97427705D01*
X178676889Y-97488983D01*
X178675952Y-97520232D01*
X178670160Y-97545029D01*
X178655353Y-97566699D01*
X178627380Y-97594049D01*
X178619402Y-97601378D01*
X178595692Y-97622281D01*
X178573298Y-97639251D01*
X178549265Y-97653205D01*
X178520637Y-97665056D01*
X178484460Y-97675720D01*
X178437780Y-97686111D01*
X178377641Y-97697146D01*
X178301090Y-97709738D01*
X178205171Y-97724804D01*
X178186808Y-97727838D01*
X178124478Y-97741458D01*
X178079260Y-97757192D01*
X178052976Y-97774263D01*
X178047447Y-97791897D01*
X178050068Y-97796168D01*
X178068000Y-97811233D01*
X178096126Y-97827867D01*
X178108926Y-97833857D01*
X178130224Y-97841050D01*
X178156610Y-97845827D01*
X178192454Y-97848646D01*
X178242128Y-97849964D01*
X178310000Y-97850237D01*
X178327785Y-97850164D01*
X178395406Y-97849053D01*
X178460345Y-97846828D01*
X178515970Y-97843762D01*
X178555651Y-97840127D01*
X178591162Y-97836059D01*
X178620415Y-97835276D01*
X178639315Y-97839876D01*
X178654429Y-97850551D01*
X178658085Y-97854144D01*
X178674427Y-97885918D01*
X178673107Y-97921572D01*
X178654150Y-97952190D01*
X178633780Y-97963796D01*
X178597796Y-97976491D01*
X178555372Y-97986541D01*
X178551922Y-97987140D01*
X178509252Y-97992356D01*
X178451866Y-97996730D01*
X178386849Y-97999818D01*
X178321289Y-98001177D01*
X178305057Y-98001218D01*
X178206744Y-97998741D01*
X178126692Y-97990735D01*
X178061513Y-97976203D01*
X178007817Y-97954149D01*
X177962216Y-97923576D01*
X177921323Y-97883486D01*
X177901202Y-97857259D01*
X177889576Y-97827712D01*
X177886667Y-97787995D01*
X177886808Y-97776026D01*
X177890681Y-97743345D01*
X177903065Y-97716819D01*
X177928230Y-97685971D01*
X177949442Y-97663831D01*
X177975838Y-97641285D01*
X178005555Y-97622917D01*
X178041785Y-97607661D01*
X178087717Y-97594449D01*
X178146544Y-97582214D01*
X178221456Y-97569889D01*
X178315645Y-97556406D01*
X178360957Y-97549396D01*
X178428911Y-97534837D01*
X178478047Y-97518337D01*
X178507614Y-97500439D01*
X178516864Y-97481685D01*
X178505048Y-97462615D01*
X178471416Y-97443771D01*
X178468370Y-97442557D01*
X178422011Y-97430479D01*
X178359361Y-97422279D01*
X178285927Y-97418119D01*
X178207217Y-97418161D01*
X178128739Y-97422569D01*
X178056000Y-97431505D01*
X178052073Y-97432154D01*
X178003257Y-97439861D01*
X177971005Y-97443473D01*
X177950008Y-97442876D01*
X177934954Y-97437954D01*
X177920534Y-97428596D01*
X177919364Y-97427725D01*
X177894847Y-97397351D01*
X177890054Y-97361850D01*
X177905860Y-97327269D01*
X177910406Y-97322813D01*
X177940020Y-97307673D01*
X177987002Y-97294550D01*
X178047306Y-97283750D01*
X178116888Y-97275581D01*
X178191703Y-97270351D01*
X178267706Y-97268367D01*
X178340853Y-97269936D01*
G37*
X174488711Y-92962033D02*
X174584268Y-92979523D01*
X174748558Y-93024564D01*
X174902589Y-93087656D01*
X175048509Y-93169915D01*
X175188466Y-93272457D01*
X175324608Y-93396399D01*
X175368473Y-93441661D01*
X175480758Y-93573865D01*
X175573972Y-93711832D01*
X175650719Y-93859750D01*
X175713603Y-94021803D01*
X175717420Y-94033391D01*
X175767507Y-94219392D01*
X175800899Y-94415521D01*
X175817584Y-94617568D01*
X175817551Y-94821325D01*
X175800791Y-95022581D01*
X175767292Y-95217128D01*
X175717044Y-95400756D01*
X175673190Y-95518053D01*
X175595348Y-95680951D01*
X175501828Y-95834866D01*
X175394822Y-95976671D01*
X175276519Y-96103239D01*
X175149111Y-96211441D01*
X175071606Y-96264120D01*
X174944725Y-96333750D01*
X174807243Y-96392468D01*
X174665716Y-96437587D01*
X174526702Y-96466422D01*
X174512597Y-96468106D01*
X174469153Y-96471434D01*
X174411723Y-96474275D01*
X174346122Y-96476373D01*
X174278167Y-96477468D01*
X174151378Y-96475140D01*
X174003673Y-96462136D01*
X173865779Y-96437133D01*
X173732014Y-96399318D01*
X173708562Y-96390889D01*
X173660612Y-96371408D01*
X173604140Y-96346473D01*
X173542379Y-96317722D01*
X173478563Y-96286790D01*
X173415926Y-96255315D01*
X173357703Y-96224934D01*
X173307127Y-96197283D01*
X173267433Y-96173999D01*
X173241854Y-96156718D01*
X173233625Y-96147079D01*
X173235076Y-96143984D01*
X173246250Y-96124079D01*
X173267134Y-96088420D01*
X173296265Y-96039459D01*
X173332181Y-95979646D01*
X173373420Y-95911433D01*
X173418517Y-95837271D01*
X173599785Y-95540008D01*
X173646315Y-95584539D01*
X173737723Y-95662865D01*
X173851334Y-95737439D01*
X173969122Y-95791474D01*
X174089559Y-95824290D01*
X174211117Y-95835211D01*
X174252585Y-95833868D01*
X174370080Y-95815612D01*
X174480089Y-95776617D01*
X174581430Y-95717670D01*
X174672921Y-95639557D01*
X174753380Y-95543064D01*
X174821627Y-95428978D01*
X174837908Y-95394724D01*
X174883982Y-95271240D01*
X174919106Y-95132918D01*
X174943197Y-94983561D01*
X174956173Y-94826973D01*
X174957949Y-94666956D01*
X174948443Y-94507314D01*
X174927572Y-94351850D01*
X174895252Y-94204366D01*
X174851399Y-94068667D01*
X174813982Y-93982076D01*
X174749185Y-93868688D01*
X174673772Y-93775070D01*
X174587418Y-93700959D01*
X174489795Y-93646094D01*
X174380577Y-93610212D01*
X174259439Y-93593051D01*
X174190038Y-93591880D01*
X174067168Y-93606141D01*
X173951664Y-93641241D01*
X173844953Y-93696682D01*
X173748464Y-93771964D01*
X173732720Y-93786440D01*
X173702150Y-93812962D01*
X173679809Y-93830138D01*
X173669691Y-93834787D01*
X173667706Y-93832597D01*
X173653241Y-93813721D01*
X173629400Y-93780397D01*
X173598029Y-93735380D01*
X173560974Y-93681425D01*
X173520083Y-93621285D01*
X173477202Y-93557718D01*
X173434178Y-93493476D01*
X173392857Y-93431315D01*
X173355086Y-93373991D01*
X173322712Y-93324257D01*
X173297582Y-93284868D01*
X173281542Y-93258580D01*
X173276439Y-93248147D01*
X173281050Y-93243941D01*
X173300267Y-93238933D01*
X173309838Y-93236386D01*
X173337809Y-93225249D01*
X173379448Y-93206802D01*
X173430995Y-93182725D01*
X173488690Y-93154699D01*
X173499957Y-93149154D01*
X173677687Y-93069889D01*
X173847490Y-93010385D01*
X174011430Y-92970245D01*
X174171571Y-92949071D01*
X174329977Y-92946466D01*
X174488711Y-92962033D01*
G36*
X174488711Y-92962033D02*
G01*
X174584268Y-92979523D01*
X174748558Y-93024564D01*
X174902589Y-93087656D01*
X175048509Y-93169915D01*
X175188466Y-93272457D01*
X175324608Y-93396399D01*
X175368473Y-93441661D01*
X175480758Y-93573865D01*
X175573972Y-93711832D01*
X175650719Y-93859750D01*
X175713603Y-94021803D01*
X175717420Y-94033391D01*
X175767507Y-94219392D01*
X175800899Y-94415521D01*
X175817584Y-94617568D01*
X175817551Y-94821325D01*
X175800791Y-95022581D01*
X175767292Y-95217128D01*
X175717044Y-95400756D01*
X175673190Y-95518053D01*
X175595348Y-95680951D01*
X175501828Y-95834866D01*
X175394822Y-95976671D01*
X175276519Y-96103239D01*
X175149111Y-96211441D01*
X175071606Y-96264120D01*
X174944725Y-96333750D01*
X174807243Y-96392468D01*
X174665716Y-96437587D01*
X174526702Y-96466422D01*
X174512597Y-96468106D01*
X174469153Y-96471434D01*
X174411723Y-96474275D01*
X174346122Y-96476373D01*
X174278167Y-96477468D01*
X174151378Y-96475140D01*
X174003673Y-96462136D01*
X173865779Y-96437133D01*
X173732014Y-96399318D01*
X173708562Y-96390889D01*
X173660612Y-96371408D01*
X173604140Y-96346473D01*
X173542379Y-96317722D01*
X173478563Y-96286790D01*
X173415926Y-96255315D01*
X173357703Y-96224934D01*
X173307127Y-96197283D01*
X173267433Y-96173999D01*
X173241854Y-96156718D01*
X173233625Y-96147079D01*
X173235076Y-96143984D01*
X173246250Y-96124079D01*
X173267134Y-96088420D01*
X173296265Y-96039459D01*
X173332181Y-95979646D01*
X173373420Y-95911433D01*
X173418517Y-95837271D01*
X173599785Y-95540008D01*
X173646315Y-95584539D01*
X173737723Y-95662865D01*
X173851334Y-95737439D01*
X173969122Y-95791474D01*
X174089559Y-95824290D01*
X174211117Y-95835211D01*
X174252585Y-95833868D01*
X174370080Y-95815612D01*
X174480089Y-95776617D01*
X174581430Y-95717670D01*
X174672921Y-95639557D01*
X174753380Y-95543064D01*
X174821627Y-95428978D01*
X174837908Y-95394724D01*
X174883982Y-95271240D01*
X174919106Y-95132918D01*
X174943197Y-94983561D01*
X174956173Y-94826973D01*
X174957949Y-94666956D01*
X174948443Y-94507314D01*
X174927572Y-94351850D01*
X174895252Y-94204366D01*
X174851399Y-94068667D01*
X174813982Y-93982076D01*
X174749185Y-93868688D01*
X174673772Y-93775070D01*
X174587418Y-93700959D01*
X174489795Y-93646094D01*
X174380577Y-93610212D01*
X174259439Y-93593051D01*
X174190038Y-93591880D01*
X174067168Y-93606141D01*
X173951664Y-93641241D01*
X173844953Y-93696682D01*
X173748464Y-93771964D01*
X173732720Y-93786440D01*
X173702150Y-93812962D01*
X173679809Y-93830138D01*
X173669691Y-93834787D01*
X173667706Y-93832597D01*
X173653241Y-93813721D01*
X173629400Y-93780397D01*
X173598029Y-93735380D01*
X173560974Y-93681425D01*
X173520083Y-93621285D01*
X173477202Y-93557718D01*
X173434178Y-93493476D01*
X173392857Y-93431315D01*
X173355086Y-93373991D01*
X173322712Y-93324257D01*
X173297582Y-93284868D01*
X173281542Y-93258580D01*
X173276439Y-93248147D01*
X173281050Y-93243941D01*
X173300267Y-93238933D01*
X173309838Y-93236386D01*
X173337809Y-93225249D01*
X173379448Y-93206802D01*
X173430995Y-93182725D01*
X173488690Y-93154699D01*
X173499957Y-93149154D01*
X173677687Y-93069889D01*
X173847490Y-93010385D01*
X174011430Y-92970245D01*
X174171571Y-92949071D01*
X174329977Y-92946466D01*
X174488711Y-92962033D01*
G37*
X170685994Y-95242711D02*
X170685268Y-95320158D01*
X170676689Y-95471594D01*
X170657833Y-95608283D01*
X170627837Y-95734276D01*
X170585836Y-95853625D01*
X170530969Y-95970381D01*
X170464167Y-96081179D01*
X170373363Y-96194739D01*
X170269708Y-96290211D01*
X170153887Y-96367073D01*
X170026586Y-96424797D01*
X169888489Y-96462858D01*
X169850793Y-96468666D01*
X169771752Y-96474396D01*
X169683629Y-96474583D01*
X169594236Y-96469539D01*
X169511384Y-96459578D01*
X169442887Y-96445012D01*
X169412035Y-96435364D01*
X169334730Y-96405123D01*
X169257679Y-96367617D01*
X169188200Y-96326614D01*
X169133615Y-96285879D01*
X169110916Y-96266505D01*
X169088201Y-96248662D01*
X169076779Y-96241778D01*
X169075537Y-96243424D01*
X169072728Y-96261205D01*
X169070776Y-96294370D01*
X169070045Y-96337733D01*
X169070045Y-96433689D01*
X168211896Y-96433689D01*
X168246161Y-96372974D01*
X168251355Y-96363868D01*
X168259715Y-96349249D01*
X168267288Y-96335173D01*
X168274112Y-96320540D01*
X168280227Y-96304249D01*
X168285673Y-96285198D01*
X168290487Y-96262286D01*
X168294708Y-96234413D01*
X168298377Y-96200478D01*
X168301531Y-96159379D01*
X168304211Y-96110015D01*
X168306454Y-96051286D01*
X168308299Y-95982090D01*
X168309787Y-95901326D01*
X168310955Y-95807894D01*
X168311844Y-95700692D01*
X168312491Y-95578620D01*
X168312936Y-95440576D01*
X168313218Y-95285459D01*
X168313375Y-95112168D01*
X168313448Y-94919603D01*
X168313474Y-94706662D01*
X168313485Y-94570530D01*
X169115200Y-94570530D01*
X169115200Y-95720721D01*
X169185756Y-95767089D01*
X169226417Y-95790791D01*
X169280546Y-95816639D01*
X169329689Y-95834829D01*
X169393165Y-95850551D01*
X169489331Y-95861541D01*
X169573900Y-95853365D01*
X169647219Y-95825805D01*
X169709637Y-95778642D01*
X169761502Y-95711658D01*
X169803160Y-95624633D01*
X169834962Y-95517350D01*
X169837545Y-95505009D01*
X169846000Y-95443772D01*
X169851663Y-95366692D01*
X169854576Y-95279002D01*
X169854783Y-95185934D01*
X169852330Y-95092720D01*
X169847261Y-95004594D01*
X169839619Y-94926788D01*
X169829448Y-94864533D01*
X169828167Y-94858666D01*
X169799126Y-94748121D01*
X169764610Y-94657575D01*
X169723456Y-94584953D01*
X169674499Y-94528181D01*
X169616574Y-94485184D01*
X169584620Y-94469615D01*
X169511784Y-94450722D01*
X169430443Y-94447465D01*
X169345319Y-94459389D01*
X169261133Y-94486040D01*
X169182608Y-94526962D01*
X169115200Y-94570530D01*
X168313485Y-94570530D01*
X168313493Y-94472245D01*
X168313689Y-92787378D01*
X169219017Y-92787378D01*
X169194585Y-92824067D01*
X169188318Y-92833647D01*
X169162208Y-92879981D01*
X169144469Y-92927102D01*
X169132908Y-92982251D01*
X169125331Y-93052667D01*
X169124839Y-93059650D01*
X169123062Y-93097641D01*
X169121444Y-93151576D01*
X169119999Y-93218703D01*
X169118740Y-93296271D01*
X169117680Y-93381528D01*
X169116829Y-93471724D01*
X169116203Y-93564107D01*
X169115812Y-93655925D01*
X169115670Y-93744427D01*
X169115790Y-93826862D01*
X169116183Y-93900479D01*
X169116862Y-93962526D01*
X169117841Y-94010251D01*
X169119132Y-94040904D01*
X169120747Y-94051733D01*
X169128957Y-94047333D01*
X169150647Y-94032362D01*
X169180014Y-94010448D01*
X169228879Y-93976236D01*
X169317125Y-93929714D01*
X169415916Y-93896046D01*
X169528510Y-93874231D01*
X169658164Y-93863265D01*
X169750670Y-93862219D01*
X169872011Y-93872014D01*
X169982099Y-93896174D01*
X170085389Y-93935785D01*
X170186338Y-93991932D01*
X170231503Y-94022883D01*
X170336911Y-94114115D01*
X170428538Y-94223106D01*
X170506332Y-94349726D01*
X170570241Y-94493845D01*
X170620214Y-94655332D01*
X170656198Y-94834059D01*
X170678143Y-95029895D01*
X170683900Y-95185934D01*
X170685994Y-95242711D01*
G36*
X170685994Y-95242711D02*
G01*
X170685268Y-95320158D01*
X170676689Y-95471594D01*
X170657833Y-95608283D01*
X170627837Y-95734276D01*
X170585836Y-95853625D01*
X170530969Y-95970381D01*
X170464167Y-96081179D01*
X170373363Y-96194739D01*
X170269708Y-96290211D01*
X170153887Y-96367073D01*
X170026586Y-96424797D01*
X169888489Y-96462858D01*
X169850793Y-96468666D01*
X169771752Y-96474396D01*
X169683629Y-96474583D01*
X169594236Y-96469539D01*
X169511384Y-96459578D01*
X169442887Y-96445012D01*
X169412035Y-96435364D01*
X169334730Y-96405123D01*
X169257679Y-96367617D01*
X169188200Y-96326614D01*
X169133615Y-96285879D01*
X169110916Y-96266505D01*
X169088201Y-96248662D01*
X169076779Y-96241778D01*
X169075537Y-96243424D01*
X169072728Y-96261205D01*
X169070776Y-96294370D01*
X169070045Y-96337733D01*
X169070045Y-96433689D01*
X168211896Y-96433689D01*
X168246161Y-96372974D01*
X168251355Y-96363868D01*
X168259715Y-96349249D01*
X168267288Y-96335173D01*
X168274112Y-96320540D01*
X168280227Y-96304249D01*
X168285673Y-96285198D01*
X168290487Y-96262286D01*
X168294708Y-96234413D01*
X168298377Y-96200478D01*
X168301531Y-96159379D01*
X168304211Y-96110015D01*
X168306454Y-96051286D01*
X168308299Y-95982090D01*
X168309787Y-95901326D01*
X168310955Y-95807894D01*
X168311844Y-95700692D01*
X168312491Y-95578620D01*
X168312936Y-95440576D01*
X168313218Y-95285459D01*
X168313375Y-95112168D01*
X168313448Y-94919603D01*
X168313474Y-94706662D01*
X168313485Y-94570530D01*
X169115200Y-94570530D01*
X169115200Y-95720721D01*
X169185756Y-95767089D01*
X169226417Y-95790791D01*
X169280546Y-95816639D01*
X169329689Y-95834829D01*
X169393165Y-95850551D01*
X169489331Y-95861541D01*
X169573900Y-95853365D01*
X169647219Y-95825805D01*
X169709637Y-95778642D01*
X169761502Y-95711658D01*
X169803160Y-95624633D01*
X169834962Y-95517350D01*
X169837545Y-95505009D01*
X169846000Y-95443772D01*
X169851663Y-95366692D01*
X169854576Y-95279002D01*
X169854783Y-95185934D01*
X169852330Y-95092720D01*
X169847261Y-95004594D01*
X169839619Y-94926788D01*
X169829448Y-94864533D01*
X169828167Y-94858666D01*
X169799126Y-94748121D01*
X169764610Y-94657575D01*
X169723456Y-94584953D01*
X169674499Y-94528181D01*
X169616574Y-94485184D01*
X169584620Y-94469615D01*
X169511784Y-94450722D01*
X169430443Y-94447465D01*
X169345319Y-94459389D01*
X169261133Y-94486040D01*
X169182608Y-94526962D01*
X169115200Y-94570530D01*
X168313485Y-94570530D01*
X168313493Y-94472245D01*
X168313689Y-92787378D01*
X169219017Y-92787378D01*
X169194585Y-92824067D01*
X169188318Y-92833647D01*
X169162208Y-92879981D01*
X169144469Y-92927102D01*
X169132908Y-92982251D01*
X169125331Y-93052667D01*
X169124839Y-93059650D01*
X169123062Y-93097641D01*
X169121444Y-93151576D01*
X169119999Y-93218703D01*
X169118740Y-93296271D01*
X169117680Y-93381528D01*
X169116829Y-93471724D01*
X169116203Y-93564107D01*
X169115812Y-93655925D01*
X169115670Y-93744427D01*
X169115790Y-93826862D01*
X169116183Y-93900479D01*
X169116862Y-93962526D01*
X169117841Y-94010251D01*
X169119132Y-94040904D01*
X169120747Y-94051733D01*
X169128957Y-94047333D01*
X169150647Y-94032362D01*
X169180014Y-94010448D01*
X169228879Y-93976236D01*
X169317125Y-93929714D01*
X169415916Y-93896046D01*
X169528510Y-93874231D01*
X169658164Y-93863265D01*
X169750670Y-93862219D01*
X169872011Y-93872014D01*
X169982099Y-93896174D01*
X170085389Y-93935785D01*
X170186338Y-93991932D01*
X170231503Y-94022883D01*
X170336911Y-94114115D01*
X170428538Y-94223106D01*
X170506332Y-94349726D01*
X170570241Y-94493845D01*
X170620214Y-94655332D01*
X170656198Y-94834059D01*
X170678143Y-95029895D01*
X170683900Y-95185934D01*
X170685994Y-95242711D01*
G37*
X173227755Y-95643467D02*
X173227261Y-95677363D01*
X173223632Y-95752202D01*
X173216022Y-95814401D01*
X173203688Y-95870984D01*
X173159313Y-95997076D01*
X173096400Y-96111679D01*
X173016238Y-96212568D01*
X172919740Y-96298924D01*
X172807822Y-96369932D01*
X172681397Y-96424776D01*
X172541378Y-96462638D01*
X172505149Y-96468351D01*
X172426155Y-96474313D01*
X172337841Y-96474646D01*
X172248075Y-96469659D01*
X172164722Y-96459666D01*
X172095651Y-96444978D01*
X172009187Y-96414749D01*
X171899286Y-96360057D01*
X171801956Y-96292543D01*
X171739867Y-96241556D01*
X171736605Y-96337622D01*
X171733343Y-96433689D01*
X171310450Y-96433689D01*
X171299543Y-96433686D01*
X171205056Y-96433380D01*
X171118331Y-96432616D01*
X171041837Y-96431451D01*
X170978043Y-96429942D01*
X170929418Y-96428147D01*
X170898433Y-96426121D01*
X170887556Y-96423922D01*
X170887578Y-96423463D01*
X170894614Y-96407910D01*
X170910434Y-96385071D01*
X170914734Y-96379638D01*
X170925777Y-96365606D01*
X170935311Y-96352186D01*
X170943461Y-96337722D01*
X170950352Y-96320556D01*
X170956111Y-96299034D01*
X170960862Y-96271498D01*
X170964731Y-96236292D01*
X170967844Y-96191760D01*
X170970325Y-96136246D01*
X170972300Y-96068093D01*
X170973894Y-95985645D01*
X170975234Y-95887246D01*
X170976444Y-95771239D01*
X170977649Y-95635968D01*
X170978595Y-95524586D01*
X171779378Y-95524586D01*
X171779378Y-95720462D01*
X171824048Y-95776973D01*
X171836785Y-95792212D01*
X171883604Y-95834844D01*
X171944255Y-95870672D01*
X171954897Y-95875850D01*
X171993676Y-95892745D01*
X172028692Y-95902909D01*
X172068722Y-95908325D01*
X172122541Y-95910978D01*
X172140648Y-95911383D01*
X172216011Y-95908540D01*
X172276743Y-95896620D01*
X172328452Y-95874037D01*
X172376746Y-95839211D01*
X172381803Y-95834798D01*
X172430272Y-95779160D01*
X172458459Y-95715333D01*
X172467752Y-95640282D01*
X172460520Y-95568693D01*
X172435796Y-95505645D01*
X172391249Y-95447758D01*
X172336319Y-95400808D01*
X172263894Y-95360961D01*
X172177340Y-95333263D01*
X172074670Y-95317096D01*
X171953894Y-95311842D01*
X171945007Y-95311857D01*
X171889660Y-95312655D01*
X171842736Y-95314488D01*
X171808953Y-95317111D01*
X171793028Y-95320274D01*
X171788943Y-95326741D01*
X171784572Y-95348875D01*
X171781604Y-95387988D01*
X171779914Y-95445939D01*
X171779378Y-95524586D01*
X170978595Y-95524586D01*
X170978975Y-95479778D01*
X170980228Y-95337012D01*
X170981651Y-95191942D01*
X170983176Y-95066027D01*
X170984933Y-94957436D01*
X170987051Y-94864334D01*
X170989660Y-94784891D01*
X170992890Y-94717273D01*
X170996869Y-94659649D01*
X171001728Y-94610185D01*
X171007597Y-94567050D01*
X171014604Y-94528410D01*
X171022880Y-94492434D01*
X171032554Y-94457289D01*
X171043756Y-94421142D01*
X171056616Y-94382161D01*
X171072090Y-94339091D01*
X171114994Y-94246871D01*
X171168735Y-94167099D01*
X171237576Y-94092965D01*
X171315185Y-94029405D01*
X171419761Y-93967725D01*
X171539244Y-93920202D01*
X171674508Y-93886567D01*
X171826426Y-93866552D01*
X171995872Y-93859889D01*
X172053890Y-93860287D01*
X172119398Y-93862335D01*
X172180693Y-93866704D01*
X172242097Y-93874035D01*
X172307932Y-93884969D01*
X172382520Y-93900147D01*
X172470184Y-93920209D01*
X172575245Y-93945797D01*
X172603806Y-93952820D01*
X172679054Y-93970776D01*
X172749388Y-93986820D01*
X172810567Y-94000028D01*
X172858354Y-94009474D01*
X172888511Y-94014231D01*
X172916783Y-94017910D01*
X172943060Y-94023187D01*
X172953059Y-94027942D01*
X172949952Y-94036781D01*
X172939194Y-94064072D01*
X172921864Y-94106906D01*
X172899126Y-94162425D01*
X172872147Y-94227772D01*
X172842090Y-94300089D01*
X172835493Y-94315879D01*
X172796907Y-94406484D01*
X172765768Y-94476217D01*
X172741917Y-94525405D01*
X172725198Y-94554374D01*
X172715454Y-94563452D01*
X172707766Y-94561405D01*
X172681415Y-94551760D01*
X172642982Y-94536190D01*
X172597822Y-94516815D01*
X172503293Y-94478814D01*
X172366480Y-94437780D01*
X172225289Y-94412612D01*
X172187314Y-94408611D01*
X172084059Y-94406447D01*
X171996952Y-94419622D01*
X171925129Y-94448756D01*
X171867731Y-94494466D01*
X171823896Y-94557372D01*
X171792762Y-94638092D01*
X171773470Y-94737245D01*
X171766050Y-94796224D01*
X171927936Y-94789445D01*
X172054495Y-94787813D01*
X172205951Y-94794194D01*
X172354396Y-94808777D01*
X172490578Y-94830882D01*
X172555245Y-94845821D01*
X172687490Y-94888741D01*
X172809762Y-94945340D01*
X172919685Y-95014017D01*
X173014883Y-95093170D01*
X173092980Y-95181196D01*
X173151599Y-95276493D01*
X173175595Y-95328864D01*
X173201232Y-95399590D01*
X173217478Y-95470812D01*
X173225822Y-95549712D01*
X173227690Y-95640282D01*
X173227755Y-95643467D01*
G36*
X173227755Y-95643467D02*
G01*
X173227261Y-95677363D01*
X173223632Y-95752202D01*
X173216022Y-95814401D01*
X173203688Y-95870984D01*
X173159313Y-95997076D01*
X173096400Y-96111679D01*
X173016238Y-96212568D01*
X172919740Y-96298924D01*
X172807822Y-96369932D01*
X172681397Y-96424776D01*
X172541378Y-96462638D01*
X172505149Y-96468351D01*
X172426155Y-96474313D01*
X172337841Y-96474646D01*
X172248075Y-96469659D01*
X172164722Y-96459666D01*
X172095651Y-96444978D01*
X172009187Y-96414749D01*
X171899286Y-96360057D01*
X171801956Y-96292543D01*
X171739867Y-96241556D01*
X171736605Y-96337622D01*
X171733343Y-96433689D01*
X171310450Y-96433689D01*
X171299543Y-96433686D01*
X171205056Y-96433380D01*
X171118331Y-96432616D01*
X171041837Y-96431451D01*
X170978043Y-96429942D01*
X170929418Y-96428147D01*
X170898433Y-96426121D01*
X170887556Y-96423922D01*
X170887578Y-96423463D01*
X170894614Y-96407910D01*
X170910434Y-96385071D01*
X170914734Y-96379638D01*
X170925777Y-96365606D01*
X170935311Y-96352186D01*
X170943461Y-96337722D01*
X170950352Y-96320556D01*
X170956111Y-96299034D01*
X170960862Y-96271498D01*
X170964731Y-96236292D01*
X170967844Y-96191760D01*
X170970325Y-96136246D01*
X170972300Y-96068093D01*
X170973894Y-95985645D01*
X170975234Y-95887246D01*
X170976444Y-95771239D01*
X170977649Y-95635968D01*
X170978595Y-95524586D01*
X171779378Y-95524586D01*
X171779378Y-95720462D01*
X171824048Y-95776973D01*
X171836785Y-95792212D01*
X171883604Y-95834844D01*
X171944255Y-95870672D01*
X171954897Y-95875850D01*
X171993676Y-95892745D01*
X172028692Y-95902909D01*
X172068722Y-95908325D01*
X172122541Y-95910978D01*
X172140648Y-95911383D01*
X172216011Y-95908540D01*
X172276743Y-95896620D01*
X172328452Y-95874037D01*
X172376746Y-95839211D01*
X172381803Y-95834798D01*
X172430272Y-95779160D01*
X172458459Y-95715333D01*
X172467752Y-95640282D01*
X172460520Y-95568693D01*
X172435796Y-95505645D01*
X172391249Y-95447758D01*
X172336319Y-95400808D01*
X172263894Y-95360961D01*
X172177340Y-95333263D01*
X172074670Y-95317096D01*
X171953894Y-95311842D01*
X171945007Y-95311857D01*
X171889660Y-95312655D01*
X171842736Y-95314488D01*
X171808953Y-95317111D01*
X171793028Y-95320274D01*
X171788943Y-95326741D01*
X171784572Y-95348875D01*
X171781604Y-95387988D01*
X171779914Y-95445939D01*
X171779378Y-95524586D01*
X170978595Y-95524586D01*
X170978975Y-95479778D01*
X170980228Y-95337012D01*
X170981651Y-95191942D01*
X170983176Y-95066027D01*
X170984933Y-94957436D01*
X170987051Y-94864334D01*
X170989660Y-94784891D01*
X170992890Y-94717273D01*
X170996869Y-94659649D01*
X171001728Y-94610185D01*
X171007597Y-94567050D01*
X171014604Y-94528410D01*
X171022880Y-94492434D01*
X171032554Y-94457289D01*
X171043756Y-94421142D01*
X171056616Y-94382161D01*
X171072090Y-94339091D01*
X171114994Y-94246871D01*
X171168735Y-94167099D01*
X171237576Y-94092965D01*
X171315185Y-94029405D01*
X171419761Y-93967725D01*
X171539244Y-93920202D01*
X171674508Y-93886567D01*
X171826426Y-93866552D01*
X171995872Y-93859889D01*
X172053890Y-93860287D01*
X172119398Y-93862335D01*
X172180693Y-93866704D01*
X172242097Y-93874035D01*
X172307932Y-93884969D01*
X172382520Y-93900147D01*
X172470184Y-93920209D01*
X172575245Y-93945797D01*
X172603806Y-93952820D01*
X172679054Y-93970776D01*
X172749388Y-93986820D01*
X172810567Y-94000028D01*
X172858354Y-94009474D01*
X172888511Y-94014231D01*
X172916783Y-94017910D01*
X172943060Y-94023187D01*
X172953059Y-94027942D01*
X172949952Y-94036781D01*
X172939194Y-94064072D01*
X172921864Y-94106906D01*
X172899126Y-94162425D01*
X172872147Y-94227772D01*
X172842090Y-94300089D01*
X172835493Y-94315879D01*
X172796907Y-94406484D01*
X172765768Y-94476217D01*
X172741917Y-94525405D01*
X172725198Y-94554374D01*
X172715454Y-94563452D01*
X172707766Y-94561405D01*
X172681415Y-94551760D01*
X172642982Y-94536190D01*
X172597822Y-94516815D01*
X172503293Y-94478814D01*
X172366480Y-94437780D01*
X172225289Y-94412612D01*
X172187314Y-94408611D01*
X172084059Y-94406447D01*
X171996952Y-94419622D01*
X171925129Y-94448756D01*
X171867731Y-94494466D01*
X171823896Y-94557372D01*
X171792762Y-94638092D01*
X171773470Y-94737245D01*
X171766050Y-94796224D01*
X171927936Y-94789445D01*
X172054495Y-94787813D01*
X172205951Y-94794194D01*
X172354396Y-94808777D01*
X172490578Y-94830882D01*
X172555245Y-94845821D01*
X172687490Y-94888741D01*
X172809762Y-94945340D01*
X172919685Y-95014017D01*
X173014883Y-95093170D01*
X173092980Y-95181196D01*
X173151599Y-95276493D01*
X173175595Y-95328864D01*
X173201232Y-95399590D01*
X173217478Y-95470812D01*
X173225822Y-95549712D01*
X173227690Y-95640282D01*
X173227755Y-95643467D01*
G37*
X180775614Y-93111792D02*
X180776059Y-93243011D01*
X180776362Y-93390216D01*
X180776548Y-93554349D01*
X180776642Y-93736352D01*
X180776671Y-93937165D01*
X180776661Y-94157732D01*
X180776636Y-94398992D01*
X180776622Y-94661889D01*
X180776622Y-94704040D01*
X180776646Y-94964668D01*
X180776685Y-95203796D01*
X180776708Y-95422360D01*
X180776687Y-95621295D01*
X180776593Y-95801535D01*
X180776395Y-95964015D01*
X180776063Y-96109670D01*
X180775569Y-96239434D01*
X180774883Y-96354243D01*
X180773976Y-96455030D01*
X180772817Y-96542730D01*
X180771378Y-96618279D01*
X180769629Y-96682611D01*
X180767540Y-96736661D01*
X180765083Y-96781363D01*
X180762227Y-96817652D01*
X180758943Y-96846463D01*
X180755202Y-96868731D01*
X180750974Y-96885390D01*
X180746229Y-96897375D01*
X180740939Y-96905621D01*
X180735073Y-96911062D01*
X180728602Y-96914634D01*
X180721497Y-96917270D01*
X180713728Y-96919906D01*
X180705266Y-96923477D01*
X180700908Y-96925145D01*
X180692395Y-96927111D01*
X180679694Y-96928911D01*
X180661885Y-96930555D01*
X180638049Y-96932047D01*
X180607266Y-96933397D01*
X180568617Y-96934611D01*
X180521182Y-96935697D01*
X180464043Y-96936661D01*
X180396279Y-96937511D01*
X180316971Y-96938253D01*
X180225199Y-96938897D01*
X180120044Y-96939447D01*
X180000587Y-96939913D01*
X179865908Y-96940300D01*
X179715088Y-96940616D01*
X179547206Y-96940869D01*
X179361345Y-96941066D01*
X179156583Y-96941213D01*
X178932002Y-96941318D01*
X178686682Y-96941389D01*
X178419704Y-96941432D01*
X178381321Y-96941437D01*
X178115922Y-96941480D01*
X177872050Y-96941525D01*
X177648783Y-96941548D01*
X177445196Y-96941524D01*
X177260367Y-96941430D01*
X177093373Y-96941243D01*
X176943290Y-96940939D01*
X176809196Y-96940494D01*
X176690166Y-96939885D01*
X176585279Y-96939089D01*
X176493610Y-96938080D01*
X176414237Y-96936837D01*
X176346237Y-96935335D01*
X176288686Y-96933551D01*
X176240662Y-96931461D01*
X176201240Y-96929042D01*
X176169499Y-96926270D01*
X176144514Y-96923121D01*
X176125364Y-96919572D01*
X176111123Y-96915598D01*
X176100871Y-96911178D01*
X176093682Y-96906286D01*
X176088635Y-96900900D01*
X176084805Y-96894996D01*
X176081271Y-96888549D01*
X176077108Y-96881537D01*
X176076025Y-96879687D01*
X176073813Y-96874180D01*
X176071786Y-96865868D01*
X176069938Y-96853809D01*
X176068261Y-96837063D01*
X176066745Y-96814687D01*
X176065383Y-96785740D01*
X176064167Y-96749280D01*
X176063089Y-96704367D01*
X176062140Y-96650057D01*
X176061312Y-96585410D01*
X176060597Y-96509484D01*
X176059987Y-96421338D01*
X176059942Y-96412493D01*
X176351378Y-96412493D01*
X176355260Y-96413765D01*
X176378520Y-96415791D01*
X176420874Y-96417626D01*
X176480132Y-96419227D01*
X176554107Y-96420549D01*
X176640610Y-96421548D01*
X176737452Y-96422180D01*
X176842445Y-96422400D01*
X177540651Y-96422400D01*
X178695090Y-96422400D01*
X178694456Y-96346200D01*
X178695574Y-96304160D01*
X178701304Y-96268334D01*
X178713890Y-96230772D01*
X178735568Y-96182577D01*
X178738789Y-96175897D01*
X178764188Y-96126359D01*
X178790996Y-96078369D01*
X178813917Y-96041466D01*
X178818485Y-96034834D01*
X178840516Y-96003593D01*
X178872693Y-95958654D01*
X178913457Y-95902147D01*
X178961245Y-95836204D01*
X179014498Y-95762957D01*
X179071655Y-95684536D01*
X179131155Y-95603072D01*
X179191437Y-95520698D01*
X179250940Y-95439544D01*
X179308105Y-95361742D01*
X179361370Y-95289423D01*
X179409174Y-95224718D01*
X179449957Y-95169759D01*
X179482158Y-95126676D01*
X179504216Y-95097602D01*
X179514571Y-95084667D01*
X179519044Y-95080351D01*
X179523236Y-95078312D01*
X179526643Y-95080926D01*
X179529325Y-95089986D01*
X179531341Y-95107285D01*
X179532748Y-95134614D01*
X179533605Y-95173765D01*
X179533970Y-95226533D01*
X179533903Y-95294707D01*
X179533460Y-95380082D01*
X179532702Y-95484449D01*
X179531685Y-95609600D01*
X179531308Y-95654300D01*
X179530169Y-95775395D01*
X179528972Y-95876688D01*
X179527636Y-95960262D01*
X179526077Y-96028204D01*
X179524215Y-96082599D01*
X179521966Y-96125532D01*
X179519248Y-96159089D01*
X179515979Y-96185355D01*
X179512078Y-96206416D01*
X179507461Y-96224357D01*
X179499192Y-96250770D01*
X179475583Y-96312772D01*
X179449685Y-96365573D01*
X179424535Y-96402645D01*
X179423339Y-96404075D01*
X179421168Y-96408424D01*
X179423328Y-96412026D01*
X179431644Y-96414951D01*
X179447940Y-96417269D01*
X179474041Y-96419051D01*
X179511771Y-96420367D01*
X179562956Y-96421286D01*
X179629420Y-96421878D01*
X179712987Y-96422215D01*
X179815483Y-96422365D01*
X179938732Y-96422400D01*
X180470296Y-96422400D01*
X180431523Y-96364783D01*
X180425432Y-96355893D01*
X180414976Y-96341069D01*
X180405579Y-96327422D01*
X180397183Y-96313765D01*
X180389733Y-96298911D01*
X180383173Y-96281670D01*
X180377446Y-96260855D01*
X180372495Y-96235280D01*
X180368266Y-96203755D01*
X180364701Y-96165093D01*
X180361744Y-96118107D01*
X180359340Y-96061608D01*
X180357431Y-95994409D01*
X180355962Y-95915322D01*
X180354876Y-95823160D01*
X180354118Y-95716734D01*
X180353630Y-95594857D01*
X180353358Y-95456341D01*
X180353243Y-95299999D01*
X180353231Y-95124642D01*
X180353265Y-94929082D01*
X180353289Y-94712133D01*
X180353280Y-94589513D01*
X180353243Y-94384447D01*
X180353227Y-94200116D01*
X180353288Y-94035334D01*
X180353484Y-93888916D01*
X180353870Y-93759674D01*
X180354505Y-93646422D01*
X180355444Y-93547975D01*
X180356745Y-93463144D01*
X180358464Y-93390744D01*
X180360659Y-93329589D01*
X180363385Y-93278492D01*
X180366701Y-93236267D01*
X180370662Y-93201727D01*
X180375325Y-93173686D01*
X180380747Y-93150958D01*
X180386986Y-93132356D01*
X180394097Y-93116693D01*
X180402138Y-93102784D01*
X180411166Y-93089441D01*
X180421236Y-93075479D01*
X180432407Y-93059711D01*
X180472197Y-93001867D01*
X179412314Y-93001867D01*
X179450311Y-93064966D01*
X179464993Y-93090005D01*
X179479531Y-93117586D01*
X179491627Y-93145700D01*
X179501532Y-93176551D01*
X179509494Y-93212344D01*
X179515761Y-93255283D01*
X179520582Y-93307574D01*
X179524206Y-93371419D01*
X179526881Y-93449025D01*
X179528857Y-93542594D01*
X179530382Y-93654333D01*
X179531704Y-93786445D01*
X179532613Y-93906434D01*
X179533020Y-94023063D01*
X179532767Y-94118531D01*
X179531857Y-94192556D01*
X179530293Y-94244855D01*
X179528079Y-94275149D01*
X179525220Y-94283156D01*
X179522161Y-94279858D01*
X179504006Y-94258408D01*
X179474275Y-94221889D01*
X179434639Y-94172442D01*
X179386771Y-94112207D01*
X179332343Y-94043327D01*
X179273027Y-93967943D01*
X179210495Y-93888196D01*
X179146421Y-93806228D01*
X179082475Y-93724180D01*
X179020331Y-93644194D01*
X178961661Y-93568411D01*
X178908137Y-93498973D01*
X178861430Y-93438021D01*
X178823214Y-93387696D01*
X178795161Y-93350140D01*
X178778943Y-93327495D01*
X178733635Y-93255212D01*
X178693661Y-93175463D01*
X178672130Y-93107188D01*
X178668827Y-93049844D01*
X178674116Y-93001867D01*
X177542356Y-93002117D01*
X177581867Y-93032722D01*
X177591248Y-93040089D01*
X177654183Y-93094438D01*
X177722997Y-93162259D01*
X177799596Y-93245516D01*
X177885888Y-93346178D01*
X177903052Y-93366847D01*
X177943833Y-93416409D01*
X177993588Y-93477326D01*
X178050955Y-93547898D01*
X178114569Y-93626424D01*
X178183069Y-93711204D01*
X178255090Y-93800537D01*
X178329270Y-93892722D01*
X178344517Y-93911702D01*
X178404246Y-93986060D01*
X178478653Y-94078848D01*
X178551131Y-94169388D01*
X178620314Y-94255978D01*
X178684841Y-94336918D01*
X178743347Y-94410506D01*
X178794470Y-94475044D01*
X178836847Y-94528829D01*
X178869115Y-94570162D01*
X178889910Y-94597342D01*
X178897869Y-94608668D01*
X178896111Y-94612771D01*
X178883230Y-94633334D01*
X178858885Y-94669561D01*
X178824247Y-94719824D01*
X178780486Y-94782492D01*
X178728775Y-94855936D01*
X178670284Y-94938527D01*
X178606184Y-95028636D01*
X178537646Y-95124631D01*
X178465843Y-95224885D01*
X178391944Y-95327768D01*
X178317121Y-95431650D01*
X178242545Y-95534901D01*
X178169387Y-95635892D01*
X178098819Y-95732994D01*
X178032011Y-95824577D01*
X177970135Y-95909011D01*
X177914361Y-95984667D01*
X177865862Y-96049916D01*
X177825807Y-96103128D01*
X177795369Y-96142673D01*
X177774944Y-96168026D01*
X177728899Y-96222295D01*
X177678612Y-96278775D01*
X177631815Y-96328669D01*
X177540651Y-96422400D01*
X176842445Y-96422400D01*
X176911356Y-96422349D01*
X177009607Y-96422091D01*
X177099030Y-96421637D01*
X177177333Y-96421010D01*
X177242223Y-96420235D01*
X177291411Y-96419335D01*
X177322604Y-96418334D01*
X177333511Y-96417257D01*
X177332322Y-96414037D01*
X177322176Y-96396452D01*
X177305040Y-96370158D01*
X177296540Y-96357691D01*
X177287329Y-96343622D01*
X177279233Y-96329351D01*
X177272185Y-96313479D01*
X177266117Y-96294609D01*
X177260961Y-96271341D01*
X177256651Y-96242278D01*
X177253119Y-96206021D01*
X177250297Y-96161170D01*
X177248118Y-96106328D01*
X177246514Y-96040097D01*
X177245419Y-95961077D01*
X177244765Y-95867871D01*
X177244484Y-95759079D01*
X177244509Y-95633303D01*
X177244772Y-95489145D01*
X177245206Y-95325207D01*
X177245745Y-95140089D01*
X177246279Y-94961232D01*
X177246805Y-94802374D01*
X177247350Y-94663316D01*
X177247945Y-94542665D01*
X177248619Y-94439028D01*
X177249403Y-94351011D01*
X177250326Y-94277223D01*
X177251419Y-94216269D01*
X177252712Y-94166757D01*
X177254235Y-94127293D01*
X177256019Y-94096484D01*
X177258092Y-94072938D01*
X177260486Y-94055260D01*
X177263230Y-94042059D01*
X177266356Y-94031940D01*
X177269892Y-94023511D01*
X177273791Y-94015375D01*
X177293438Y-93978544D01*
X177312225Y-93948391D01*
X177313272Y-93946908D01*
X177327602Y-93924659D01*
X177333511Y-93911702D01*
X177332504Y-93911249D01*
X177315305Y-93909803D01*
X177278656Y-93908480D01*
X177224962Y-93907316D01*
X177156630Y-93906347D01*
X177076064Y-93905611D01*
X176985670Y-93905142D01*
X176887853Y-93904978D01*
X176442195Y-93904978D01*
X176439120Y-95081845D01*
X176436045Y-96258711D01*
X176409407Y-96317622D01*
X176397485Y-96342183D01*
X176380246Y-96372434D01*
X176367074Y-96389560D01*
X176359076Y-96397591D01*
X176351378Y-96412493D01*
X176059942Y-96412493D01*
X176059474Y-96320029D01*
X176059050Y-96204617D01*
X176058706Y-96074160D01*
X176058434Y-95927716D01*
X176058227Y-95764344D01*
X176058076Y-95583101D01*
X176057972Y-95383048D01*
X176057908Y-95163241D01*
X176057876Y-94922739D01*
X176057867Y-94660602D01*
X176057867Y-92469031D01*
X176096249Y-92430649D01*
X176123355Y-92406911D01*
X176150253Y-92395111D01*
X176186560Y-92392267D01*
X176238489Y-92392267D01*
X176238489Y-92480206D01*
X176240427Y-92530102D01*
X176259199Y-92640523D01*
X176296217Y-92741987D01*
X176349369Y-92833152D01*
X176416546Y-92912673D01*
X176495638Y-92979205D01*
X176584534Y-93031406D01*
X176681125Y-93067930D01*
X176783300Y-93087434D01*
X176888950Y-93088573D01*
X176995964Y-93070005D01*
X177102232Y-93030384D01*
X177199219Y-92972516D01*
X177284293Y-92897684D01*
X177353015Y-92809615D01*
X177403918Y-92710616D01*
X177435535Y-92602993D01*
X177446400Y-92489054D01*
X177446400Y-92392267D01*
X179066753Y-92392267D01*
X179277897Y-92392280D01*
X179482020Y-92392330D01*
X179665686Y-92392430D01*
X179829991Y-92392592D01*
X179976029Y-92392829D01*
X180104894Y-92393153D01*
X180217683Y-92393575D01*
X180315488Y-92394109D01*
X180399404Y-92394767D01*
X180470527Y-92395561D01*
X180529950Y-92396504D01*
X180578768Y-92397608D01*
X180618077Y-92398884D01*
X180648969Y-92400347D01*
X180672541Y-92402007D01*
X180689886Y-92403878D01*
X180702099Y-92405972D01*
X180710275Y-92408300D01*
X180715508Y-92410876D01*
X180721504Y-92414445D01*
X180728279Y-92417978D01*
X180734478Y-92421488D01*
X180740126Y-92425918D01*
X180745247Y-92432208D01*
X180749869Y-92441301D01*
X180754015Y-92454139D01*
X180757713Y-92471662D01*
X180760987Y-92494813D01*
X180763863Y-92524534D01*
X180766367Y-92561765D01*
X180768524Y-92607449D01*
X180770360Y-92662527D01*
X180771900Y-92727941D01*
X180773170Y-92804633D01*
X180774195Y-92893544D01*
X180775001Y-92995617D01*
X180775034Y-93001867D01*
X180775614Y-93111792D01*
G36*
X180775614Y-93111792D02*
G01*
X180776059Y-93243011D01*
X180776362Y-93390216D01*
X180776548Y-93554349D01*
X180776642Y-93736352D01*
X180776671Y-93937165D01*
X180776661Y-94157732D01*
X180776636Y-94398992D01*
X180776622Y-94661889D01*
X180776622Y-94704040D01*
X180776646Y-94964668D01*
X180776685Y-95203796D01*
X180776708Y-95422360D01*
X180776687Y-95621295D01*
X180776593Y-95801535D01*
X180776395Y-95964015D01*
X180776063Y-96109670D01*
X180775569Y-96239434D01*
X180774883Y-96354243D01*
X180773976Y-96455030D01*
X180772817Y-96542730D01*
X180771378Y-96618279D01*
X180769629Y-96682611D01*
X180767540Y-96736661D01*
X180765083Y-96781363D01*
X180762227Y-96817652D01*
X180758943Y-96846463D01*
X180755202Y-96868731D01*
X180750974Y-96885390D01*
X180746229Y-96897375D01*
X180740939Y-96905621D01*
X180735073Y-96911062D01*
X180728602Y-96914634D01*
X180721497Y-96917270D01*
X180713728Y-96919906D01*
X180705266Y-96923477D01*
X180700908Y-96925145D01*
X180692395Y-96927111D01*
X180679694Y-96928911D01*
X180661885Y-96930555D01*
X180638049Y-96932047D01*
X180607266Y-96933397D01*
X180568617Y-96934611D01*
X180521182Y-96935697D01*
X180464043Y-96936661D01*
X180396279Y-96937511D01*
X180316971Y-96938253D01*
X180225199Y-96938897D01*
X180120044Y-96939447D01*
X180000587Y-96939913D01*
X179865908Y-96940300D01*
X179715088Y-96940616D01*
X179547206Y-96940869D01*
X179361345Y-96941066D01*
X179156583Y-96941213D01*
X178932002Y-96941318D01*
X178686682Y-96941389D01*
X178419704Y-96941432D01*
X178381321Y-96941437D01*
X178115922Y-96941480D01*
X177872050Y-96941525D01*
X177648783Y-96941548D01*
X177445196Y-96941524D01*
X177260367Y-96941430D01*
X177093373Y-96941243D01*
X176943290Y-96940939D01*
X176809196Y-96940494D01*
X176690166Y-96939885D01*
X176585279Y-96939089D01*
X176493610Y-96938080D01*
X176414237Y-96936837D01*
X176346237Y-96935335D01*
X176288686Y-96933551D01*
X176240662Y-96931461D01*
X176201240Y-96929042D01*
X176169499Y-96926270D01*
X176144514Y-96923121D01*
X176125364Y-96919572D01*
X176111123Y-96915598D01*
X176100871Y-96911178D01*
X176093682Y-96906286D01*
X176088635Y-96900900D01*
X176084805Y-96894996D01*
X176081271Y-96888549D01*
X176077108Y-96881537D01*
X176076025Y-96879687D01*
X176073813Y-96874180D01*
X176071786Y-96865868D01*
X176069938Y-96853809D01*
X176068261Y-96837063D01*
X176066745Y-96814687D01*
X176065383Y-96785740D01*
X176064167Y-96749280D01*
X176063089Y-96704367D01*
X176062140Y-96650057D01*
X176061312Y-96585410D01*
X176060597Y-96509484D01*
X176059987Y-96421338D01*
X176059942Y-96412493D01*
X176351378Y-96412493D01*
X176355260Y-96413765D01*
X176378520Y-96415791D01*
X176420874Y-96417626D01*
X176480132Y-96419227D01*
X176554107Y-96420549D01*
X176640610Y-96421548D01*
X176737452Y-96422180D01*
X176842445Y-96422400D01*
X177540651Y-96422400D01*
X178695090Y-96422400D01*
X178694456Y-96346200D01*
X178695574Y-96304160D01*
X178701304Y-96268334D01*
X178713890Y-96230772D01*
X178735568Y-96182577D01*
X178738789Y-96175897D01*
X178764188Y-96126359D01*
X178790996Y-96078369D01*
X178813917Y-96041466D01*
X178818485Y-96034834D01*
X178840516Y-96003593D01*
X178872693Y-95958654D01*
X178913457Y-95902147D01*
X178961245Y-95836204D01*
X179014498Y-95762957D01*
X179071655Y-95684536D01*
X179131155Y-95603072D01*
X179191437Y-95520698D01*
X179250940Y-95439544D01*
X179308105Y-95361742D01*
X179361370Y-95289423D01*
X179409174Y-95224718D01*
X179449957Y-95169759D01*
X179482158Y-95126676D01*
X179504216Y-95097602D01*
X179514571Y-95084667D01*
X179519044Y-95080351D01*
X179523236Y-95078312D01*
X179526643Y-95080926D01*
X179529325Y-95089986D01*
X179531341Y-95107285D01*
X179532748Y-95134614D01*
X179533605Y-95173765D01*
X179533970Y-95226533D01*
X179533903Y-95294707D01*
X179533460Y-95380082D01*
X179532702Y-95484449D01*
X179531685Y-95609600D01*
X179531308Y-95654300D01*
X179530169Y-95775395D01*
X179528972Y-95876688D01*
X179527636Y-95960262D01*
X179526077Y-96028204D01*
X179524215Y-96082599D01*
X179521966Y-96125532D01*
X179519248Y-96159089D01*
X179515979Y-96185355D01*
X179512078Y-96206416D01*
X179507461Y-96224357D01*
X179499192Y-96250770D01*
X179475583Y-96312772D01*
X179449685Y-96365573D01*
X179424535Y-96402645D01*
X179423339Y-96404075D01*
X179421168Y-96408424D01*
X179423328Y-96412026D01*
X179431644Y-96414951D01*
X179447940Y-96417269D01*
X179474041Y-96419051D01*
X179511771Y-96420367D01*
X179562956Y-96421286D01*
X179629420Y-96421878D01*
X179712987Y-96422215D01*
X179815483Y-96422365D01*
X179938732Y-96422400D01*
X180470296Y-96422400D01*
X180431523Y-96364783D01*
X180425432Y-96355893D01*
X180414976Y-96341069D01*
X180405579Y-96327422D01*
X180397183Y-96313765D01*
X180389733Y-96298911D01*
X180383173Y-96281670D01*
X180377446Y-96260855D01*
X180372495Y-96235280D01*
X180368266Y-96203755D01*
X180364701Y-96165093D01*
X180361744Y-96118107D01*
X180359340Y-96061608D01*
X180357431Y-95994409D01*
X180355962Y-95915322D01*
X180354876Y-95823160D01*
X180354118Y-95716734D01*
X180353630Y-95594857D01*
X180353358Y-95456341D01*
X180353243Y-95299999D01*
X180353231Y-95124642D01*
X180353265Y-94929082D01*
X180353289Y-94712133D01*
X180353280Y-94589513D01*
X180353243Y-94384447D01*
X180353227Y-94200116D01*
X180353288Y-94035334D01*
X180353484Y-93888916D01*
X180353870Y-93759674D01*
X180354505Y-93646422D01*
X180355444Y-93547975D01*
X180356745Y-93463144D01*
X180358464Y-93390744D01*
X180360659Y-93329589D01*
X180363385Y-93278492D01*
X180366701Y-93236267D01*
X180370662Y-93201727D01*
X180375325Y-93173686D01*
X180380747Y-93150958D01*
X180386986Y-93132356D01*
X180394097Y-93116693D01*
X180402138Y-93102784D01*
X180411166Y-93089441D01*
X180421236Y-93075479D01*
X180432407Y-93059711D01*
X180472197Y-93001867D01*
X179412314Y-93001867D01*
X179450311Y-93064966D01*
X179464993Y-93090005D01*
X179479531Y-93117586D01*
X179491627Y-93145700D01*
X179501532Y-93176551D01*
X179509494Y-93212344D01*
X179515761Y-93255283D01*
X179520582Y-93307574D01*
X179524206Y-93371419D01*
X179526881Y-93449025D01*
X179528857Y-93542594D01*
X179530382Y-93654333D01*
X179531704Y-93786445D01*
X179532613Y-93906434D01*
X179533020Y-94023063D01*
X179532767Y-94118531D01*
X179531857Y-94192556D01*
X179530293Y-94244855D01*
X179528079Y-94275149D01*
X179525220Y-94283156D01*
X179522161Y-94279858D01*
X179504006Y-94258408D01*
X179474275Y-94221889D01*
X179434639Y-94172442D01*
X179386771Y-94112207D01*
X179332343Y-94043327D01*
X179273027Y-93967943D01*
X179210495Y-93888196D01*
X179146421Y-93806228D01*
X179082475Y-93724180D01*
X179020331Y-93644194D01*
X178961661Y-93568411D01*
X178908137Y-93498973D01*
X178861430Y-93438021D01*
X178823214Y-93387696D01*
X178795161Y-93350140D01*
X178778943Y-93327495D01*
X178733635Y-93255212D01*
X178693661Y-93175463D01*
X178672130Y-93107188D01*
X178668827Y-93049844D01*
X178674116Y-93001867D01*
X177542356Y-93002117D01*
X177581867Y-93032722D01*
X177591248Y-93040089D01*
X177654183Y-93094438D01*
X177722997Y-93162259D01*
X177799596Y-93245516D01*
X177885888Y-93346178D01*
X177903052Y-93366847D01*
X177943833Y-93416409D01*
X177993588Y-93477326D01*
X178050955Y-93547898D01*
X178114569Y-93626424D01*
X178183069Y-93711204D01*
X178255090Y-93800537D01*
X178329270Y-93892722D01*
X178344517Y-93911702D01*
X178404246Y-93986060D01*
X178478653Y-94078848D01*
X178551131Y-94169388D01*
X178620314Y-94255978D01*
X178684841Y-94336918D01*
X178743347Y-94410506D01*
X178794470Y-94475044D01*
X178836847Y-94528829D01*
X178869115Y-94570162D01*
X178889910Y-94597342D01*
X178897869Y-94608668D01*
X178896111Y-94612771D01*
X178883230Y-94633334D01*
X178858885Y-94669561D01*
X178824247Y-94719824D01*
X178780486Y-94782492D01*
X178728775Y-94855936D01*
X178670284Y-94938527D01*
X178606184Y-95028636D01*
X178537646Y-95124631D01*
X178465843Y-95224885D01*
X178391944Y-95327768D01*
X178317121Y-95431650D01*
X178242545Y-95534901D01*
X178169387Y-95635892D01*
X178098819Y-95732994D01*
X178032011Y-95824577D01*
X177970135Y-95909011D01*
X177914361Y-95984667D01*
X177865862Y-96049916D01*
X177825807Y-96103128D01*
X177795369Y-96142673D01*
X177774944Y-96168026D01*
X177728899Y-96222295D01*
X177678612Y-96278775D01*
X177631815Y-96328669D01*
X177540651Y-96422400D01*
X176842445Y-96422400D01*
X176911356Y-96422349D01*
X177009607Y-96422091D01*
X177099030Y-96421637D01*
X177177333Y-96421010D01*
X177242223Y-96420235D01*
X177291411Y-96419335D01*
X177322604Y-96418334D01*
X177333511Y-96417257D01*
X177332322Y-96414037D01*
X177322176Y-96396452D01*
X177305040Y-96370158D01*
X177296540Y-96357691D01*
X177287329Y-96343622D01*
X177279233Y-96329351D01*
X177272185Y-96313479D01*
X177266117Y-96294609D01*
X177260961Y-96271341D01*
X177256651Y-96242278D01*
X177253119Y-96206021D01*
X177250297Y-96161170D01*
X177248118Y-96106328D01*
X177246514Y-96040097D01*
X177245419Y-95961077D01*
X177244765Y-95867871D01*
X177244484Y-95759079D01*
X177244509Y-95633303D01*
X177244772Y-95489145D01*
X177245206Y-95325207D01*
X177245745Y-95140089D01*
X177246279Y-94961232D01*
X177246805Y-94802374D01*
X177247350Y-94663316D01*
X177247945Y-94542665D01*
X177248619Y-94439028D01*
X177249403Y-94351011D01*
X177250326Y-94277223D01*
X177251419Y-94216269D01*
X177252712Y-94166757D01*
X177254235Y-94127293D01*
X177256019Y-94096484D01*
X177258092Y-94072938D01*
X177260486Y-94055260D01*
X177263230Y-94042059D01*
X177266356Y-94031940D01*
X177269892Y-94023511D01*
X177273791Y-94015375D01*
X177293438Y-93978544D01*
X177312225Y-93948391D01*
X177313272Y-93946908D01*
X177327602Y-93924659D01*
X177333511Y-93911702D01*
X177332504Y-93911249D01*
X177315305Y-93909803D01*
X177278656Y-93908480D01*
X177224962Y-93907316D01*
X177156630Y-93906347D01*
X177076064Y-93905611D01*
X176985670Y-93905142D01*
X176887853Y-93904978D01*
X176442195Y-93904978D01*
X176439120Y-95081845D01*
X176436045Y-96258711D01*
X176409407Y-96317622D01*
X176397485Y-96342183D01*
X176380246Y-96372434D01*
X176367074Y-96389560D01*
X176359076Y-96397591D01*
X176351378Y-96412493D01*
X176059942Y-96412493D01*
X176059474Y-96320029D01*
X176059050Y-96204617D01*
X176058706Y-96074160D01*
X176058434Y-95927716D01*
X176058227Y-95764344D01*
X176058076Y-95583101D01*
X176057972Y-95383048D01*
X176057908Y-95163241D01*
X176057876Y-94922739D01*
X176057867Y-94660602D01*
X176057867Y-92469031D01*
X176096249Y-92430649D01*
X176123355Y-92406911D01*
X176150253Y-92395111D01*
X176186560Y-92392267D01*
X176238489Y-92392267D01*
X176238489Y-92480206D01*
X176240427Y-92530102D01*
X176259199Y-92640523D01*
X176296217Y-92741987D01*
X176349369Y-92833152D01*
X176416546Y-92912673D01*
X176495638Y-92979205D01*
X176584534Y-93031406D01*
X176681125Y-93067930D01*
X176783300Y-93087434D01*
X176888950Y-93088573D01*
X176995964Y-93070005D01*
X177102232Y-93030384D01*
X177199219Y-92972516D01*
X177284293Y-92897684D01*
X177353015Y-92809615D01*
X177403918Y-92710616D01*
X177435535Y-92602993D01*
X177446400Y-92489054D01*
X177446400Y-92392267D01*
X179066753Y-92392267D01*
X179277897Y-92392280D01*
X179482020Y-92392330D01*
X179665686Y-92392430D01*
X179829991Y-92392592D01*
X179976029Y-92392829D01*
X180104894Y-92393153D01*
X180217683Y-92393575D01*
X180315488Y-92394109D01*
X180399404Y-92394767D01*
X180470527Y-92395561D01*
X180529950Y-92396504D01*
X180578768Y-92397608D01*
X180618077Y-92398884D01*
X180648969Y-92400347D01*
X180672541Y-92402007D01*
X180689886Y-92403878D01*
X180702099Y-92405972D01*
X180710275Y-92408300D01*
X180715508Y-92410876D01*
X180721504Y-92414445D01*
X180728279Y-92417978D01*
X180734478Y-92421488D01*
X180740126Y-92425918D01*
X180745247Y-92432208D01*
X180749869Y-92441301D01*
X180754015Y-92454139D01*
X180757713Y-92471662D01*
X180760987Y-92494813D01*
X180763863Y-92524534D01*
X180766367Y-92561765D01*
X180768524Y-92607449D01*
X180770360Y-92662527D01*
X180771900Y-92727941D01*
X180773170Y-92804633D01*
X180774195Y-92893544D01*
X180775001Y-92995617D01*
X180775034Y-93001867D01*
X180775614Y-93111792D01*
G37*
%TD*%
M02*
