%TF.GenerationSoftware,KiCad,Pcbnew,9.0.7*%
%TF.CreationDate,2026-06-19T13:48:12+05:30*%
%TF.ProjectId,AC_TO_DC_converter,41435f54-4f5f-4444-935f-636f6e766572,rev?*%
%TF.SameCoordinates,Original*%
%TF.FileFunction,Legend,Top*%
%TF.FilePolarity,Positive*%
%FSLAX46Y46*%
G04 Gerber Fmt 4.6, Leading zero omitted, Abs format (unit mm)*
G04 Created by KiCad (PCBNEW 9.0.7) date 2026-06-19 13:48:12*
%MOMM*%
%LPD*%
G01*
G04 APERTURE LIST*
%ADD10C,0.150012*%
%ADD11C,0.200000*%
%ADD12C,0.150000*%
%ADD13C,0.120000*%
%ADD14C,0.000000*%
G04 APERTURE END LIST*
D10*
X158289167Y-78584105D02*
X158765357Y-78584105D01*
X158193929Y-78869818D02*
X158527262Y-77869820D01*
X158527262Y-77869820D02*
X158860595Y-78869818D01*
X159765355Y-78774581D02*
X159717736Y-78822200D01*
X159717736Y-78822200D02*
X159574879Y-78869818D01*
X159574879Y-78869818D02*
X159479641Y-78869818D01*
X159479641Y-78869818D02*
X159336784Y-78822200D01*
X159336784Y-78822200D02*
X159241546Y-78726962D01*
X159241546Y-78726962D02*
X159193927Y-78631724D01*
X159193927Y-78631724D02*
X159146308Y-78441248D01*
X159146308Y-78441248D02*
X159146308Y-78298391D01*
X159146308Y-78298391D02*
X159193927Y-78107915D01*
X159193927Y-78107915D02*
X159241546Y-78012677D01*
X159241546Y-78012677D02*
X159336784Y-77917439D01*
X159336784Y-77917439D02*
X159479641Y-77869820D01*
X159479641Y-77869820D02*
X159574879Y-77869820D01*
X159574879Y-77869820D02*
X159717736Y-77917439D01*
X159717736Y-77917439D02*
X159765355Y-77965058D01*
X160812971Y-78203153D02*
X161193923Y-78203153D01*
X160955828Y-77869820D02*
X160955828Y-78726962D01*
X160955828Y-78726962D02*
X161003447Y-78822200D01*
X161003447Y-78822200D02*
X161098685Y-78869818D01*
X161098685Y-78869818D02*
X161193923Y-78869818D01*
X161670112Y-78869818D02*
X161574874Y-78822200D01*
X161574874Y-78822200D02*
X161527255Y-78774581D01*
X161527255Y-78774581D02*
X161479636Y-78679343D01*
X161479636Y-78679343D02*
X161479636Y-78393629D01*
X161479636Y-78393629D02*
X161527255Y-78298391D01*
X161527255Y-78298391D02*
X161574874Y-78250772D01*
X161574874Y-78250772D02*
X161670112Y-78203153D01*
X161670112Y-78203153D02*
X161812969Y-78203153D01*
X161812969Y-78203153D02*
X161908207Y-78250772D01*
X161908207Y-78250772D02*
X161955826Y-78298391D01*
X161955826Y-78298391D02*
X162003445Y-78393629D01*
X162003445Y-78393629D02*
X162003445Y-78679343D01*
X162003445Y-78679343D02*
X161955826Y-78774581D01*
X161955826Y-78774581D02*
X161908207Y-78822200D01*
X161908207Y-78822200D02*
X161812969Y-78869818D01*
X161812969Y-78869818D02*
X161670112Y-78869818D01*
X163193918Y-78869818D02*
X163193918Y-77869820D01*
X163193918Y-77869820D02*
X163432013Y-77869820D01*
X163432013Y-77869820D02*
X163574870Y-77917439D01*
X163574870Y-77917439D02*
X163670108Y-78012677D01*
X163670108Y-78012677D02*
X163717727Y-78107915D01*
X163717727Y-78107915D02*
X163765346Y-78298391D01*
X163765346Y-78298391D02*
X163765346Y-78441248D01*
X163765346Y-78441248D02*
X163717727Y-78631724D01*
X163717727Y-78631724D02*
X163670108Y-78726962D01*
X163670108Y-78726962D02*
X163574870Y-78822200D01*
X163574870Y-78822200D02*
X163432013Y-78869818D01*
X163432013Y-78869818D02*
X163193918Y-78869818D01*
X164765344Y-78774581D02*
X164717725Y-78822200D01*
X164717725Y-78822200D02*
X164574868Y-78869818D01*
X164574868Y-78869818D02*
X164479630Y-78869818D01*
X164479630Y-78869818D02*
X164336773Y-78822200D01*
X164336773Y-78822200D02*
X164241535Y-78726962D01*
X164241535Y-78726962D02*
X164193916Y-78631724D01*
X164193916Y-78631724D02*
X164146297Y-78441248D01*
X164146297Y-78441248D02*
X164146297Y-78298391D01*
X164146297Y-78298391D02*
X164193916Y-78107915D01*
X164193916Y-78107915D02*
X164241535Y-78012677D01*
X164241535Y-78012677D02*
X164336773Y-77917439D01*
X164336773Y-77917439D02*
X164479630Y-77869820D01*
X164479630Y-77869820D02*
X164574868Y-77869820D01*
X164574868Y-77869820D02*
X164717725Y-77917439D01*
X164717725Y-77917439D02*
X164765344Y-77965058D01*
X166384388Y-78822200D02*
X166289150Y-78869818D01*
X166289150Y-78869818D02*
X166098674Y-78869818D01*
X166098674Y-78869818D02*
X166003436Y-78822200D01*
X166003436Y-78822200D02*
X165955817Y-78774581D01*
X165955817Y-78774581D02*
X165908198Y-78679343D01*
X165908198Y-78679343D02*
X165908198Y-78393629D01*
X165908198Y-78393629D02*
X165955817Y-78298391D01*
X165955817Y-78298391D02*
X166003436Y-78250772D01*
X166003436Y-78250772D02*
X166098674Y-78203153D01*
X166098674Y-78203153D02*
X166289150Y-78203153D01*
X166289150Y-78203153D02*
X166384388Y-78250772D01*
X166955815Y-78869818D02*
X166860577Y-78822200D01*
X166860577Y-78822200D02*
X166812958Y-78774581D01*
X166812958Y-78774581D02*
X166765339Y-78679343D01*
X166765339Y-78679343D02*
X166765339Y-78393629D01*
X166765339Y-78393629D02*
X166812958Y-78298391D01*
X166812958Y-78298391D02*
X166860577Y-78250772D01*
X166860577Y-78250772D02*
X166955815Y-78203153D01*
X166955815Y-78203153D02*
X167098672Y-78203153D01*
X167098672Y-78203153D02*
X167193910Y-78250772D01*
X167193910Y-78250772D02*
X167241529Y-78298391D01*
X167241529Y-78298391D02*
X167289148Y-78393629D01*
X167289148Y-78393629D02*
X167289148Y-78679343D01*
X167289148Y-78679343D02*
X167241529Y-78774581D01*
X167241529Y-78774581D02*
X167193910Y-78822200D01*
X167193910Y-78822200D02*
X167098672Y-78869818D01*
X167098672Y-78869818D02*
X166955815Y-78869818D01*
X167717718Y-78203153D02*
X167717718Y-78869818D01*
X167717718Y-78298391D02*
X167765337Y-78250772D01*
X167765337Y-78250772D02*
X167860575Y-78203153D01*
X167860575Y-78203153D02*
X168003432Y-78203153D01*
X168003432Y-78203153D02*
X168098670Y-78250772D01*
X168098670Y-78250772D02*
X168146289Y-78346010D01*
X168146289Y-78346010D02*
X168146289Y-78869818D01*
X168527240Y-78203153D02*
X168765335Y-78869818D01*
X168765335Y-78869818D02*
X169003430Y-78203153D01*
X169765333Y-78822200D02*
X169670095Y-78869818D01*
X169670095Y-78869818D02*
X169479619Y-78869818D01*
X169479619Y-78869818D02*
X169384381Y-78822200D01*
X169384381Y-78822200D02*
X169336762Y-78726962D01*
X169336762Y-78726962D02*
X169336762Y-78346010D01*
X169336762Y-78346010D02*
X169384381Y-78250772D01*
X169384381Y-78250772D02*
X169479619Y-78203153D01*
X169479619Y-78203153D02*
X169670095Y-78203153D01*
X169670095Y-78203153D02*
X169765333Y-78250772D01*
X169765333Y-78250772D02*
X169812952Y-78346010D01*
X169812952Y-78346010D02*
X169812952Y-78441248D01*
X169812952Y-78441248D02*
X169336762Y-78536486D01*
X170241522Y-78869818D02*
X170241522Y-78203153D01*
X170241522Y-78393629D02*
X170289141Y-78298391D01*
X170289141Y-78298391D02*
X170336760Y-78250772D01*
X170336760Y-78250772D02*
X170431998Y-78203153D01*
X170431998Y-78203153D02*
X170527236Y-78203153D01*
X170717711Y-78203153D02*
X171098663Y-78203153D01*
X170860568Y-77869820D02*
X170860568Y-78726962D01*
X170860568Y-78726962D02*
X170908187Y-78822200D01*
X170908187Y-78822200D02*
X171003425Y-78869818D01*
X171003425Y-78869818D02*
X171098663Y-78869818D01*
X171812947Y-78822200D02*
X171717709Y-78869818D01*
X171717709Y-78869818D02*
X171527233Y-78869818D01*
X171527233Y-78869818D02*
X171431995Y-78822200D01*
X171431995Y-78822200D02*
X171384376Y-78726962D01*
X171384376Y-78726962D02*
X171384376Y-78346010D01*
X171384376Y-78346010D02*
X171431995Y-78250772D01*
X171431995Y-78250772D02*
X171527233Y-78203153D01*
X171527233Y-78203153D02*
X171717709Y-78203153D01*
X171717709Y-78203153D02*
X171812947Y-78250772D01*
X171812947Y-78250772D02*
X171860566Y-78346010D01*
X171860566Y-78346010D02*
X171860566Y-78441248D01*
X171860566Y-78441248D02*
X171384376Y-78536486D01*
X172289136Y-78869818D02*
X172289136Y-78203153D01*
X172289136Y-78393629D02*
X172336755Y-78298391D01*
X172336755Y-78298391D02*
X172384374Y-78250772D01*
X172384374Y-78250772D02*
X172479612Y-78203153D01*
X172479612Y-78203153D02*
X172574850Y-78203153D01*
D11*
X144369673Y-102452219D02*
X144369673Y-101452219D01*
X144369673Y-101452219D02*
X144607768Y-101452219D01*
X144607768Y-101452219D02*
X144750625Y-101499838D01*
X144750625Y-101499838D02*
X144845863Y-101595076D01*
X144845863Y-101595076D02*
X144893482Y-101690314D01*
X144893482Y-101690314D02*
X144941101Y-101880790D01*
X144941101Y-101880790D02*
X144941101Y-102023647D01*
X144941101Y-102023647D02*
X144893482Y-102214123D01*
X144893482Y-102214123D02*
X144845863Y-102309361D01*
X144845863Y-102309361D02*
X144750625Y-102404600D01*
X144750625Y-102404600D02*
X144607768Y-102452219D01*
X144607768Y-102452219D02*
X144369673Y-102452219D01*
X145941101Y-102356980D02*
X145893482Y-102404600D01*
X145893482Y-102404600D02*
X145750625Y-102452219D01*
X145750625Y-102452219D02*
X145655387Y-102452219D01*
X145655387Y-102452219D02*
X145512530Y-102404600D01*
X145512530Y-102404600D02*
X145417292Y-102309361D01*
X145417292Y-102309361D02*
X145369673Y-102214123D01*
X145369673Y-102214123D02*
X145322054Y-102023647D01*
X145322054Y-102023647D02*
X145322054Y-101880790D01*
X145322054Y-101880790D02*
X145369673Y-101690314D01*
X145369673Y-101690314D02*
X145417292Y-101595076D01*
X145417292Y-101595076D02*
X145512530Y-101499838D01*
X145512530Y-101499838D02*
X145655387Y-101452219D01*
X145655387Y-101452219D02*
X145750625Y-101452219D01*
X145750625Y-101452219D02*
X145893482Y-101499838D01*
X145893482Y-101499838D02*
X145941101Y-101547457D01*
X147274435Y-102452219D02*
X147179197Y-102404600D01*
X147179197Y-102404600D02*
X147131578Y-102356980D01*
X147131578Y-102356980D02*
X147083959Y-102261742D01*
X147083959Y-102261742D02*
X147083959Y-101976028D01*
X147083959Y-101976028D02*
X147131578Y-101880790D01*
X147131578Y-101880790D02*
X147179197Y-101833171D01*
X147179197Y-101833171D02*
X147274435Y-101785552D01*
X147274435Y-101785552D02*
X147417292Y-101785552D01*
X147417292Y-101785552D02*
X147512530Y-101833171D01*
X147512530Y-101833171D02*
X147560149Y-101880790D01*
X147560149Y-101880790D02*
X147607768Y-101976028D01*
X147607768Y-101976028D02*
X147607768Y-102261742D01*
X147607768Y-102261742D02*
X147560149Y-102356980D01*
X147560149Y-102356980D02*
X147512530Y-102404600D01*
X147512530Y-102404600D02*
X147417292Y-102452219D01*
X147417292Y-102452219D02*
X147274435Y-102452219D01*
X148464911Y-101785552D02*
X148464911Y-102452219D01*
X148036340Y-101785552D02*
X148036340Y-102309361D01*
X148036340Y-102309361D02*
X148083959Y-102404600D01*
X148083959Y-102404600D02*
X148179197Y-102452219D01*
X148179197Y-102452219D02*
X148322054Y-102452219D01*
X148322054Y-102452219D02*
X148417292Y-102404600D01*
X148417292Y-102404600D02*
X148464911Y-102356980D01*
X148798245Y-101785552D02*
X149179197Y-101785552D01*
X148941102Y-101452219D02*
X148941102Y-102309361D01*
X148941102Y-102309361D02*
X148988721Y-102404600D01*
X148988721Y-102404600D02*
X149083959Y-102452219D01*
X149083959Y-102452219D02*
X149179197Y-102452219D01*
X147822054Y-78666504D02*
X148298244Y-78666504D01*
X147726816Y-78952219D02*
X148060149Y-77952219D01*
X148060149Y-77952219D02*
X148393482Y-78952219D01*
X149298244Y-78856980D02*
X149250625Y-78904600D01*
X149250625Y-78904600D02*
X149107768Y-78952219D01*
X149107768Y-78952219D02*
X149012530Y-78952219D01*
X149012530Y-78952219D02*
X148869673Y-78904600D01*
X148869673Y-78904600D02*
X148774435Y-78809361D01*
X148774435Y-78809361D02*
X148726816Y-78714123D01*
X148726816Y-78714123D02*
X148679197Y-78523647D01*
X148679197Y-78523647D02*
X148679197Y-78380790D01*
X148679197Y-78380790D02*
X148726816Y-78190314D01*
X148726816Y-78190314D02*
X148774435Y-78095076D01*
X148774435Y-78095076D02*
X148869673Y-77999838D01*
X148869673Y-77999838D02*
X149012530Y-77952219D01*
X149012530Y-77952219D02*
X149107768Y-77952219D01*
X149107768Y-77952219D02*
X149250625Y-77999838D01*
X149250625Y-77999838D02*
X149298244Y-78047457D01*
X150488721Y-78952219D02*
X150488721Y-78285552D01*
X150488721Y-77952219D02*
X150441102Y-77999838D01*
X150441102Y-77999838D02*
X150488721Y-78047457D01*
X150488721Y-78047457D02*
X150536340Y-77999838D01*
X150536340Y-77999838D02*
X150488721Y-77952219D01*
X150488721Y-77952219D02*
X150488721Y-78047457D01*
X150964911Y-78285552D02*
X150964911Y-78952219D01*
X150964911Y-78380790D02*
X151012530Y-78333171D01*
X151012530Y-78333171D02*
X151107768Y-78285552D01*
X151107768Y-78285552D02*
X151250625Y-78285552D01*
X151250625Y-78285552D02*
X151345863Y-78333171D01*
X151345863Y-78333171D02*
X151393482Y-78428409D01*
X151393482Y-78428409D02*
X151393482Y-78952219D01*
D12*
X170643333Y-90534819D02*
X170310000Y-90058628D01*
X170071905Y-90534819D02*
X170071905Y-89534819D01*
X170071905Y-89534819D02*
X170452857Y-89534819D01*
X170452857Y-89534819D02*
X170548095Y-89582438D01*
X170548095Y-89582438D02*
X170595714Y-89630057D01*
X170595714Y-89630057D02*
X170643333Y-89725295D01*
X170643333Y-89725295D02*
X170643333Y-89868152D01*
X170643333Y-89868152D02*
X170595714Y-89963390D01*
X170595714Y-89963390D02*
X170548095Y-90011009D01*
X170548095Y-90011009D02*
X170452857Y-90058628D01*
X170452857Y-90058628D02*
X170071905Y-90058628D01*
X171024286Y-89630057D02*
X171071905Y-89582438D01*
X171071905Y-89582438D02*
X171167143Y-89534819D01*
X171167143Y-89534819D02*
X171405238Y-89534819D01*
X171405238Y-89534819D02*
X171500476Y-89582438D01*
X171500476Y-89582438D02*
X171548095Y-89630057D01*
X171548095Y-89630057D02*
X171595714Y-89725295D01*
X171595714Y-89725295D02*
X171595714Y-89820533D01*
X171595714Y-89820533D02*
X171548095Y-89963390D01*
X171548095Y-89963390D02*
X170976667Y-90534819D01*
X170976667Y-90534819D02*
X171595714Y-90534819D01*
X146954819Y-81333333D02*
X147669104Y-81333333D01*
X147669104Y-81333333D02*
X147811961Y-81380952D01*
X147811961Y-81380952D02*
X147907200Y-81476190D01*
X147907200Y-81476190D02*
X147954819Y-81619047D01*
X147954819Y-81619047D02*
X147954819Y-81714285D01*
X147954819Y-80333333D02*
X147954819Y-80904761D01*
X147954819Y-80619047D02*
X146954819Y-80619047D01*
X146954819Y-80619047D02*
X147097676Y-80714285D01*
X147097676Y-80714285D02*
X147192914Y-80809523D01*
X147192914Y-80809523D02*
X147240533Y-80904761D01*
X160454819Y-86238094D02*
X159454819Y-86238094D01*
X159454819Y-86238094D02*
X159454819Y-85999999D01*
X159454819Y-85999999D02*
X159502438Y-85857142D01*
X159502438Y-85857142D02*
X159597676Y-85761904D01*
X159597676Y-85761904D02*
X159692914Y-85714285D01*
X159692914Y-85714285D02*
X159883390Y-85666666D01*
X159883390Y-85666666D02*
X160026247Y-85666666D01*
X160026247Y-85666666D02*
X160216723Y-85714285D01*
X160216723Y-85714285D02*
X160311961Y-85761904D01*
X160311961Y-85761904D02*
X160407200Y-85857142D01*
X160407200Y-85857142D02*
X160454819Y-85999999D01*
X160454819Y-85999999D02*
X160454819Y-86238094D01*
X159454819Y-85333332D02*
X159454819Y-84714285D01*
X159454819Y-84714285D02*
X159835771Y-85047618D01*
X159835771Y-85047618D02*
X159835771Y-84904761D01*
X159835771Y-84904761D02*
X159883390Y-84809523D01*
X159883390Y-84809523D02*
X159931009Y-84761904D01*
X159931009Y-84761904D02*
X160026247Y-84714285D01*
X160026247Y-84714285D02*
X160264342Y-84714285D01*
X160264342Y-84714285D02*
X160359580Y-84761904D01*
X160359580Y-84761904D02*
X160407200Y-84809523D01*
X160407200Y-84809523D02*
X160454819Y-84904761D01*
X160454819Y-84904761D02*
X160454819Y-85190475D01*
X160454819Y-85190475D02*
X160407200Y-85285713D01*
X160407200Y-85285713D02*
X160359580Y-85333332D01*
X164554819Y-80761904D02*
X163554819Y-80761904D01*
X164554819Y-80190476D02*
X163983390Y-80619047D01*
X163554819Y-80190476D02*
X164126247Y-80761904D01*
X169374819Y-84166666D02*
X168898628Y-84499999D01*
X169374819Y-84738094D02*
X168374819Y-84738094D01*
X168374819Y-84738094D02*
X168374819Y-84357142D01*
X168374819Y-84357142D02*
X168422438Y-84261904D01*
X168422438Y-84261904D02*
X168470057Y-84214285D01*
X168470057Y-84214285D02*
X168565295Y-84166666D01*
X168565295Y-84166666D02*
X168708152Y-84166666D01*
X168708152Y-84166666D02*
X168803390Y-84214285D01*
X168803390Y-84214285D02*
X168851009Y-84261904D01*
X168851009Y-84261904D02*
X168898628Y-84357142D01*
X168898628Y-84357142D02*
X168898628Y-84738094D01*
X169374819Y-83214285D02*
X169374819Y-83785713D01*
X169374819Y-83499999D02*
X168374819Y-83499999D01*
X168374819Y-83499999D02*
X168517676Y-83595237D01*
X168517676Y-83595237D02*
X168612914Y-83690475D01*
X168612914Y-83690475D02*
X168660533Y-83785713D01*
X178109580Y-100666666D02*
X178157200Y-100714285D01*
X178157200Y-100714285D02*
X178204819Y-100857142D01*
X178204819Y-100857142D02*
X178204819Y-100952380D01*
X178204819Y-100952380D02*
X178157200Y-101095237D01*
X178157200Y-101095237D02*
X178061961Y-101190475D01*
X178061961Y-101190475D02*
X177966723Y-101238094D01*
X177966723Y-101238094D02*
X177776247Y-101285713D01*
X177776247Y-101285713D02*
X177633390Y-101285713D01*
X177633390Y-101285713D02*
X177442914Y-101238094D01*
X177442914Y-101238094D02*
X177347676Y-101190475D01*
X177347676Y-101190475D02*
X177252438Y-101095237D01*
X177252438Y-101095237D02*
X177204819Y-100952380D01*
X177204819Y-100952380D02*
X177204819Y-100857142D01*
X177204819Y-100857142D02*
X177252438Y-100714285D01*
X177252438Y-100714285D02*
X177300057Y-100666666D01*
X178204819Y-99714285D02*
X178204819Y-100285713D01*
X178204819Y-99999999D02*
X177204819Y-99999999D01*
X177204819Y-99999999D02*
X177347676Y-100095237D01*
X177347676Y-100095237D02*
X177442914Y-100190475D01*
X177442914Y-100190475D02*
X177490533Y-100285713D01*
X173491905Y-79494819D02*
X173491905Y-78494819D01*
X173491905Y-78494819D02*
X173730000Y-78494819D01*
X173730000Y-78494819D02*
X173872857Y-78542438D01*
X173872857Y-78542438D02*
X173968095Y-78637676D01*
X173968095Y-78637676D02*
X174015714Y-78732914D01*
X174015714Y-78732914D02*
X174063333Y-78923390D01*
X174063333Y-78923390D02*
X174063333Y-79066247D01*
X174063333Y-79066247D02*
X174015714Y-79256723D01*
X174015714Y-79256723D02*
X173968095Y-79351961D01*
X173968095Y-79351961D02*
X173872857Y-79447200D01*
X173872857Y-79447200D02*
X173730000Y-79494819D01*
X173730000Y-79494819D02*
X173491905Y-79494819D01*
X174968095Y-78494819D02*
X174491905Y-78494819D01*
X174491905Y-78494819D02*
X174444286Y-78971009D01*
X174444286Y-78971009D02*
X174491905Y-78923390D01*
X174491905Y-78923390D02*
X174587143Y-78875771D01*
X174587143Y-78875771D02*
X174825238Y-78875771D01*
X174825238Y-78875771D02*
X174920476Y-78923390D01*
X174920476Y-78923390D02*
X174968095Y-78971009D01*
X174968095Y-78971009D02*
X175015714Y-79066247D01*
X175015714Y-79066247D02*
X175015714Y-79304342D01*
X175015714Y-79304342D02*
X174968095Y-79399580D01*
X174968095Y-79399580D02*
X174920476Y-79447200D01*
X174920476Y-79447200D02*
X174825238Y-79494819D01*
X174825238Y-79494819D02*
X174587143Y-79494819D01*
X174587143Y-79494819D02*
X174491905Y-79447200D01*
X174491905Y-79447200D02*
X174444286Y-79399580D01*
X158424819Y-86318094D02*
X157424819Y-86318094D01*
X157424819Y-86318094D02*
X157424819Y-86079999D01*
X157424819Y-86079999D02*
X157472438Y-85937142D01*
X157472438Y-85937142D02*
X157567676Y-85841904D01*
X157567676Y-85841904D02*
X157662914Y-85794285D01*
X157662914Y-85794285D02*
X157853390Y-85746666D01*
X157853390Y-85746666D02*
X157996247Y-85746666D01*
X157996247Y-85746666D02*
X158186723Y-85794285D01*
X158186723Y-85794285D02*
X158281961Y-85841904D01*
X158281961Y-85841904D02*
X158377200Y-85937142D01*
X158377200Y-85937142D02*
X158424819Y-86079999D01*
X158424819Y-86079999D02*
X158424819Y-86318094D01*
X158424819Y-84794285D02*
X158424819Y-85365713D01*
X158424819Y-85079999D02*
X157424819Y-85079999D01*
X157424819Y-85079999D02*
X157567676Y-85175237D01*
X157567676Y-85175237D02*
X157662914Y-85270475D01*
X157662914Y-85270475D02*
X157710533Y-85365713D01*
X157954819Y-79761904D02*
X156954819Y-79761904D01*
X157954819Y-79190476D02*
X157383390Y-79619047D01*
X156954819Y-79190476D02*
X157526247Y-79761904D01*
X169984819Y-101708094D02*
X168984819Y-101708094D01*
X168984819Y-101708094D02*
X168984819Y-101469999D01*
X168984819Y-101469999D02*
X169032438Y-101327142D01*
X169032438Y-101327142D02*
X169127676Y-101231904D01*
X169127676Y-101231904D02*
X169222914Y-101184285D01*
X169222914Y-101184285D02*
X169413390Y-101136666D01*
X169413390Y-101136666D02*
X169556247Y-101136666D01*
X169556247Y-101136666D02*
X169746723Y-101184285D01*
X169746723Y-101184285D02*
X169841961Y-101231904D01*
X169841961Y-101231904D02*
X169937200Y-101327142D01*
X169937200Y-101327142D02*
X169984819Y-101469999D01*
X169984819Y-101469999D02*
X169984819Y-101708094D01*
X169318152Y-100279523D02*
X169984819Y-100279523D01*
X168937200Y-100517618D02*
X169651485Y-100755713D01*
X169651485Y-100755713D02*
X169651485Y-100136666D01*
X170354819Y-106311904D02*
X169354819Y-106311904D01*
X170354819Y-105740476D02*
X169783390Y-106169047D01*
X169354819Y-105740476D02*
X169926247Y-106311904D01*
X146454819Y-93333333D02*
X147169104Y-93333333D01*
X147169104Y-93333333D02*
X147311961Y-93380952D01*
X147311961Y-93380952D02*
X147407200Y-93476190D01*
X147407200Y-93476190D02*
X147454819Y-93619047D01*
X147454819Y-93619047D02*
X147454819Y-93714285D01*
X146550057Y-92904761D02*
X146502438Y-92857142D01*
X146502438Y-92857142D02*
X146454819Y-92761904D01*
X146454819Y-92761904D02*
X146454819Y-92523809D01*
X146454819Y-92523809D02*
X146502438Y-92428571D01*
X146502438Y-92428571D02*
X146550057Y-92380952D01*
X146550057Y-92380952D02*
X146645295Y-92333333D01*
X146645295Y-92333333D02*
X146740533Y-92333333D01*
X146740533Y-92333333D02*
X146883390Y-92380952D01*
X146883390Y-92380952D02*
X147454819Y-92952380D01*
X147454819Y-92952380D02*
X147454819Y-92333333D01*
X159954819Y-96318094D02*
X158954819Y-96318094D01*
X158954819Y-96318094D02*
X158954819Y-96079999D01*
X158954819Y-96079999D02*
X159002438Y-95937142D01*
X159002438Y-95937142D02*
X159097676Y-95841904D01*
X159097676Y-95841904D02*
X159192914Y-95794285D01*
X159192914Y-95794285D02*
X159383390Y-95746666D01*
X159383390Y-95746666D02*
X159526247Y-95746666D01*
X159526247Y-95746666D02*
X159716723Y-95794285D01*
X159716723Y-95794285D02*
X159811961Y-95841904D01*
X159811961Y-95841904D02*
X159907200Y-95937142D01*
X159907200Y-95937142D02*
X159954819Y-96079999D01*
X159954819Y-96079999D02*
X159954819Y-96318094D01*
X159050057Y-95365713D02*
X159002438Y-95318094D01*
X159002438Y-95318094D02*
X158954819Y-95222856D01*
X158954819Y-95222856D02*
X158954819Y-94984761D01*
X158954819Y-94984761D02*
X159002438Y-94889523D01*
X159002438Y-94889523D02*
X159050057Y-94841904D01*
X159050057Y-94841904D02*
X159145295Y-94794285D01*
X159145295Y-94794285D02*
X159240533Y-94794285D01*
X159240533Y-94794285D02*
X159383390Y-94841904D01*
X159383390Y-94841904D02*
X159954819Y-95413332D01*
X159954819Y-95413332D02*
X159954819Y-94794285D01*
X150772319Y-105496904D02*
X149772319Y-105496904D01*
X150772319Y-104925476D02*
X150200890Y-105354047D01*
X149772319Y-104925476D02*
X150343747Y-105496904D01*
D13*
%TO.C,R2*%
X167940000Y-92000000D02*
X168890000Y-92000000D01*
X173680000Y-92000000D02*
X172730000Y-92000000D01*
X168890000Y-91080000D02*
X172730000Y-91080000D01*
X172730000Y-92920000D01*
X168890000Y-92920000D01*
X168890000Y-91080000D01*
%TO.C,J1*%
X142997500Y-82595000D02*
X149737500Y-82595000D01*
X142997500Y-88415000D02*
X142997500Y-82595000D01*
X144717500Y-88415000D02*
X144717500Y-82595000D01*
X147817500Y-88415000D02*
X147817500Y-82595000D01*
X148817500Y-88415000D02*
X148817500Y-82595000D01*
X149737500Y-82595000D02*
X149737500Y-86475000D01*
X149737500Y-87075000D02*
X149737500Y-88415000D01*
X149737500Y-88415000D02*
X142997500Y-88415000D01*
X150347500Y-87215000D02*
X149737500Y-86775000D01*
X150347500Y-86335000D01*
X150347500Y-87215000D01*
G36*
X150347500Y-87215000D02*
G01*
X149737500Y-86775000D01*
X150347500Y-86335000D01*
X150347500Y-87215000D01*
G37*
%TO.C,D3*%
X162000000Y-81840000D02*
X162000000Y-82860000D01*
X162000000Y-89320000D02*
X162000000Y-88300000D01*
X163470000Y-83640000D02*
X160530000Y-83640000D01*
X163470000Y-83760000D02*
X160530000Y-83760000D01*
X163470000Y-83880000D02*
X160530000Y-83880000D01*
X163470000Y-82860000D02*
X160530000Y-82860000D01*
X160530000Y-88300000D01*
X163470000Y-88300000D01*
X163470000Y-82860000D01*
%TO.C,R1*%
X167000000Y-81130000D02*
X167000000Y-82080000D01*
X167000000Y-86870000D02*
X167000000Y-85920000D01*
X167920000Y-82080000D02*
X166080000Y-82080000D01*
X166080000Y-85920000D01*
X167920000Y-85920000D01*
X167920000Y-82080000D01*
%TO.C,C1*%
X176620000Y-100500000D02*
G75*
G02*
X168380000Y-100500000I-4120000J0D01*
G01*
X168380000Y-100500000D02*
G75*
G02*
X176620000Y-100500000I4120000J0D01*
G01*
%TO.C,D5*%
X171670000Y-81455000D02*
X171670000Y-84545000D01*
X171670000Y-81455170D02*
G75*
G02*
X177220000Y-83000000I2560000J-1544830D01*
G01*
X177220000Y-83000000D02*
G75*
G02*
X171670000Y-84544830I-2990000J0D01*
G01*
X176730000Y-83000000D02*
G75*
G02*
X171730000Y-83000000I-2500000J0D01*
G01*
X171730000Y-83000000D02*
G75*
G02*
X176730000Y-83000000I2500000J0D01*
G01*
%TO.C,D1*%
X155500000Y-81840000D02*
X155500000Y-82860000D01*
X155500000Y-89320000D02*
X155500000Y-88300000D01*
X156970000Y-83640000D02*
X154030000Y-83640000D01*
X156970000Y-83760000D02*
X154030000Y-83760000D01*
X156970000Y-83880000D02*
X154030000Y-83880000D01*
X156970000Y-82860000D02*
X154030000Y-82860000D01*
X154030000Y-88300000D01*
X156970000Y-88300000D01*
X156970000Y-82860000D01*
%TO.C,D4*%
X162000000Y-97340000D02*
X162000000Y-98360000D01*
X162000000Y-104820000D02*
X162000000Y-103800000D01*
X163470000Y-99140000D02*
X160530000Y-99140000D01*
X163470000Y-99260000D02*
X160530000Y-99260000D01*
X163470000Y-99380000D02*
X160530000Y-99380000D01*
X163470000Y-98360000D02*
X160530000Y-98360000D01*
X160530000Y-103800000D01*
X163470000Y-103800000D01*
X163470000Y-98360000D01*
%TO.C,J2*%
X143262500Y-94585000D02*
X150002500Y-94585000D01*
X143262500Y-95925000D02*
X143262500Y-94585000D01*
X143262500Y-100405000D02*
X143262500Y-96525000D01*
X144182500Y-94585000D02*
X144182500Y-100405000D01*
X145182500Y-94585000D02*
X145182500Y-100405000D01*
X148282500Y-94585000D02*
X148282500Y-100405000D01*
X150002500Y-94585000D02*
X150002500Y-100405000D01*
X150002500Y-100405000D02*
X143262500Y-100405000D01*
X143262500Y-96225000D02*
X142652500Y-96665000D01*
X142652500Y-95785000D01*
X143262500Y-96225000D01*
G36*
X143262500Y-96225000D02*
G01*
X142652500Y-96665000D01*
X142652500Y-95785000D01*
X143262500Y-96225000D01*
G37*
%TO.C,D2*%
X155500000Y-97340000D02*
X155500000Y-98360000D01*
X155500000Y-104820000D02*
X155500000Y-103800000D01*
X156970000Y-99140000D02*
X154030000Y-99140000D01*
X156970000Y-99260000D02*
X154030000Y-99260000D01*
X156970000Y-99380000D02*
X154030000Y-99380000D01*
X156970000Y-98360000D02*
X154030000Y-98360000D01*
X154030000Y-103800000D01*
X156970000Y-103800000D01*
X156970000Y-98360000D01*
D14*
%TO.C,REF\u002A\u002A*%
G36*
X180729339Y-97992414D02*
G01*
X177233777Y-97992414D01*
X177233777Y-97141218D01*
X180729339Y-97141218D01*
X180729339Y-97992414D01*
G37*
G36*
X179709894Y-95410495D02*
G01*
X179715855Y-95410949D01*
X179721729Y-95411695D01*
X179727508Y-95412727D01*
X179733187Y-95414038D01*
X179738756Y-95415620D01*
X179744210Y-95417465D01*
X179749540Y-95419567D01*
X179754739Y-95421917D01*
X179759800Y-95424509D01*
X179764715Y-95427336D01*
X179769477Y-95430389D01*
X179774079Y-95433661D01*
X179778513Y-95437146D01*
X179782772Y-95440835D01*
X179786848Y-95444721D01*
X179790735Y-95448798D01*
X179794424Y-95453057D01*
X179797908Y-95457491D01*
X179801181Y-95462093D01*
X179804234Y-95466855D01*
X179807060Y-95471770D01*
X179809652Y-95476831D01*
X179812003Y-95482030D01*
X179814105Y-95487360D01*
X179815950Y-95492813D01*
X179817532Y-95498383D01*
X179818842Y-95504061D01*
X179819875Y-95509841D01*
X179820621Y-95515715D01*
X179821074Y-95521675D01*
X179821227Y-95527715D01*
X179821074Y-95533755D01*
X179820621Y-95539715D01*
X179819875Y-95545589D01*
X179818842Y-95551368D01*
X179817532Y-95557046D01*
X179815950Y-95562616D01*
X179814105Y-95568069D01*
X179812003Y-95573399D01*
X179809652Y-95578597D01*
X179807060Y-95583658D01*
X179804234Y-95588573D01*
X179801181Y-95593334D01*
X179797908Y-95597936D01*
X179794424Y-95602369D01*
X179790735Y-95606628D01*
X179786848Y-95610703D01*
X179782772Y-95614589D01*
X179778513Y-95618278D01*
X179774079Y-95621762D01*
X179769477Y-95625034D01*
X179764715Y-95628087D01*
X179759800Y-95630913D01*
X179754739Y-95633504D01*
X179749540Y-95635855D01*
X179744210Y-95637956D01*
X179738756Y-95639801D01*
X179733187Y-95641383D01*
X179727508Y-95642693D01*
X179721729Y-95643725D01*
X179715855Y-95644471D01*
X179709894Y-95644925D01*
X179703855Y-95645077D01*
X179697815Y-95644925D01*
X179691855Y-95644471D01*
X179685981Y-95643725D01*
X179680201Y-95642693D01*
X179674523Y-95641383D01*
X179668953Y-95639801D01*
X179663500Y-95637956D01*
X179658170Y-95635855D01*
X179652970Y-95633504D01*
X179647910Y-95630913D01*
X179642994Y-95628087D01*
X179638232Y-95625034D01*
X179633630Y-95621762D01*
X179629196Y-95618278D01*
X179624937Y-95614589D01*
X179620861Y-95610703D01*
X179616975Y-95606628D01*
X179613285Y-95602369D01*
X179609801Y-95597936D01*
X179606528Y-95593334D01*
X179603475Y-95588572D01*
X179600649Y-95583658D01*
X179598057Y-95578597D01*
X179595706Y-95573399D01*
X179593605Y-95568069D01*
X179591759Y-95562616D01*
X179590178Y-95557046D01*
X179588867Y-95551368D01*
X179587835Y-95545589D01*
X179587088Y-95539715D01*
X179586635Y-95533755D01*
X179586482Y-95527715D01*
X179586635Y-95521676D01*
X179587088Y-95515715D01*
X179587835Y-95509841D01*
X179588867Y-95504062D01*
X179590178Y-95498383D01*
X179591759Y-95492814D01*
X179593605Y-95487360D01*
X179595706Y-95482030D01*
X179598057Y-95476831D01*
X179600649Y-95471770D01*
X179603475Y-95466855D01*
X179606528Y-95462093D01*
X179609801Y-95457491D01*
X179613285Y-95453057D01*
X179616975Y-95448798D01*
X179620861Y-95444722D01*
X179624937Y-95440835D01*
X179629196Y-95437146D01*
X179633630Y-95433661D01*
X179638232Y-95430389D01*
X179642994Y-95427336D01*
X179647910Y-95424510D01*
X179652970Y-95421917D01*
X179658170Y-95419567D01*
X179663500Y-95417465D01*
X179668953Y-95415620D01*
X179674523Y-95414038D01*
X179680201Y-95412727D01*
X179685981Y-95411695D01*
X179691855Y-95410949D01*
X179697815Y-95410495D01*
X179703855Y-95410343D01*
X179709894Y-95410495D01*
G37*
G36*
X181120808Y-92127235D02*
G01*
X180197785Y-93067430D01*
X180216999Y-93067430D01*
X180216999Y-93488117D01*
X179942209Y-93488117D01*
X179795478Y-95062478D01*
X180880875Y-96205587D01*
X180808868Y-96273925D01*
X180046551Y-95469773D01*
X180047664Y-95476862D01*
X180048634Y-95483998D01*
X180049459Y-95491180D01*
X180050138Y-95498405D01*
X180050669Y-95505672D01*
X180051050Y-95512981D01*
X180051280Y-95520329D01*
X180051357Y-95527715D01*
X180050905Y-95545598D01*
X180049563Y-95563246D01*
X180047353Y-95580637D01*
X180044297Y-95597750D01*
X180040417Y-95614562D01*
X180035734Y-95631052D01*
X180030271Y-95647198D01*
X180024049Y-95662979D01*
X180017090Y-95678371D01*
X180009416Y-95693355D01*
X180001049Y-95707907D01*
X179992010Y-95722005D01*
X179982322Y-95735629D01*
X179972006Y-95748756D01*
X179961084Y-95761365D01*
X179949578Y-95773433D01*
X179937510Y-95784938D01*
X179924902Y-95795860D01*
X179911774Y-95806176D01*
X179898150Y-95815864D01*
X179884052Y-95824902D01*
X179869500Y-95833269D01*
X179854516Y-95840942D01*
X179839124Y-95847901D01*
X179823344Y-95854123D01*
X179807198Y-95859586D01*
X179790708Y-95864268D01*
X179773896Y-95868148D01*
X179756784Y-95871204D01*
X179739393Y-95873413D01*
X179721746Y-95874755D01*
X179703864Y-95875207D01*
X179679092Y-95874338D01*
X179654788Y-95871769D01*
X179631012Y-95867559D01*
X179607821Y-95861766D01*
X179585276Y-95854449D01*
X179563433Y-95845666D01*
X179542352Y-95835475D01*
X179522091Y-95823936D01*
X179502709Y-95811106D01*
X179484264Y-95797045D01*
X179466814Y-95781810D01*
X179450419Y-95765460D01*
X179435136Y-95748054D01*
X179421024Y-95729649D01*
X179408143Y-95710305D01*
X179396549Y-95690080D01*
X178546771Y-95690080D01*
X178546771Y-95871608D01*
X178323196Y-95871608D01*
X178323196Y-95689617D01*
X178320746Y-95689211D01*
X178318305Y-95688684D01*
X178315879Y-95688039D01*
X178313471Y-95687282D01*
X178311085Y-95686415D01*
X178308726Y-95685442D01*
X178306396Y-95684366D01*
X178304101Y-95683192D01*
X178299629Y-95680563D01*
X178295342Y-95677582D01*
X178291272Y-95674280D01*
X178287450Y-95670687D01*
X178283909Y-95666830D01*
X178280680Y-95662739D01*
X178277795Y-95658445D01*
X178276492Y-95656230D01*
X178275287Y-95653975D01*
X178274184Y-95651684D01*
X178273188Y-95649360D01*
X178272301Y-95647007D01*
X178271528Y-95644628D01*
X178270874Y-95642228D01*
X178270341Y-95639809D01*
X178269934Y-95637377D01*
X178269658Y-95634933D01*
X178221921Y-95080073D01*
X177037530Y-96286503D01*
X176966728Y-96216928D01*
X178195348Y-94966662D01*
X178333250Y-94966662D01*
X178385100Y-95569440D01*
X179358826Y-95569440D01*
X179358252Y-95564297D01*
X179357752Y-95559133D01*
X179357327Y-95553946D01*
X179356978Y-95548740D01*
X179356706Y-95543512D01*
X179356510Y-95538265D01*
X179356392Y-95533000D01*
X179356352Y-95527715D01*
X179523131Y-95527715D01*
X179523366Y-95537015D01*
X179524064Y-95546193D01*
X179525213Y-95555237D01*
X179526802Y-95564136D01*
X179528820Y-95572880D01*
X179531255Y-95581456D01*
X179534096Y-95589853D01*
X179537332Y-95598060D01*
X179540951Y-95606065D01*
X179544942Y-95613857D01*
X179549293Y-95621425D01*
X179553994Y-95628758D01*
X179559032Y-95635844D01*
X179564397Y-95642671D01*
X179570077Y-95649228D01*
X179576061Y-95655505D01*
X179582337Y-95661489D01*
X179588895Y-95667169D01*
X179595722Y-95672534D01*
X179602807Y-95677573D01*
X179610140Y-95682274D01*
X179617708Y-95686626D01*
X179625500Y-95690617D01*
X179633506Y-95694236D01*
X179641713Y-95697472D01*
X179650110Y-95700313D01*
X179658686Y-95702749D01*
X179667430Y-95704767D01*
X179676330Y-95706356D01*
X179685375Y-95707506D01*
X179694554Y-95708204D01*
X179703854Y-95708439D01*
X179713154Y-95708204D01*
X179722332Y-95707506D01*
X179731376Y-95706356D01*
X179740276Y-95704767D01*
X179749019Y-95702749D01*
X179757595Y-95700313D01*
X179765992Y-95697472D01*
X179774199Y-95694236D01*
X179782204Y-95690617D01*
X179789997Y-95686626D01*
X179797565Y-95682274D01*
X179804897Y-95677573D01*
X179811983Y-95672534D01*
X179818810Y-95667169D01*
X179825368Y-95661489D01*
X179831644Y-95655505D01*
X179837628Y-95649228D01*
X179843309Y-95642671D01*
X179848674Y-95635844D01*
X179853712Y-95628758D01*
X179858413Y-95621425D01*
X179862765Y-95613857D01*
X179866756Y-95606065D01*
X179870375Y-95598060D01*
X179873611Y-95589853D01*
X179876453Y-95581456D01*
X179878888Y-95572880D01*
X179880906Y-95564136D01*
X179882496Y-95555237D01*
X179883645Y-95546193D01*
X179884343Y-95537015D01*
X179884578Y-95527715D01*
X179884343Y-95518415D01*
X179883645Y-95509236D01*
X179882496Y-95500191D01*
X179880906Y-95491291D01*
X179878888Y-95482547D01*
X179876453Y-95473971D01*
X179873611Y-95465574D01*
X179870375Y-95457366D01*
X179866756Y-95449361D01*
X179862765Y-95441568D01*
X179858413Y-95434000D01*
X179853712Y-95426668D01*
X179848674Y-95419582D01*
X179843309Y-95412755D01*
X179837628Y-95406198D01*
X179831644Y-95399922D01*
X179825368Y-95393938D01*
X179818810Y-95388258D01*
X179811983Y-95382893D01*
X179804897Y-95377854D01*
X179797565Y-95373154D01*
X179789997Y-95368802D01*
X179782204Y-95364812D01*
X179774199Y-95361193D01*
X179765992Y-95357957D01*
X179757595Y-95355116D01*
X179749019Y-95352681D01*
X179740276Y-95350663D01*
X179731376Y-95349074D01*
X179722332Y-95347924D01*
X179713154Y-95347226D01*
X179703854Y-95346991D01*
X179694554Y-95347226D01*
X179685375Y-95347924D01*
X179676331Y-95349074D01*
X179667430Y-95350663D01*
X179658687Y-95352681D01*
X179650110Y-95355116D01*
X179641713Y-95357957D01*
X179633506Y-95361193D01*
X179625500Y-95364812D01*
X179617708Y-95368802D01*
X179610140Y-95373154D01*
X179602807Y-95377854D01*
X179595722Y-95382893D01*
X179588895Y-95388258D01*
X179582337Y-95393938D01*
X179576061Y-95399922D01*
X179570077Y-95406198D01*
X179564397Y-95412755D01*
X179559032Y-95419582D01*
X179553994Y-95426668D01*
X179549293Y-95434000D01*
X179544942Y-95441568D01*
X179540951Y-95449361D01*
X179537332Y-95457366D01*
X179534096Y-95465574D01*
X179531255Y-95473971D01*
X179528820Y-95482547D01*
X179526802Y-95491291D01*
X179525213Y-95500191D01*
X179524064Y-95509236D01*
X179523366Y-95518415D01*
X179523131Y-95527715D01*
X179356352Y-95527715D01*
X179356742Y-95511109D01*
X179357900Y-95494704D01*
X179359808Y-95478517D01*
X179362449Y-95462567D01*
X179365806Y-95446869D01*
X179369860Y-95431442D01*
X179374595Y-95416304D01*
X179379994Y-95401471D01*
X179386038Y-95386961D01*
X179392710Y-95372792D01*
X179399993Y-95358980D01*
X179407869Y-95345545D01*
X179416321Y-95332502D01*
X179425332Y-95319870D01*
X179434883Y-95307665D01*
X179444958Y-95295906D01*
X179455539Y-95284610D01*
X179466609Y-95273794D01*
X179478150Y-95263476D01*
X179490144Y-95253673D01*
X179502574Y-95244402D01*
X179515424Y-95235682D01*
X179528674Y-95227529D01*
X179542308Y-95219961D01*
X179556309Y-95212996D01*
X179570658Y-95206651D01*
X179585339Y-95200943D01*
X179600334Y-95195890D01*
X179615626Y-95191509D01*
X179631196Y-95187818D01*
X179647029Y-95184835D01*
X179663105Y-95182576D01*
X179673059Y-95075790D01*
X178962239Y-94325971D01*
X178333250Y-94966662D01*
X178195348Y-94966662D01*
X178210811Y-94950928D01*
X178088783Y-93532325D01*
X178209876Y-93532325D01*
X178322161Y-94837617D01*
X178893077Y-94256637D01*
X179030306Y-94256637D01*
X179685124Y-94946273D01*
X179821016Y-93488117D01*
X179807613Y-93488117D01*
X179807613Y-93464852D01*
X179030306Y-94256637D01*
X178893077Y-94256637D01*
X178894826Y-94254857D01*
X178209876Y-93532325D01*
X178088783Y-93532325D01*
X178076698Y-93391838D01*
X176893162Y-92143362D01*
X176893162Y-92005871D01*
X178063497Y-93238432D01*
X178033091Y-92884957D01*
X178154186Y-92884957D01*
X178196654Y-93378667D01*
X178962862Y-94185615D01*
X179416074Y-93724430D01*
X178777112Y-93724430D01*
X178777112Y-93483130D01*
X179516103Y-93483130D01*
X179516103Y-93622632D01*
X179754902Y-93379632D01*
X179952303Y-93379632D01*
X180111411Y-93379632D01*
X180111411Y-93175935D01*
X180091272Y-93175935D01*
X179958707Y-93310962D01*
X179952303Y-93379632D01*
X179754902Y-93379632D01*
X179807613Y-93325993D01*
X179807613Y-93067451D01*
X179860217Y-93067451D01*
X179877218Y-92884957D01*
X178154186Y-92884957D01*
X178033091Y-92884957D01*
X178032661Y-92879960D01*
X177887318Y-92879960D01*
X177887318Y-92759310D01*
X178015197Y-92759310D01*
X178470490Y-92759310D01*
X179872483Y-92759310D01*
X179866864Y-92747341D01*
X179860344Y-92735769D01*
X179852951Y-92724589D01*
X179844715Y-92713794D01*
X179835665Y-92703377D01*
X179825829Y-92693332D01*
X179815238Y-92683652D01*
X179803921Y-92674330D01*
X179791906Y-92665360D01*
X179779224Y-92656736D01*
X179765903Y-92648451D01*
X179751973Y-92640498D01*
X179722400Y-92625564D01*
X179690741Y-92611880D01*
X179657229Y-92599394D01*
X179622098Y-92588055D01*
X179585583Y-92577809D01*
X179547916Y-92568604D01*
X179509332Y-92560387D01*
X179470064Y-92553107D01*
X179430348Y-92546710D01*
X179390426Y-92541146D01*
X179390426Y-92653752D01*
X178797240Y-92653752D01*
X178797240Y-92533102D01*
X178797240Y-92528457D01*
X178757367Y-92531714D01*
X178716719Y-92535631D01*
X178675545Y-92540258D01*
X178634095Y-92545644D01*
X178592615Y-92551842D01*
X178551356Y-92558900D01*
X178510564Y-92566870D01*
X178470490Y-92575802D01*
X178470490Y-92759310D01*
X178015197Y-92759310D01*
X178015200Y-92759300D01*
X178144192Y-92759300D01*
X178264319Y-92759300D01*
X178264319Y-92649519D01*
X178254255Y-92655142D01*
X178244485Y-92660921D01*
X178235019Y-92666857D01*
X178225867Y-92672953D01*
X178217039Y-92679210D01*
X178208546Y-92685631D01*
X178200396Y-92692218D01*
X178192601Y-92698973D01*
X178185171Y-92705897D01*
X178178114Y-92712994D01*
X178171441Y-92720265D01*
X178165163Y-92727711D01*
X178159289Y-92735336D01*
X178153829Y-92743141D01*
X178148793Y-92751129D01*
X178144192Y-92759300D01*
X178015200Y-92759300D01*
X178016056Y-92756716D01*
X178016985Y-92754017D01*
X178017986Y-92751215D01*
X178019060Y-92748314D01*
X178020211Y-92745315D01*
X178021441Y-92742222D01*
X178022751Y-92739038D01*
X178024145Y-92735763D01*
X178032643Y-92717663D01*
X178042168Y-92700207D01*
X178052687Y-92683386D01*
X178064165Y-92667187D01*
X178076569Y-92651599D01*
X178089864Y-92636612D01*
X178104016Y-92622214D01*
X178118991Y-92608392D01*
X178134755Y-92595137D01*
X178151274Y-92582436D01*
X178160683Y-92575802D01*
X178168514Y-92570279D01*
X178186440Y-92558654D01*
X178205019Y-92547549D01*
X178224216Y-92536954D01*
X178243997Y-92526857D01*
X178264329Y-92517246D01*
X178264329Y-92477784D01*
X178917870Y-92477784D01*
X178917870Y-92533102D01*
X179269756Y-92533102D01*
X179269756Y-92477784D01*
X178917870Y-92477784D01*
X178264329Y-92477784D01*
X178264329Y-92437507D01*
X178470490Y-92437507D01*
X178470490Y-92449843D01*
X178511029Y-92441106D01*
X178551982Y-92433370D01*
X178593185Y-92426580D01*
X178634476Y-92420682D01*
X178675690Y-92415622D01*
X178716664Y-92411345D01*
X178757235Y-92407796D01*
X178797240Y-92404921D01*
X178797240Y-92357144D01*
X179390426Y-92357144D01*
X179390426Y-92418295D01*
X179470683Y-92429867D01*
X179510604Y-92436957D01*
X179550157Y-92444986D01*
X179589173Y-92454006D01*
X179627483Y-92464072D01*
X179664918Y-92475236D01*
X179701310Y-92487550D01*
X179736488Y-92501068D01*
X179770283Y-92515842D01*
X179802527Y-92531926D01*
X179833051Y-92549371D01*
X179861685Y-92568232D01*
X179888260Y-92588561D01*
X179912607Y-92610411D01*
X179934557Y-92633834D01*
X179940267Y-92626964D01*
X179946344Y-92620424D01*
X179952772Y-92614229D01*
X179959535Y-92608395D01*
X179966617Y-92602938D01*
X179974003Y-92597874D01*
X179981678Y-92593217D01*
X179989625Y-92588984D01*
X179997830Y-92585190D01*
X180006275Y-92581852D01*
X180014946Y-92578984D01*
X180023828Y-92576602D01*
X180032903Y-92574723D01*
X180042157Y-92573361D01*
X180051575Y-92572532D01*
X180061139Y-92572253D01*
X180069418Y-92572462D01*
X180077588Y-92573083D01*
X180085639Y-92574106D01*
X180093561Y-92575521D01*
X180101344Y-92577317D01*
X180108978Y-92579484D01*
X180116452Y-92582013D01*
X180123758Y-92584894D01*
X180130884Y-92588115D01*
X180137820Y-92591667D01*
X180144557Y-92595541D01*
X180151083Y-92599725D01*
X180157390Y-92604210D01*
X180163467Y-92608985D01*
X180169304Y-92614041D01*
X180174891Y-92619368D01*
X180180217Y-92624954D01*
X180185273Y-92630791D01*
X180190049Y-92636868D01*
X180194534Y-92643175D01*
X180198718Y-92649702D01*
X180202591Y-92656439D01*
X180206144Y-92663375D01*
X180209365Y-92670501D01*
X180212245Y-92677806D01*
X180214774Y-92685281D01*
X180216942Y-92692915D01*
X180218738Y-92700698D01*
X180220153Y-92708620D01*
X180221176Y-92716671D01*
X180221797Y-92724841D01*
X180222006Y-92733119D01*
X180221797Y-92741397D01*
X180221176Y-92749566D01*
X180220153Y-92757616D01*
X180218738Y-92765538D01*
X180216942Y-92773320D01*
X180214774Y-92780954D01*
X180212245Y-92788428D01*
X180209365Y-92795733D01*
X180206144Y-92802859D01*
X180202591Y-92809795D01*
X180198718Y-92816532D01*
X180194534Y-92823059D01*
X180190049Y-92829366D01*
X180185273Y-92835443D01*
X180180217Y-92841280D01*
X180174891Y-92846867D01*
X180169304Y-92852194D01*
X180163467Y-92857250D01*
X180157390Y-92862026D01*
X180151083Y-92866511D01*
X180144557Y-92870695D01*
X180137820Y-92874569D01*
X180130884Y-92878122D01*
X180123758Y-92881343D01*
X180116452Y-92884224D01*
X180108978Y-92886753D01*
X180101344Y-92888921D01*
X180093561Y-92890717D01*
X180085639Y-92892132D01*
X180077588Y-92893155D01*
X180069418Y-92893777D01*
X180061139Y-92893986D01*
X180057004Y-92893934D01*
X180052895Y-92893778D01*
X180048812Y-92893521D01*
X180044758Y-92893162D01*
X180040732Y-92892704D01*
X180036738Y-92892147D01*
X180032775Y-92891493D01*
X180028845Y-92890743D01*
X180024950Y-92889899D01*
X180021091Y-92888961D01*
X180017268Y-92887930D01*
X180013484Y-92886809D01*
X180009739Y-92885598D01*
X180006034Y-92884298D01*
X180002372Y-92882911D01*
X179998753Y-92881438D01*
X179981410Y-93067440D01*
X180061702Y-93067440D01*
X181120808Y-91989674D01*
X181120808Y-92127235D01*
G37*
%TD*%
M02*
